CSLSans-ExtraBold.ufo
<glyph name="exclam" format="2">
  <advance width="320"/>
  <unicode hex="0021"/>
  <outline>
    <contour>
      <point x="130" y="220" type="line"/>
      <point x="83" y="504" type="line"/>
      <point x="83" y="698" type="line"/>
      <point x="239" y="698" type="line"/>
      <point x="239" y="504" type="line"/>
      <point x="193" y="220" type="line"/>
    </contour>
    <contour>
      <point x="160" y="-12" type="qcurve" smooth="yes"/>
      <point x="112" y="-12"/>
      <point x="71" y="32"/>
      <point x="71" y="64" type="qcurve" smooth="yes"/>
      <point x="71" y="88" type="line" smooth="yes"/>
      <point x="71" y="120"/>
      <point x="112" y="164"/>
      <point x="160" y="164" type="qcurve" smooth="yes"/>
      <point x="208" y="164"/>
      <point x="249" y="120"/>
      <point x="249" y="88" type="qcurve" smooth="yes"/>
      <point x="249" y="64" type="line" smooth="yes"/>
      <point x="249" y="32"/>
      <point x="208" y="-12"/>
    </contour>
  </outline>
</glyph>
<glyph name="quotedbl" format="2">
  <advance width="493"/>
  <unicode hex="0022"/>
  <outline>
    <contour>
      <point x="68" y="414" type="line"/>
      <point x="68" y="740" type="line"/>
      <point x="200" y="740" type="line"/>
      <point x="200" y="414" type="line"/>
    </contour>
    <contour>
      <point x="293" y="414" type="line"/>
      <point x="293" y="740" type="line"/>
      <point x="425" y="740" type="line"/>
      <point x="425" y="414" type="line"/>
    </contour>
  </outline>
</glyph>
<glyph name="dollar" format="2">
  <advance width="601"/>
  <unicode hex="0024"/>
  <outline>
    <contour>
      <point x="364" y="-82" type="line"/>
      <point x="364" y="14" type="line"/>
      <point x="463" y="33"/>
      <point x="559" y="143"/>
      <point x="559" y="217" type="qcurve"/>
      <point x="559" y="294"/>
      <point x="457" y="385"/>
      <point x="352" y="408" type="qcurve"/>
      <point x="352" y="574" type="line"/>
      <point x="422" y="556"/>
      <point x="456" y="514" type="qcurve"/>
      <point x="547" y="596" type="line"/>
      <point x="483" y="673"/>
      <point x="364" y="686" type="qcurve"/>
      <point x="364" y="780" type="line"/>
      <point x="250" y="780" type="line"/>
      <point x="250" y="686" type="line"/>
      <point x="153" y="674"/>
      <point x="52" y="575"/>
      <point x="52" y="496" type="qcurve"/>
      <point x="52" y="423"/>
      <point x="151" y="325"/>
      <point x="263" y="302" type="qcurve"/>
      <point x="263" y="122" type="line"/>
      <point x="180" y="136"/>
      <point x="122" y="197" type="qcurve"/>
      <point x="32" y="115" type="line"/>
      <point x="113" y="23"/>
      <point x="250" y="10" type="qcurve"/>
      <point x="250" y="-82" type="line"/>
    </contour>
    <contour>
      <point x="263" y="428" type="line"/>
      <point x="225" y="439"/>
      <point x="190" y="471"/>
      <point x="190" y="500" type="qcurve"/>
      <point x="190" y="559"/>
      <point x="263" y="576" type="qcurve"/>
    </contour>
    <contour>
      <point x="352" y="124" type="qcurve"/>
      <point x="352" y="282" type="line"/>
      <point x="394" y="269"/>
      <point x="421" y="228"/>
      <point x="421" y="206" type="qcurve"/>
      <point x="421" y="144"/>
    </contour>
  </outline>
</glyph>
<glyph name="percent" format="2">
  <advance width="974"/>
  <unicode hex="0025"/>
  <outline>
    <contour>
      <point x="311" y="0" type="line"/>
      <point x="795" y="698" type="line"/>
      <point x="663" y="698" type="line"/>
      <point x="179" y="0" type="line"/>
    </contour>
    <contour>
      <point x="230" y="314" type="qcurve"/>
      <point x="318" y="314"/>
      <point x="410" y="414"/>
      <point x="410" y="512" type="qcurve"/>
      <point x="410" y="709"/>
      <point x="230" y="710" type="qcurve"/>
      <point x="142" y="710"/>
      <point x="50" y="610"/>
      <point x="50" y="512" type="qcurve"/>
      <point x="50" y="316"/>
    </contour>
    <contour>
      <point x="234" y="400" type="qcurve"/>
      <point x="230" y="400" type="line"/>
      <point x="178" y="400"/>
      <point x="178" y="486" type="qcurve"/>
      <point x="178" y="538" type="line"/>
      <point x="178" y="624"/>
      <point x="226" y="624" type="qcurve"/>
      <point x="230" y="624" type="line"/>
      <point x="282" y="624"/>
      <point x="282" y="541" type="qcurve"/>
      <point x="282" y="486" type="line"/>
      <point x="282" y="400"/>
    </contour>
    <contour>
      <point x="744" y="-12" type="qcurve"/>
      <point x="832" y="-12"/>
      <point x="924" y="88"/>
      <point x="924" y="186" type="qcurve"/>
      <point x="924" y="383"/>
      <point x="744" y="384" type="qcurve"/>
      <point x="656" y="384"/>
      <point x="564" y="284"/>
      <point x="564" y="186" type="qcurve"/>
      <point x="564" y="-10"/>
    </contour>
    <contour>
      <point x="748" y="74" type="qcurve"/>
      <point x="744" y="74" type="line"/>
      <point x="692" y="74"/>
      <point x="692" y="160" type="qcurve"/>
      <point x="692" y="212" type="line"/>
      <point x="692" y="298"/>
      <point x="740" y="298" type="qcurve"/>
      <point x="744" y="298" type="line"/>
      <point x="796" y="298"/>
      <point x="796" y="215" type="qcurve"/>
      <point x="796" y="160" type="line"/>
      <point x="796" y="74"/>
    </contour>
  </outline>
</glyph>
<glyph name="ampersand" format="2">
  <advance width="721"/>
  <unicode hex="0026"/>
  <outline>
    <contour>
      <point x="287" y="-12" type="qcurve"/>
      <point x="360" y="-12"/>
      <point x="455" y="29"/>
      <point x="487" y="57" type="qcurve"/>
      <point x="539" y="0" type="line"/>
      <point x="718" y="0" type="line"/>
      <point x="579" y="151" type="line"/>
      <point x="608" y="198"/>
      <point x="624" y="262" type="qcurve"/>
      <point x="687" y="262" type="line"/>
      <point x="687" y="385" type="line"/>
      <point x="520" y="385" type="line"/>
      <point x="516" y="313"/>
      <point x="491" y="246" type="qcurve"/>
      <point x="383" y="363" type="line"/>
      <point x="441" y="397"/>
      <point x="481" y="441" type="qcurve"/>
      <point x="522" y="489"/>
      <point x="522" y="550" type="qcurve"/>
      <point x="522" y="627"/>
      <point x="407" y="710"/>
      <point x="321" y="710" type="qcurve"/>
      <point x="225" y="710"/>
      <point x="112" y="611"/>
      <point x="112" y="543" type="qcurve"/>
      <point x="112" y="495"/>
      <point x="159" y="409"/>
      <point x="190" y="377" type="qcurve"/>
      <point x="128" y="343"/>
      <point x="90" y="298" type="qcurve"/>
      <point x="50" y="249"/>
      <point x="50" y="183" type="qcurve"/>
      <point x="50" y="99"/>
      <point x="172" y="-12"/>
    </contour>
    <contour>
      <point x="310" y="442" type="qcurve"/>
      <point x="280" y="476"/>
      <point x="253" y="516"/>
      <point x="253" y="536" type="qcurve"/>
      <point x="253" y="567"/>
      <point x="290" y="597"/>
      <point x="317" y="597" type="qcurve"/>
      <point x="344" y="597"/>
      <point x="381" y="567"/>
      <point x="381" y="540" type="qcurve"/>
      <point x="381" y="506"/>
      <point x="345" y="463"/>
    </contour>
    <contour>
      <point x="309" y="111" type="qcurve"/>
      <point x="255" y="111"/>
      <point x="201" y="161"/>
      <point x="201" y="199" type="qcurve"/>
      <point x="201" y="209" type="line"/>
      <point x="201" y="263"/>
      <point x="263" y="298" type="qcurve"/>
      <point x="410" y="139" type="line"/>
      <point x="368" y="111"/>
    </contour>
  </outline>
</glyph>
<glyph name="parenleft" format="2">
  <advance width="338"/>
  <unicode hex="0028"/>
  <outline>
    <contour>
      <point x="351" y="-138" type="line"/>
      <point x="270" y="-65"/>
      <point x="177" y="143"/>
      <point x="177" y="276" type="qcurve"/>
      <point x="177" y="346" type="line"/>
      <point x="177" y="474"/>
      <point x="269" y="685"/>
      <point x="351" y="760" type="qcurve"/>
      <point x="212" y="760" type="line"/>
      <point x="135" y="692"/>
      <point x="87" y="576" type="qcurve"/>
      <point x="37" y="456"/>
      <point x="37" y="312" type="qcurve"/>
      <point x="37" y="167"/>
      <point x="137" y="-74"/>
      <point x="211" y="-138" type="qcurve"/>
    </contour>
  </outline>
</glyph>
<glyph name="parenright" format="2">
  <advance width="338"/>
  <unicode hex="0029"/>
  <outline>
    <contour>
      <point x="-13" y="-138" type="line"/>
      <point x="69" y="-63"/>
      <point x="161" y="148"/>
      <point x="161" y="276" type="qcurve" smooth="yes"/>
      <point x="161" y="346" type="line" smooth="yes"/>
      <point x="161" y="479"/>
      <point x="68" y="687"/>
      <point x="-13" y="760" type="qcurve"/>
      <point x="127" y="760" type="line"/>
      <point x="201" y="694"/>
      <point x="251" y="578" type="qcurve"/>
      <point x="301" y="458"/>
      <point x="301" y="312" type="qcurve" smooth="yes"/>
      <point x="301" y="168"/>
      <point x="202" y="-70"/>
      <point x="126" y="-138" type="qcurve"/>
    </contour>
  </outline>
</glyph>
<glyph name="comma" format="2">
  <advance width="310"/>
  <unicode hex="002C"/>
  <outline>
    <contour>
      <point x="138" y="-147" type="line"/>
      <point x="187" y="-109"/>
      <point x="245" y="8"/>
      <point x="245" y="69" type="qcurve"/>
      <point x="245" y="89" type="line"/>
      <point x="245" y="124"/>
      <point x="202" y="169"/>
      <point x="157" y="169" type="qcurve"/>
      <point x="112" y="169"/>
      <point x="69" y="124"/>
      <point x="69" y="89" type="qcurve"/>
      <point x="69" y="69" type="line"/>
      <point x="69" y="40"/>
      <point x="101" y="-3"/>
      <point x="136" y="-9" type="qcurve"/>
      <point x="110" y="-85"/>
      <point x="38" y="-147" type="qcurve"/>
    </contour>
  </outline>
</glyph>
<glyph name="hyphenminus" format="2">
  <advance width="403"/>
  <unicode hex="002D"/>
  <outline>
    <contour>
      <point x="350" y="233" type="line"/>
      <point x="350" y="377" type="line"/>
      <point x="53" y="377" type="line"/>
      <point x="53" y="233" type="line"/>
    </contour>
  </outline>
</glyph>
<glyph name="slash" format="2">
  <advance width="460"/>
  <unicode hex="002F"/>
  <outline>
    <contour>
      <point x="125" y="-151" type="line"/>
      <point x="423" y="740" type="line"/>
      <point x="301" y="740" type="line"/>
      <point x="3" y="-151" type="line"/>
    </contour>
  </outline>
</glyph>
<glyph name="one" format="2">
  <advance width="600"/>
  <unicode hex="0031"/>
  <outline>
    <contour>
      <point x="423" y="0" type="line"/>
      <point x="274" y="0" type="line"/>
      <point x="274" y="561" type="line"/>
      <point x="124" y="479" type="line"/>
      <point x="124" y="619" type="line"/>
      <point x="266" y="698" type="line"/>
      <point x="423" y="698" type="line"/>
    </contour>
  </outline>
</glyph>
<glyph name="two" format="2">
  <advance width="600"/>
  <unicode hex="0032"/>
  <outline>
    <contour>
      <point x="57" y="0" type="line"/>
      <point x="57" y="137" type="line"/>
      <point x="272" y="321" type="line"/>
      <point x="330" y="369"/>
      <point x="377" y="443"/>
      <point x="377" y="486" type="qcurve" smooth="yes"/>
      <point x="377" y="500" type="line" smooth="yes"/>
      <point x="377" y="541"/>
      <point x="320" y="580"/>
      <point x="285" y="580" type="qcurve" smooth="yes"/>
      <point x="236" y="580"/>
      <point x="183" y="523"/>
      <point x="173" y="482" type="qcurve"/>
      <point x="42" y="532" type="line"/>
      <point x="66" y="606"/>
      <point x="128" y="658" type="qcurve"/>
      <point x="196" y="710"/>
      <point x="299" y="710" type="qcurve" smooth="yes"/>
      <point x="409" y="710"/>
      <point x="475" y="650" type="qcurve"/>
      <point x="537" y="590"/>
      <point x="537" y="500" type="qcurve" smooth="yes"/>
      <point x="537" y="417"/>
      <point x="482" y="349" type="qcurve"/>
      <point x="434" y="292"/>
      <point x="367" y="241" type="qcurve"/>
      <point x="221" y="126" type="line"/>
      <point x="551" y="126" type="line"/>
      <point x="551" y="0" type="line"/>
    </contour>
  </outline>
</glyph>
<glyph name="three" format="2">
  <advance width="600"/>
  <unicode hex="0033"/>
  <outline>
    <contour>
      <point x="274" y="-12" type="qcurve"/>
      <point x="393" y="-12"/>
      <point x="539" y="100"/>
      <point x="539" y="194" type="qcurve"/>
      <point x="539" y="266"/>
      <point x="457" y="350"/>
      <point x="394" y="362" type="qcurve"/>
      <point x="394" y="368" type="line"/>
      <point x="449" y="378"/>
      <point x="527" y="459"/>
      <point x="527" y="525" type="qcurve"/>
      <point x="527" y="609"/>
      <point x="393" y="710"/>
      <point x="280" y="710" type="qcurve"/>
      <point x="190" y="710"/>
      <point x="78" y="646"/>
      <point x="39" y="593" type="qcurve"/>
      <point x="133" y="505" type="line"/>
      <point x="191" y="588"/>
      <point x="275" y="588" type="qcurve"/>
      <point x="369" y="588"/>
      <point x="369" y="497" type="qcurve"/>
      <point x="369" y="465"/>
      <point x="318" y="422"/>
      <point x="262" y="422" type="qcurve"/>
      <point x="197" y="422" type="line"/>
      <point x="197" y="297" type="line"/>
      <point x="260" y="297" type="line"/>
      <point x="317" y="297"/>
      <point x="382" y="254"/>
      <point x="382" y="211" type="qcurve"/>
      <point x="382" y="205" type="line"/>
      <point x="382" y="161"/>
      <point x="325" y="110"/>
      <point x="274" y="110" type="qcurve"/>
      <point x="217" y="110"/>
      <point x="149" y="164"/>
      <point x="127" y="208" type="qcurve"/>
      <point x="16" y="122" type="line"/>
      <point x="49" y="67"/>
      <point x="109" y="29" type="qcurve"/>
      <point x="174" y="-12"/>
    </contour>
  </outline>
</glyph>
<glyph name="five" format="2">
  <advance width="600"/>
  <unicode hex="0035"/>
  <outline>
    <contour>
      <point x="295" y="-12" type="qcurve" smooth="yes"/>
      <point x="200" y="-12"/>
      <point x="136" y="29" type="qcurve" smooth="yes"/>
      <point x="77" y="67"/>
      <point x="46" y="122" type="qcurve"/>
      <point x="155" y="208" type="line"/>
      <point x="177" y="166"/>
      <point x="242" y="110"/>
      <point x="296" y="110" type="qcurve" smooth="yes"/>
      <point x="350" y="110"/>
      <point x="405" y="172"/>
      <point x="405" y="223" type="qcurve" smooth="yes"/>
      <point x="405" y="231" type="line" smooth="yes"/>
      <point x="405" y="279"/>
      <point x="349" y="335"/>
      <point x="300" y="335" type="qcurve" smooth="yes"/>
      <point x="233" y="335"/>
      <point x="192" y="286" type="qcurve"/>
      <point x="69" y="303" type="line"/>
      <point x="95" y="698" type="line"/>
      <point x="522" y="698" type="line"/>
      <point x="522" y="567" type="line"/>
      <point x="205" y="567" type="line"/>
      <point x="190" y="346" type="line"/>
      <point x="198" y="346" type="line"/>
      <point x="217" y="396"/>
      <point x="282" y="457"/>
      <point x="348" y="457" type="qcurve" smooth="yes"/>
      <point x="438" y="457"/>
      <point x="563" y="339"/>
      <point x="563" y="235" type="qcurve" smooth="yes"/>
      <point x="563" y="129"/>
      <point x="494" y="58" type="qcurve"/>
      <point x="423" y="-12"/>
    </contour>
  </outline>
</glyph>
<glyph name="six" format="2">
  <advance width="600"/>
  <unicode hex="0036"/>
  <outline>
    <contour>
      <point x="304" y="-12" type="qcurve"/>
      <point x="424" y="-12"/>
      <point x="566" y="125"/>
      <point x="566" y="233" type="qcurve"/>
      <point x="566" y="331"/>
      <point x="508" y="391" type="qcurve"/>
      <point x="448" y="450"/>
      <point x="362" y="450" type="qcurve"/>
      <point x="301" y="450"/>
      <point x="225" y="387"/>
      <point x="208" y="345" type="qcurve"/>
      <point x="199" y="348" type="line"/>
      <point x="220" y="446"/>
      <point x="371" y="609"/>
      <point x="499" y="698" type="qcurve"/>
      <point x="292" y="698" type="line"/>
      <point x="198" y="637"/>
      <point x="123" y="525" type="qcurve"/>
      <point x="42" y="402"/>
      <point x="42" y="265" type="qcurve"/>
      <point x="42" y="139"/>
      <point x="180" y="-12"/>
    </contour>
    <contour>
      <point x="304" y="105" type="qcurve"/>
      <point x="254" y="105"/>
      <point x="198" y="160"/>
      <point x="198" y="211" type="qcurve"/>
      <point x="198" y="229" type="line"/>
      <point x="198" y="331"/>
      <point x="304" y="335" type="qcurve"/>
      <point x="354" y="335"/>
      <point x="410" y="280"/>
      <point x="410" y="229" type="qcurve"/>
      <point x="410" y="211" type="line"/>
      <point x="410" y="109"/>
    </contour>
  </outline>
</glyph>
<glyph name="eight" format="2">
  <advance width="600"/>
  <unicode hex="0038"/>
  <outline>
    <contour>
      <point x="300" y="-12" type="qcurve"/>
      <point x="425" y="-12"/>
      <point x="560" y="103"/>
      <point x="560" y="191" type="qcurve"/>
      <point x="560" y="258"/>
      <point x="487" y="343"/>
      <point x="423" y="360" type="qcurve"/>
      <point x="423" y="368" type="line"/>
      <point x="475" y="387"/>
      <point x="539" y="465"/>
      <point x="539" y="526" type="qcurve"/>
      <point x="539" y="606"/>
      <point x="478" y="659" type="qcurve"/>
      <point x="416" y="710"/>
      <point x="300" y="710" type="qcurve"/>
      <point x="185" y="710"/>
      <point x="61" y="606"/>
      <point x="61" y="526" type="qcurve"/>
      <point x="61" y="465"/>
      <point x="125" y="387"/>
      <point x="177" y="368" type="qcurve"/>
      <point x="177" y="360" type="line"/>
      <point x="113" y="343"/>
      <point x="40" y="258"/>
      <point x="40" y="191" type="qcurve"/>
      <point x="40" y="103"/>
      <point x="176" y="-12"/>
    </contour>
    <contour>
      <point x="300" y="103" type="qcurve"/>
      <point x="200" y="103"/>
      <point x="197" y="192" type="qcurve"/>
      <point x="197" y="212" type="line"/>
      <point x="197" y="254"/>
      <point x="250" y="301"/>
      <point x="300" y="301" type="qcurve"/>
      <point x="401" y="301"/>
      <point x="403" y="212" type="qcurve"/>
      <point x="403" y="192" type="line"/>
      <point x="403" y="150"/>
      <point x="350" y="103"/>
    </contour>
    <contour>
      <point x="300" y="411" type="qcurve"/>
      <point x="204" y="411"/>
      <point x="202" y="495" type="qcurve"/>
      <point x="202" y="511" type="line"/>
      <point x="202" y="550"/>
      <point x="252" y="595"/>
      <point x="300" y="595" type="qcurve"/>
      <point x="396" y="595"/>
      <point x="398" y="511" type="qcurve"/>
      <point x="398" y="495" type="line"/>
      <point x="398" y="456"/>
      <point x="348" y="411"/>
    </contour>
  </outline>
</glyph>
<glyph name="nine" format="2">
  <advance width="600"/>
  <unicode hex="0039"/>
  <outline>
    <contour>
      <point x="308" y="0" type="line"/>
      <point x="402" y="62"/>
      <point x="478" y="174" type="qcurve"/>
      <point x="558" y="298"/>
      <point x="558" y="433" type="qcurve"/>
      <point x="558" y="559"/>
      <point x="421" y="710"/>
      <point x="296" y="710" type="qcurve"/>
      <point x="176" y="710"/>
      <point x="34" y="573"/>
      <point x="34" y="465" type="qcurve"/>
      <point x="34" y="365"/>
      <point x="153" y="248"/>
      <point x="238" y="248" type="qcurve"/>
      <point x="350" y="248"/>
      <point x="392" y="353" type="qcurve"/>
      <point x="401" y="350" type="line"/>
      <point x="379" y="252"/>
      <point x="229" y="89"/>
      <point x="101" y="0" type="qcurve"/>
    </contour>
    <contour>
      <point x="296" y="363" type="qcurve"/>
      <point x="246" y="363"/>
      <point x="190" y="418"/>
      <point x="190" y="469" type="qcurve"/>
      <point x="190" y="487" type="line"/>
      <point x="190" y="589"/>
      <point x="296" y="593" type="qcurve"/>
      <point x="346" y="593"/>
      <point x="402" y="538"/>
      <point x="402" y="487" type="qcurve"/>
      <point x="402" y="469" type="line"/>
      <point x="402" y="367"/>
    </contour>
  </outline>
</glyph>
<glyph name="colon" format="2">
  <advance width="330"/>
  <unicode hex="003A"/>
  <outline>
    <contour>
      <point x="165" y="355" type="qcurve" smooth="yes"/>
      <point x="120" y="355"/>
      <point x="77" y="400"/>
      <point x="77" y="435" type="qcurve" smooth="yes"/>
      <point x="77" y="455" type="line" smooth="yes"/>
      <point x="77" y="490"/>
      <point x="120" y="535"/>
      <point x="165" y="535" type="qcurve" smooth="yes"/>
      <point x="210" y="535"/>
      <point x="253" y="490"/>
      <point x="253" y="455" type="qcurve" smooth="yes"/>
      <point x="253" y="435" type="line" smooth="yes"/>
      <point x="253" y="400"/>
      <point x="210" y="355"/>
    </contour>
    <contour>
      <point x="165" y="-11" type="qcurve" smooth="yes"/>
      <point x="120" y="-11"/>
      <point x="77" y="34"/>
      <point x="77" y="69" type="qcurve" smooth="yes"/>
      <point x="77" y="89" type="line" smooth="yes"/>
      <point x="77" y="124"/>
      <point x="120" y="169"/>
      <point x="165" y="169" type="qcurve" smooth="yes"/>
      <point x="210" y="169"/>
      <point x="253" y="124"/>
      <point x="253" y="89" type="qcurve" smooth="yes"/>
      <point x="253" y="69" type="line" smooth="yes"/>
      <point x="253" y="34"/>
      <point x="210" y="-11"/>
    </contour>
  </outline>
</glyph>
<glyph name="at" format="2">
  <advance width="903"/>
  <unicode hex="0040"/>
  <outline>
    <contour>
      <point x="672" y="-121" type="line"/>
      <point x="672" y="-33" type="line"/>
      <point x="462" y="-33" type="line"/>
      <point x="323" y="-33"/>
      <point x="154" y="136"/>
      <point x="154" y="272" type="qcurve"/>
      <point x="154" y="310" type="line"/>
      <point x="154" y="447"/>
      <point x="323" y="622"/>
      <point x="462" y="622" type="qcurve"/>
      <point x="590" y="622"/>
      <point x="753" y="476"/>
      <point x="753" y="348" type="qcurve"/>
      <point x="753" y="320" type="line"/>
      <point x="753" y="244"/>
      <point x="712" y="170"/>
      <point x="677" y="170" type="qcurve"/>
      <point x="634" y="170"/>
      <point x="633" y="220" type="qcurve"/>
      <point x="633" y="489" type="line"/>
      <point x="522" y="489" type="line"/>
      <point x="522" y="420" type="line"/>
      <point x="517" y="420" type="line"/>
      <point x="508" y="454"/>
      <point x="456" y="498"/>
      <point x="414" y="498" type="qcurve"/>
      <point x="348" y="498"/>
      <point x="260" y="393"/>
      <point x="260" y="291" type="qcurve"/>
      <point x="260" y="189"/>
      <point x="348" y="84"/>
      <point x="414" y="84" type="qcurve"/>
      <point x="509" y="84"/>
      <point x="529" y="176" type="qcurve"/>
      <point x="534" y="176" type="line"/>
      <point x="538" y="133"/>
      <point x="605" y="82"/>
      <point x="659" y="82" type="qcurve"/>
      <point x="745" y="82"/>
      <point x="846" y="215"/>
      <point x="846" y="335" type="qcurve"/>
      <point x="846" y="505"/>
      <point x="741" y="608" type="qcurve"/>
      <point x="635" y="709"/>
      <point x="462" y="709" type="qcurve"/>
      <point x="369" y="709"/>
      <point x="221" y="648"/>
      <point x="169" y="592" type="qcurve"/>
      <point x="61" y="473"/>
      <point x="61" y="291" type="qcurve"/>
      <point x="61" y="107"/>
      <point x="274" y="-121"/>
      <point x="462" y="-121" type="qcurve"/>
    </contour>
    <contour>
      <point x="455" y="175" type="qcurve"/>
      <point x="419" y="175"/>
      <point x="376" y="221"/>
      <point x="376" y="257" type="qcurve"/>
      <point x="376" y="325" type="line"/>
      <point x="376" y="361"/>
      <point x="419" y="407"/>
      <point x="455" y="407" type="qcurve"/>
      <point x="481" y="407"/>
      <point x="522" y="376"/>
      <point x="522" y="353" type="qcurve"/>
      <point x="522" y="237" type="line"/>
      <point x="522" y="214"/>
      <point x="481" y="175"/>
    </contour>
  </outline>
</glyph>
<glyph name="D" format="2">
  <advance width="697"/>
  <unicode hex="0044"/>
  <outline>
    <contour>
      <point x="340" y="0" type="line"/>
      <point x="478" y="0"/>
      <point x="563" y="88" type="qcurve"/>
      <point x="647" y="179"/>
      <point x="647" y="349" type="qcurve"/>
      <point x="647" y="520"/>
      <point x="563" y="611" type="qcurve"/>
      <point x="478" y="698"/>
      <point x="340" y="698" type="qcurve"/>
      <point x="77" y="698" type="line"/>
      <point x="77" y="0" type="line"/>
    </contour>
    <contour>
      <point x="340" y="135" type="qcurve"/>
      <point x="229" y="135" type="line"/>
      <point x="229" y="563" type="line"/>
      <point x="340" y="563" type="line"/>
      <point x="486" y="563"/>
      <point x="486" y="403" type="qcurve"/>
      <point x="486" y="295" type="line"/>
      <point x="486" y="135"/>
    </contour>
  </outline>
</glyph>
<glyph name="F" format="2">
  <advance width="585"/>
  <unicode hex="0046"/>
  <outline>
    <contour>
      <point x="229" y="0" type="line"/>
      <point x="229" y="286" type="line"/>
      <point x="494" y="286" type="line"/>
      <point x="494" y="420" type="line"/>
      <point x="229" y="420" type="line"/>
      <point x="229" y="563" type="line"/>
      <point x="540" y="563" type="line"/>
      <point x="540" y="698" type="line"/>
      <point x="77" y="698" type="line"/>
      <point x="77" y="0" type="line"/>
    </contour>
  </outline>
</glyph>
<glyph name="G" format="2">
  <advance width="681"/>
  <unicode hex="0047"/>
  <outline>
    <contour>
      <point x="39" y="349" type="qcurve" smooth="yes"/>
      <point x="39" y="468"/>
      <point x="122" y="630"/>
      <point x="266" y="710"/>
      <point x="356" y="710" type="qcurve" smooth="yes"/>
      <point x="418" y="710"/>
      <point x="508" y="679"/>
      <point x="572" y="629"/>
      <point x="613" y="572"/>
      <point x="630" y="541" type="qcurve"/>
      <point x="495" y="479" type="line"/>
      <point x="486" y="507"/>
      <point x="452" y="549"/>
      <point x="398" y="577"/>
      <point x="360" y="577" type="qcurve" smooth="yes"/>
      <point x="311" y="577"/>
      <point x="245" y="532"/>
      <point x="211" y="455"/>
      <point x="211" y="409" type="qcurve" smooth="yes"/>
      <point x="211" y="290" type="line" smooth="yes"/>
      <point x="211" y="240"/>
      <point x="237" y="174"/>
      <point x="278" y="137"/>
      <point x="328" y="121"/>
      <point x="353" y="121" type="qcurve" smooth="yes"/>
      <point x="389" y="121"/>
      <point x="447" y="147"/>
      <point x="484" y="199"/>
      <point x="484" y="241" type="qcurve" smooth="yes"/>
      <point x="484" y="262" type="line"/>
      <point x="319" y="262" type="line"/>
      <point x="319" y="395" type="line"/>
      <point x="640" y="395" type="line"/>
      <point x="640" y="246" type="line" smooth="yes"/>
      <point x="640" y="175"/>
      <point x="582" y="77"/>
      <point x="490" y="16"/>
      <point x="387" y="-12"/>
      <point x="340" y="-12" type="qcurve" smooth="yes"/>
      <point x="282" y="-12"/>
      <point x="187" y="23"/>
      <point x="115" y="89"/>
      <point x="65" y="177"/>
      <point x="39" y="287"/>
    </contour>
  </outline>
</glyph>
<glyph name="J" format="2">
  <advance width="559"/>
  <unicode hex="004A"/>
  <outline>
    <contour>
      <point x="256" y="-11" type="qcurve"/>
      <point x="153" y="-11"/>
      <point x="97" y="43" type="qcurve"/>
      <point x="39" y="96"/>
      <point x="25" y="185" type="qcurve"/>
      <point x="167" y="213" type="line"/>
      <point x="184" y="122"/>
      <point x="254" y="122" type="qcurve"/>
      <point x="287" y="122"/>
      <point x="334" y="164"/>
      <point x="334" y="209" type="qcurve"/>
      <point x="334" y="698" type="line"/>
      <point x="486" y="698" type="line"/>
      <point x="486" y="202" type="line"/>
      <point x="486" y="106"/>
      <point x="364" y="-11"/>
    </contour>
  </outline>
</glyph>
<glyph name="L" format="2">
  <advance width="530"/>
  <unicode hex="004C"/>
  <outline>
    <contour>
      <point x="495" y="0" type="line"/>
      <point x="495" y="135" type="line"/>
      <point x="229" y="135" type="line"/>
      <point x="229" y="698" type="line"/>
      <point x="77" y="698" type="line"/>
      <point x="77" y="0" type="line"/>
    </contour>
  </outline>
</glyph>
<glyph name="Q" format="2">
  <advance width="714"/>
  <unicode hex="0051"/>
  <outline>
    <contour>
      <point x="357" y="-12" type="qcurve" smooth="yes"/>
      <point x="219" y="-12"/>
      <point x="134" y="80" type="qcurve"/>
      <point x="50" y="174"/>
      <point x="50" y="349" type="qcurve" smooth="yes"/>
      <point x="50" y="523"/>
      <point x="134" y="619" type="qcurve"/>
      <point x="219" y="710"/>
      <point x="357" y="710" type="qcurve" smooth="yes"/>
      <point x="495" y="710"/>
      <point x="580" y="619" type="qcurve"/>
      <point x="664" y="523"/>
      <point x="664" y="349" type="qcurve" smooth="yes"/>
      <point x="664" y="174"/>
      <point x="580" y="80" type="qcurve"/>
      <point x="495" y="-12"/>
    </contour>
    <contour>
      <point x="357" y="123" type="qcurve"/>
      <point x="503" y="129"/>
      <point x="503" y="297" type="qcurve" smooth="yes"/>
      <point x="503" y="401" type="line" smooth="yes"/>
      <point x="503" y="485"/>
      <point x="426" y="575"/>
      <point x="357" y="575" type="qcurve"/>
      <point x="211" y="569"/>
      <point x="211" y="401" type="qcurve" smooth="yes"/>
      <point x="211" y="297" type="line" smooth="yes"/>
      <point x="211" y="213"/>
      <point x="288" y="123"/>
    </contour>
    <contour>
      <point x="684" y="-90" type="line"/>
      <point x="553" y="-90"/>
      <point x="497" y="-36" type="qcurve"/>
      <point x="439" y="17"/>
      <point x="425" y="106" type="qcurve"/>
      <point x="567" y="134" type="line"/>
      <point x="584" y="43"/>
      <point x="684" y="43" type="qcurve"/>
    </contour>
  </outline>
</glyph>
<glyph name="grave" format="2">
  <advance width="600"/>
  <unicode hex="0060"/>
  <outline>
    <contour>
      <point x="284" y="579" type="line"/>
      <point x="372" y="622" type="line"/>
      <point x="273" y="816" type="line"/>
      <point x="150" y="755" type="line"/>
    </contour>
  </outline>
</glyph>
<glyph name="d" format="2">
  <advance width="608"/>
  <unicode hex="0064"/>
  <outline>
    <contour>
      <point x="245" y="-12" type="qcurve" smooth="yes"/>
      <point x="145" y="-12"/>
      <point x="43" y="129"/>
      <point x="43" y="263" type="qcurve"/>
      <point x="46" y="537"/>
      <point x="245" y="537" type="qcurve" smooth="yes"/>
      <point x="296" y="537"/>
      <point x="374" y="482"/>
      <point x="386" y="437" type="qcurve"/>
      <point x="391" y="437" type="line"/>
      <point x="391" y="740" type="line"/>
      <point x="539" y="740" type="line"/>
      <point x="539" y="0" type="line"/>
      <point x="391" y="0" type="line"/>
      <point x="391" y="88" type="line"/>
      <point x="386" y="88" type="line"/>
      <point x="373" y="45"/>
      <point x="336" y="17" type="qcurve"/>
      <point x="295" y="-12"/>
    </contour>
    <contour>
      <point x="294" y="108" type="qcurve" smooth="yes"/>
      <point x="336" y="108"/>
      <point x="391" y="149"/>
      <point x="391" y="185" type="qcurve" smooth="yes"/>
      <point x="391" y="340" type="line" smooth="yes"/>
      <point x="391" y="376"/>
      <point x="336" y="417"/>
      <point x="294" y="417" type="qcurve" smooth="yes"/>
      <point x="252" y="417"/>
      <point x="197" y="358"/>
      <point x="197" y="308" type="qcurve" smooth="yes"/>
      <point x="197" y="217" type="line" smooth="yes"/>
      <point x="197" y="167"/>
      <point x="252" y="108"/>
    </contour>
  </outline>
</glyph>
<glyph name="f" format="2">
  <advance width="361"/>
  <unicode hex="0066"/>
  <outline>
    <contour>
      <point x="243" y="0" type="line"/>
      <point x="243" y="410" type="line"/>
      <point x="348" y="410" type="line"/>
      <point x="348" y="525" type="line"/>
      <point x="243" y="525" type="line"/>
      <point x="243" y="625" type="line"/>
      <point x="348" y="625" type="line"/>
      <point x="348" y="740" type="line"/>
      <point x="252" y="740" type="line"/>
      <point x="98" y="740"/>
      <point x="95" y="587" type="qcurve"/>
      <point x="95" y="525" type="line"/>
      <point x="21" y="525" type="line"/>
      <point x="21" y="410" type="line"/>
      <point x="95" y="410" type="line"/>
      <point x="95" y="0" type="line"/>
    </contour>
  </outline>
</glyph>
<glyph name="g" format="2">
  <advance width="562"/>
  <unicode hex="0067"/>
  <outline>
    <contour>
      <point x="271" y="-212" type="qcurve"/>
      <point x="140" y="-212"/>
      <point x="79" y="-179" type="qcurve"/>
      <point x="22" y="-150"/>
      <point x="22" y="-90" type="qcurve"/>
      <point x="22" y="-46"/>
      <point x="74" y="4"/>
      <point x="120" y="10" type="qcurve"/>
      <point x="120" y="21" type="line"/>
      <point x="82" y="28"/>
      <point x="44" y="79"/>
      <point x="44" y="113" type="qcurve"/>
      <point x="44" y="151"/>
      <point x="75" y="177" type="qcurve"/>
      <point x="98" y="196"/>
      <point x="142" y="206" type="qcurve"/>
      <point x="142" y="210" type="line"/>
      <point x="48" y="253"/>
      <point x="48" y="360" type="qcurve"/>
      <point x="48" y="440"/>
      <point x="159" y="537"/>
      <point x="273" y="537" type="qcurve"/>
      <point x="333" y="537"/>
      <point x="372" y="525" type="qcurve"/>
      <point x="546" y="525" type="line"/>
      <point x="546" y="426" type="line"/>
      <point x="482" y="426" type="line"/>
      <point x="498" y="398"/>
      <point x="498" y="360" type="qcurve"/>
      <point x="498" y="281"/>
      <point x="387" y="186"/>
      <point x="273" y="186" type="qcurve"/>
      <point x="222" y="186"/>
      <point x="180" y="197" type="qcurve"/>
      <point x="157" y="182"/>
      <point x="157" y="155" type="qcurve"/>
      <point x="157" y="115"/>
      <point x="220" y="115" type="qcurve"/>
      <point x="372" y="115" type="line"/>
      <point x="555" y="115"/>
      <point x="555" y="-38" type="qcurve"/>
      <point x="555" y="-124"/>
      <point x="493" y="-166" type="qcurve"/>
      <point x="426" y="-212"/>
    </contour>
    <contour>
      <point x="273" y="283" type="qcurve"/>
      <point x="360" y="283"/>
      <point x="360" y="355" type="qcurve"/>
      <point x="360" y="367" type="line"/>
      <point x="360" y="439"/>
      <point x="273" y="439" type="qcurve"/>
      <point x="186" y="439"/>
      <point x="186" y="367" type="qcurve"/>
      <point x="186" y="355" type="line"/>
      <point x="186" y="283"/>
    </contour>
    <contour>
      <point x="306" y="-114" type="line"/>
      <point x="366" y="-114"/>
      <point x="416" y="-87"/>
      <point x="416" y="-58" type="qcurve"/>
      <point x="416" y="-35"/>
      <point x="380" y="-11"/>
      <point x="335" y="-11" type="qcurve"/>
      <point x="155" y="-11" type="line"/>
      <point x="136" y="-30"/>
      <point x="136" y="-58" type="qcurve"/>
      <point x="136" y="-87"/>
      <point x="186" y="-114"/>
      <point x="246" y="-114" type="qcurve"/>
    </contour>
  </outline>
</glyph>
<glyph name="i" format="2">
  <advance width="286"/>
  <unicode hex="0069"/>
  <outline>
    <contour>
      <point x="143" y="581" type="qcurve"/>
      <point x="188" y="581"/>
      <point x="229" y="622"/>
      <point x="229" y="654" type="qcurve"/>
      <point x="229" y="676" type="line"/>
      <point x="229" y="708"/>
      <point x="188" y="749"/>
      <point x="143" y="749" type="qcurve"/>
      <point x="98" y="749"/>
      <point x="57" y="708"/>
      <point x="57" y="676" type="qcurve"/>
      <point x="57" y="654" type="line"/>
      <point x="57" y="622"/>
      <point x="98" y="581"/>
    </contour>
    <contour>
      <point x="217" y="0" type="line"/>
      <point x="217" y="525" type="line"/>
      <point x="69" y="525" type="line"/>
      <point x="69" y="0" type="line"/>
    </contour>
  </outline>
</glyph>
<glyph name="j" format="2">
  <advance width="286"/>
  <unicode hex="006A"/>
  <outline>
    <contour>
      <point x="69" y="-200" type="line"/>
      <point x="147" y="-200"/>
      <point x="217" y="-126"/>
      <point x="217" y="-56" type="qcurve"/>
      <point x="217" y="525" type="line"/>
      <point x="69" y="525" type="line"/>
      <point x="69" y="-85" type="line"/>
      <point x="-9" y="-85" type="line"/>
      <point x="-9" y="-200" type="line"/>
    </contour>
    <contour>
      <point x="143" y="581" type="qcurve"/>
      <point x="188" y="581"/>
      <point x="229" y="622"/>
      <point x="229" y="654" type="qcurve"/>
      <point x="229" y="676" type="line"/>
      <point x="229" y="708"/>
      <point x="188" y="749"/>
      <point x="143" y="749" type="qcurve"/>
      <point x="98" y="749"/>
      <point x="57" y="708"/>
      <point x="57" y="676" type="qcurve"/>
      <point x="57" y="654" type="line"/>
      <point x="57" y="622"/>
      <point x="98" y="581"/>
    </contour>
  </outline>
</glyph>
<glyph name="l" format="2">
  <advance width="303"/>
  <unicode hex="006C"/>
  <outline>
    <contour>
      <point x="283" y="0" type="line"/>
      <point x="283" y="115" type="line"/>
      <point x="217" y="115" type="line"/>
      <point x="217" y="740" type="line"/>
      <point x="69" y="740" type="line"/>
      <point x="69" y="144" type="line"/>
      <point x="69" y="0"/>
      <point x="216" y="0" type="qcurve"/>
    </contour>
  </outline>
</glyph>
<glyph name="m" format="2">
  <advance width="894"/>
  <unicode hex="006D"/>
  <outline>
    <contour>
      <point x="831" y="0" type="line"/>
      <point x="831" y="329" type="line"/>
      <point x="831" y="429"/>
      <point x="750" y="537"/>
      <point x="674" y="537" type="qcurve"/>
      <point x="614" y="537"/>
      <point x="528" y="476"/>
      <point x="514" y="431" type="qcurve"/>
      <point x="511" y="431" type="line"/>
      <point x="472" y="537"/>
      <point x="364" y="537" type="qcurve"/>
      <point x="305" y="537"/>
      <point x="237" y="479"/>
      <point x="223" y="436" type="qcurve"/>
      <point x="217" y="436" type="line"/>
      <point x="217" y="525" type="line"/>
      <point x="69" y="525" type="line"/>
      <point x="69" y="0" type="line"/>
      <point x="217" y="0" type="line"/>
      <point x="217" y="340" type="line"/>
      <point x="217" y="378"/>
      <point x="273" y="417"/>
      <point x="304" y="417" type="qcurve"/>
      <point x="376" y="417"/>
      <point x="376" y="317" type="qcurve"/>
      <point x="376" y="0" type="line"/>
      <point x="524" y="0" type="line"/>
      <point x="524" y="340" type="line"/>
      <point x="524" y="379"/>
      <point x="578" y="417"/>
      <point x="611" y="417" type="qcurve"/>
      <point x="683" y="417"/>
      <point x="683" y="317" type="qcurve"/>
      <point x="683" y="0" type="line"/>
    </contour>
  </outline>
</glyph>
<glyph name="p" format="2">
  <advance width="608"/>
  <unicode hex="0070"/>
  <outline>
    <contour>
      <point x="217" y="-200" type="line"/>
      <point x="217" y="88" type="line"/>
      <point x="222" y="88" type="line"/>
      <point x="235" y="45"/>
      <point x="311" y="-12"/>
      <point x="363" y="-12" type="qcurve"/>
      <point x="563" y="-12"/>
      <point x="565" y="263" type="qcurve"/>
      <point x="565" y="397"/>
      <point x="463" y="537"/>
      <point x="363" y="537" type="qcurve"/>
      <point x="312" y="537"/>
      <point x="234" y="482"/>
      <point x="222" y="437" type="qcurve"/>
      <point x="217" y="437" type="line"/>
      <point x="217" y="525" type="line"/>
      <point x="69" y="525" type="line"/>
      <point x="69" y="-200" type="line"/>
    </contour>
    <contour>
      <point x="314" y="108" type="qcurve"/>
      <point x="272" y="108"/>
      <point x="217" y="149"/>
      <point x="217" y="185" type="qcurve"/>
      <point x="217" y="340" type="line"/>
      <point x="217" y="376"/>
      <point x="272" y="417"/>
      <point x="314" y="417" type="qcurve"/>
      <point x="356" y="417"/>
      <point x="411" y="358"/>
      <point x="411" y="308" type="qcurve"/>
      <point x="411" y="217" type="line"/>
      <point x="411" y="167"/>
      <point x="356" y="108"/>
    </contour>
  </outline>
</glyph>
<glyph name="r" format="2">
  <advance width="404"/>
  <unicode hex="0072"/>
  <outline>
    <contour>
      <point x="69" y="0" type="line"/>
      <point x="69" y="525" type="line"/>
      <point x="217" y="525" type="line"/>
      <point x="217" y="411" type="line"/>
      <point x="222" y="411" type="line"/>
      <point x="230" y="457"/>
      <point x="299" y="525"/>
      <point x="356" y="525" type="qcurve" smooth="yes"/>
      <point x="382" y="525" type="line"/>
      <point x="382" y="387" type="line"/>
      <point x="345" y="387" type="line" smooth="yes"/>
      <point x="280" y="387"/>
      <point x="217" y="353"/>
      <point x="217" y="307" type="qcurve" smooth="yes"/>
      <point x="217" y="0" type="line"/>
    </contour>
  </outline>
</glyph>
<glyph name="t" format="2">
  <advance width="383"/>
  <unicode hex="0074"/>
  <outline>
    <contour>
      <point x="341" y="0" type="line"/>
      <point x="341" y="115" type="line"/>
      <point x="245" y="115" type="line"/>
      <point x="245" y="410" type="line"/>
      <point x="349" y="410" type="line"/>
      <point x="349" y="525" type="line"/>
      <point x="245" y="525" type="line"/>
      <point x="245" y="667" type="line"/>
      <point x="112" y="667" type="line"/>
      <point x="112" y="581" type="line"/>
      <point x="112" y="554"/>
      <point x="90" y="525"/>
      <point x="60" y="525" type="qcurve"/>
      <point x="23" y="525" type="line"/>
      <point x="23" y="410" type="line"/>
      <point x="97" y="410" type="line"/>
      <point x="97" y="153" type="line"/>
      <point x="97" y="3"/>
      <point x="253" y="0" type="qcurve"/>
    </contour>
  </outline>
</glyph>
<glyph name="u" format="2">
  <advance width="596"/>
  <unicode hex="0075"/>
  <outline>
    <contour>
      <point x="227" y="-12" type="qcurve"/>
      <point x="292" y="-12"/>
      <point x="361" y="47"/>
      <point x="374" y="88" type="qcurve"/>
      <point x="379" y="88" type="line"/>
      <point x="379" y="0" type="line"/>
      <point x="527" y="0" type="line"/>
      <point x="527" y="525" type="line"/>
      <point x="379" y="525" type="line"/>
      <point x="379" y="184" type="line"/>
      <point x="379" y="147"/>
      <point x="321" y="108"/>
      <point x="286" y="108" type="qcurve"/>
      <point x="245" y="108"/>
      <point x="211" y="160"/>
      <point x="211" y="208" type="qcurve"/>
      <point x="211" y="525" type="line"/>
      <point x="63" y="525" type="line"/>
      <point x="63" y="195" type="line"/>
      <point x="63" y="95"/>
      <point x="146" y="-12"/>
    </contour>
  </outline>
</glyph>
<glyph name="v" format="2">
  <advance width="538"/>
  <unicode hex="0076"/>
  <outline>
    <contour>
      <point x="181" y="0" type="line"/>
      <point x="9" y="525" type="line"/>
      <point x="155" y="525" type="line"/>
      <point x="220" y="313" type="line"/>
      <point x="269" y="123" type="line"/>
      <point x="277" y="123" type="line"/>
      <point x="326" y="313" type="line"/>
      <point x="389" y="525" type="line"/>
      <point x="529" y="525" type="line"/>
      <point x="357" y="0" type="line"/>
    </contour>
  </outline>
</glyph>
<glyph name="z" format="2">
  <advance width="518"/>
  <unicode hex="007A"/>
  <outline>
    <contour>
      <point x="479" y="0" type="line"/>
      <point x="479" y="115" type="line"/>
      <point x="210" y="115" type="line"/>
      <point x="472" y="409" type="line"/>
      <point x="472" y="525" type="line"/>
      <point x="48" y="525" type="line"/>
      <point x="48" y="410" type="line"/>
      <point x="300" y="410" type="line"/>
      <point x="39" y="117" type="line"/>
      <point x="39" y="0" type="line"/>
    </contour>
  </outline>
</glyph>
<glyph name="braceleft" format="2">
  <advance width="372"/>
  <unicode hex="007B"/>
  <outline>
    <contour>
      <point x="322" y="-138" type="line"/>
      <point x="322" y="-34" type="line"/>
      <point x="253" y="-34" type="line"/>
      <point x="253" y="181" type="line"/>
      <point x="253" y="229"/>
      <point x="192" y="301"/>
      <point x="149" y="309" type="qcurve"/>
      <point x="149" y="313" type="line"/>
      <point x="192" y="322"/>
      <point x="253" y="393"/>
      <point x="253" y="441" type="qcurve"/>
      <point x="253" y="656" type="line"/>
      <point x="322" y="656" type="line"/>
      <point x="322" y="760" type="line"/>
      <point x="213" y="760" type="line"/>
      <point x="172" y="760"/>
      <point x="116" y="708"/>
      <point x="116" y="659" type="qcurve"/>
      <point x="116" y="457" type="line"/>
      <point x="116" y="413"/>
      <point x="61" y="368"/>
      <point x="19" y="368" type="qcurve"/>
      <point x="19" y="255" type="line"/>
      <point x="61" y="255"/>
      <point x="116" y="210"/>
      <point x="116" y="166" type="qcurve"/>
      <point x="116" y="-37" type="line"/>
      <point x="116" y="-86"/>
      <point x="172" y="-138"/>
      <point x="213" y="-138" type="qcurve"/>
    </contour>
  </outline>
</glyph>
<glyph name="bar" format="2">
  <advance width="402"/>
  <unicode hex="007C"/>
  <outline>
    <contour>
      <point x="138" y="-138" type="line"/>
      <point x="138" y="760" type="line"/>
      <point x="264" y="760" type="line"/>
      <point x="264" y="-138" type="line"/>
    </contour>
  </outline>
</glyph>
<glyph name="braceright" format="2">
  <advance width="372"/>
  <unicode hex="007D"/>
  <outline>
    <contour>
      <point x="50" y="-138" type="line"/>
      <point x="50" y="-34" type="line"/>
      <point x="119" y="-34" type="line"/>
      <point x="119" y="182" type="line" smooth="yes"/>
      <point x="119" y="230"/>
      <point x="180" y="302"/>
      <point x="223" y="310" type="qcurve"/>
      <point x="223" y="314" type="line"/>
      <point x="180" y="323"/>
      <point x="119" y="394"/>
      <point x="119" y="442" type="qcurve" smooth="yes"/>
      <point x="119" y="656" type="line"/>
      <point x="50" y="656" type="line"/>
      <point x="50" y="760" type="line"/>
      <point x="159" y="760" type="line" smooth="yes"/>
      <point x="200" y="760"/>
      <point x="256" y="708"/>
      <point x="256" y="659" type="qcurve" smooth="yes"/>
      <point x="256" y="457" type="line" smooth="yes"/>
      <point x="256" y="413"/>
      <point x="311" y="368"/>
      <point x="353" y="368" type="qcurve"/>
      <point x="353" y="255" type="line"/>
      <point x="311" y="255"/>
      <point x="256" y="210"/>
      <point x="256" y="166" type="qcurve" smooth="yes"/>
      <point x="256" y="-37" type="line" smooth="yes"/>
      <point x="256" y="-86"/>
      <point x="200" y="-138"/>
      <point x="159" y="-138" type="qcurve" smooth="yes"/>
    </contour>
  </outline>
</glyph>
<glyph name="asciitilde" format="2">
  <advance width="600"/>
  <unicode hex="007E"/>
  <outline>
    <contour>
      <point x="416" y="212" type="qcurve"/>
      <point x="506" y="212"/>
      <point x="547" y="274" type="qcurve"/>
      <point x="498" y="358" type="line"/>
      <point x="477" y="344"/>
      <point x="443" y="331"/>
      <point x="420" y="331" type="qcurve"/>
      <point x="389" y="331"/>
      <point x="337" y="349"/>
      <point x="310" y="364" type="qcurve"/>
      <point x="278" y="381"/>
      <point x="221" y="400"/>
      <point x="184" y="400" type="qcurve"/>
      <point x="94" y="400"/>
      <point x="53" y="338" type="qcurve"/>
      <point x="102" y="254" type="line"/>
      <point x="123" y="268"/>
      <point x="157" y="281"/>
      <point x="180" y="281" type="qcurve"/>
      <point x="211" y="281"/>
      <point x="263" y="263"/>
      <point x="290" y="248" type="qcurve"/>
      <point x="322" y="231"/>
      <point x="379" y="212"/>
    </contour>
  </outline>
</glyph>
<glyph name="exclamdown" format="2">
  <advance width="320"/>
  <unicode hex="00A1"/>
  <outline>
    <contour>
      <point x="238" y="-173" type="line"/>
      <point x="238" y="21" type="line"/>
      <point x="191" y="305" type="line"/>
      <point x="128" y="305" type="line"/>
      <point x="82" y="21" type="line"/>
      <point x="82" y="-173" type="line"/>
    </contour>
    <contour>
      <point x="160" y="361" type="qcurve"/>
      <point x="208" y="361"/>
      <point x="249" y="405"/>
      <point x="249" y="437" type="qcurve"/>
      <point x="249" y="461" type="line"/>
      <point x="249" y="493"/>
      <point x="208" y="537"/>
      <point x="160" y="537" type="qcurve"/>
      <point x="112" y="537"/>
      <point x="71" y="493"/>
      <point x="71" y="461" type="qcurve"/>
      <point x="71" y="437" type="line"/>
      <point x="71" y="405"/>
      <point x="112" y="361"/>
    </contour>
  </outline>
</glyph>
<glyph name="sterling" format="2">
  <advance width="582"/>
  <unicode hex="00A3"/>
  <outline>
    <contour>
      <point x="66" y="0" type="line"/>
      <point x="66" y="136" type="line"/>
      <point x="105" y="153"/>
      <point x="149" y="215"/>
      <point x="149" y="258" type="qcurve" smooth="yes"/>
      <point x="149" y="276"/>
      <point x="145" y="291" type="qcurve"/>
      <point x="34" y="291" type="line"/>
      <point x="34" y="411" type="line"/>
      <point x="100" y="411" type="line"/>
      <point x="82" y="453"/>
      <point x="82" y="505" type="qcurve" smooth="yes"/>
      <point x="82" y="597"/>
      <point x="218" y="710"/>
      <point x="332" y="710" type="qcurve" smooth="yes"/>
      <point x="489" y="710"/>
      <point x="568" y="589" type="qcurve"/>
      <point x="458" y="512" type="line"/>
      <point x="408" y="579"/>
      <point x="336" y="579" type="qcurve"/>
      <point x="235" y="576"/>
      <point x="235" y="481" type="qcurve" smooth="yes"/>
      <point x="235" y="441"/>
      <point x="249" y="411" type="qcurve"/>
      <point x="445" y="411" type="line"/>
      <point x="445" y="291" type="line"/>
      <point x="295" y="291" type="line"/>
      <point x="297" y="279"/>
      <point x="297" y="263" type="qcurve" smooth="yes"/>
      <point x="297" y="211"/>
      <point x="247" y="150"/>
      <point x="220" y="137" type="qcurve"/>
      <point x="220" y="128" type="line"/>
      <point x="554" y="128" type="line"/>
      <point x="554" y="0" type="line"/>
    </contour>
  </outline>
</glyph>
<glyph name="section" format="2">
  <advance width="569"/>
  <unicode hex="00A7"/>
  <outline>
    <contour>
      <point x="271" y="-161" type="qcurve"/>
      <point x="367" y="-161"/>
      <point x="488" y="-69"/>
      <point x="488" y="13" type="qcurve"/>
      <point x="488" y="103"/>
      <point x="411" y="153" type="qcurve"/>
      <point x="411" y="169" type="line"/>
      <point x="519" y="215"/>
      <point x="519" y="307" type="qcurve"/>
      <point x="519" y="329"/>
      <point x="511" y="351" type="qcurve"/>
      <point x="487" y="422"/>
      <point x="368" y="457" type="qcurve"/>
      <point x="291" y="478" type="line"/>
      <point x="246" y="489"/>
      <point x="204" y="520"/>
      <point x="204" y="546" type="qcurve"/>
      <point x="204" y="605"/>
      <point x="293" y="605" type="qcurve"/>
      <point x="337" y="605"/>
      <point x="398" y="576"/>
      <point x="424" y="550" type="qcurve"/>
      <point x="497" y="638" type="line"/>
      <point x="418" y="710"/>
      <point x="296" y="710" type="qcurve"/>
      <point x="202" y="710"/>
      <point x="80" y="624"/>
      <point x="80" y="541" type="qcurve"/>
      <point x="80" y="452"/>
      <point x="157" y="402" type="qcurve"/>
      <point x="157" y="385" type="line"/>
      <point x="102" y="361"/>
      <point x="50" y="290"/>
      <point x="50" y="247" type="qcurve"/>
      <point x="50" y="143"/>
      <point x="200" y="99" type="qcurve"/>
      <point x="277" y="78" type="line"/>
      <point x="322" y="67"/>
      <point x="364" y="35"/>
      <point x="364" y="7" type="qcurve"/>
      <point x="364" y="-54"/>
      <point x="273" y="-56" type="qcurve"/>
      <point x="195" y="-56"/>
      <point x="144" y="-1" type="qcurve"/>
      <point x="72" y="-89" type="line"/>
      <point x="152" y="-161"/>
    </contour>
    <contour>
      <point x="361" y="179" type="qcurve"/>
      <point x="343" y="186"/>
      <point x="252" y="211" type="qcurve"/>
      <point x="205" y="225"/>
      <point x="172" y="267"/>
      <point x="172" y="292" type="qcurve"/>
      <point x="172" y="339"/>
      <point x="208" y="376" type="qcurve"/>
      <point x="213" y="374" type="line"/>
      <point x="316" y="345" type="line"/>
      <point x="363" y="331"/>
      <point x="396" y="288"/>
      <point x="396" y="262" type="qcurve"/>
      <point x="396" y="216"/>
    </contour>
  </outline>
</glyph>
<glyph name="copyright" format="2">
  <advance width="792"/>
  <unicode hex="00A9"/>
  <outline>
    <contour>
      <point x="396" y="-12" type="qcurve" smooth="yes"/>
      <point x="245" y="-12"/>
      <point x="146" y="85" type="qcurve"/>
      <point x="48" y="186"/>
      <point x="48" y="349" type="qcurve" smooth="yes"/>
      <point x="48" y="512"/>
      <point x="146" y="613" type="qcurve"/>
      <point x="245" y="710"/>
      <point x="396" y="710" type="qcurve" smooth="yes"/>
      <point x="548" y="710"/>
      <point x="646" y="613" type="qcurve"/>
      <point x="744" y="512"/>
      <point x="744" y="349" type="qcurve" smooth="yes"/>
      <point x="744" y="186"/>
      <point x="646" y="85" type="qcurve"/>
      <point x="548" y="-12"/>
    </contour>
    <contour>
      <point x="396" y="52" type="qcurve" smooth="yes"/>
      <point x="516" y="52"/>
      <point x="670" y="203"/>
      <point x="670" y="315" type="qcurve" smooth="yes"/>
      <point x="670" y="383" type="line" smooth="yes"/>
      <point x="670" y="493"/>
      <point x="516" y="646"/>
      <point x="396" y="646" type="qcurve" smooth="yes"/>
      <point x="276" y="646"/>
      <point x="122" y="493"/>
      <point x="122" y="383" type="qcurve" smooth="yes"/>
      <point x="122" y="315" type="line" smooth="yes"/>
      <point x="122" y="203"/>
      <point x="200" y="128" type="qcurve"/>
      <point x="276" y="52"/>
    </contour>
    <contour>
      <point x="403" y="134" type="qcurve" smooth="yes"/>
      <point x="306" y="134"/>
      <point x="195" y="252"/>
      <point x="195" y="349" type="qcurve" smooth="yes"/>
      <point x="195" y="447"/>
      <point x="306" y="564"/>
      <point x="403" y="564" type="qcurve" smooth="yes"/>
      <point x="540" y="564"/>
      <point x="584" y="451" type="qcurve"/>
      <point x="484" y="403" type="line"/>
      <point x="473" y="430"/>
      <point x="436" y="461"/>
      <point x="403" y="461" type="qcurve" smooth="yes"/>
      <point x="370" y="461"/>
      <point x="332" y="422"/>
      <point x="332" y="389" type="qcurve" smooth="yes"/>
      <point x="332" y="309" type="line"/>
      <point x="337" y="237"/>
      <point x="403" y="237" type="qcurve" smooth="yes"/>
      <point x="462" y="237"/>
      <point x="491" y="295" type="qcurve"/>
      <point x="592" y="248" type="line"/>
      <point x="572" y="201"/>
      <point x="483" y="134"/>
    </contour>
  </outline>
</glyph>
<glyph name="ordfeminine" format="2">
  <advance width="429"/>
  <unicode hex="00AA"/>
  <outline>
    <contour>
      <point x="160" y="332" type="qcurve"/>
      <point x="109" y="332"/>
      <point x="46" y="389"/>
      <point x="46" y="440" type="qcurve"/>
      <point x="46" y="551"/>
      <point x="206" y="551" type="qcurve"/>
      <point x="262" y="551" type="line"/>
      <point x="262" y="569" type="line"/>
      <point x="262" y="602"/>
      <point x="234" y="634"/>
      <point x="199" y="634" type="qcurve"/>
      <point x="142" y="634"/>
      <point x="112" y="589" type="qcurve"/>
      <point x="56" y="639" type="line"/>
      <point x="95" y="710"/>
      <point x="211" y="710" type="qcurve"/>
      <point x="283" y="710"/>
      <point x="366" y="642"/>
      <point x="366" y="573" type="qcurve"/>
      <point x="366" y="340" type="line"/>
      <point x="272" y="340" type="line"/>
      <point x="272" y="404" type="line"/>
      <point x="268" y="404" type="line"/>
      <point x="258" y="369"/>
      <point x="201" y="332"/>
    </contour>
    <contour>
      <point x="200" y="400" type="qcurve"/>
      <point x="226" y="400"/>
      <point x="262" y="426"/>
      <point x="262" y="452" type="qcurve"/>
      <point x="262" y="495" type="line"/>
      <point x="209" y="495" type="line"/>
      <point x="148" y="495"/>
      <point x="147" y="452" type="qcurve"/>
      <point x="147" y="438" type="line"/>
      <point x="147" y="400"/>
    </contour>
  </outline>
</glyph>
<glyph name="registered" format="2">
  <advance width="464"/>
  <unicode hex="00AE"/>
  <outline>
    <contour>
      <point x="232" y="298" type="qcurve"/>
      <point x="316" y="298"/>
      <point x="434" y="416"/>
      <point x="434" y="504" type="qcurve"/>
      <point x="434" y="593"/>
      <point x="376" y="652" type="qcurve"/>
      <point x="316" y="710"/>
      <point x="232" y="710" type="qcurve"/>
      <point x="148" y="710"/>
      <point x="30" y="593"/>
      <point x="30" y="504" type="qcurve"/>
      <point x="30" y="416"/>
      <point x="148" y="298"/>
    </contour>
    <contour>
      <point x="232" y="345" type="qcurve"/>
      <point x="172" y="345"/>
      <point x="84" y="421"/>
      <point x="84" y="488" type="qcurve"/>
      <point x="84" y="520" type="line"/>
      <point x="84" y="588"/>
      <point x="172" y="663"/>
      <point x="232" y="663" type="qcurve"/>
      <point x="292" y="663"/>
      <point x="380" y="588"/>
      <point x="380" y="520" type="qcurve"/>
      <point x="380" y="488" type="line"/>
      <point x="380" y="421"/>
      <point x="292" y="345"/>
    </contour>
    <contour>
      <point x="333" y="400" type="line"/>
      <point x="290" y="473" type="line"/>
      <point x="327" y="490"/>
      <point x="327" y="539" type="qcurve"/>
      <point x="327" y="569"/>
      <point x="289" y="609"/>
      <point x="247" y="609" type="qcurve"/>
      <point x="145" y="609" type="line"/>
      <point x="145" y="400" type="line"/>
      <point x="209" y="400" type="line"/>
      <point x="209" y="461" type="line"/>
      <point x="232" y="461" type="line"/>
      <point x="264" y="400" type="line"/>
    </contour>
    <contour>
      <point x="234" y="508" type="qcurve"/>
      <point x="209" y="508" type="line"/>
      <point x="209" y="561" type="line"/>
      <point x="234" y="561" type="line"/>
      <point x="262" y="561"/>
      <point x="262" y="540" type="qcurve"/>
      <point x="262" y="531" type="line"/>
      <point x="262" y="509"/>
    </contour>
  </outline>
</glyph>
<glyph name="macron" format="2">
  <advance width="600"/>
  <unicode hex="00AF"/>
  <outline>
    <contour>
      <point x="453" y="624" type="line"/>
      <point x="453" y="727" type="line"/>
      <point x="147" y="727" type="line"/>
      <point x="147" y="624" type="line"/>
    </contour>
  </outline>
</glyph>
<glyph name="threesuperior" format="2">
  <advance width="345"/>
  <unicode hex="00B3"/>
  <outline>
    <contour>
      <point x="159" y="323" type="qcurve"/>
      <point x="229" y="323"/>
      <point x="316" y="382"/>
      <point x="316" y="433" type="qcurve"/>
      <point x="316" y="504"/>
      <point x="234" y="518" type="qcurve"/>
      <point x="234" y="522" type="line"/>
      <point x="266" y="526"/>
      <point x="310" y="568"/>
      <point x="310" y="603" type="qcurve"/>
      <point x="310" y="648"/>
      <point x="231" y="704"/>
      <point x="160" y="704" type="qcurve"/>
      <point x="107" y="704"/>
      <point x="40" y="672"/>
      <point x="15" y="641" type="qcurve"/>
      <point x="77" y="582" type="line"/>
      <point x="115" y="625"/>
      <point x="157" y="625" type="qcurve"/>
      <point x="179" y="625"/>
      <point x="202" y="603"/>
      <point x="202" y="585" type="qcurve"/>
      <point x="202" y="575"/>
      <point x="178" y="558"/>
      <point x="151" y="558" type="qcurve"/>
      <point x="117" y="558" type="line"/>
      <point x="117" y="476" type="line"/>
      <point x="148" y="476" type="line"/>
      <point x="209" y="476"/>
      <point x="209" y="444" type="qcurve"/>
      <point x="209" y="406"/>
      <point x="159" y="402" type="qcurve"/>
      <point x="105" y="402"/>
      <point x="80" y="456" type="qcurve"/>
      <point x="4" y="398" type="line"/>
      <point x="23" y="366"/>
      <point x="94" y="323"/>
    </contour>
  </outline>
</glyph>
<glyph name="mu" format="2">
  <advance width="602"/>
  <unicode hex="00B5"/>
  <outline>
    <contour>
      <point x="216" y="-200" type="line"/>
      <point x="216" y="-106" type="line"/>
      <point x="187" y="30" type="line"/>
      <point x="192" y="30" type="line"/>
      <point x="210" y="-12"/>
      <point x="264" y="-12" type="qcurve"/>
      <point x="309" y="-12"/>
      <point x="367" y="46"/>
      <point x="380" y="88" type="qcurve"/>
      <point x="385" y="88" type="line"/>
      <point x="385" y="0" type="line"/>
      <point x="533" y="0" type="line"/>
      <point x="533" y="525" type="line"/>
      <point x="385" y="525" type="line"/>
      <point x="385" y="184" type="line"/>
      <point x="385" y="148"/>
      <point x="327" y="108"/>
      <point x="291" y="108" type="qcurve"/>
      <point x="251" y="108"/>
      <point x="217" y="158"/>
      <point x="217" y="206" type="qcurve"/>
      <point x="217" y="525" type="line"/>
      <point x="69" y="525" type="line"/>
      <point x="69" y="-200" type="line"/>
    </contour>
  </outline>
</glyph>
<glyph name="paragraph" format="2">
  <advance width="677"/>
  <unicode hex="00B6"/>
  <outline>
    <contour>
      <point x="558" y="-149" type="line"/>
      <point x="558" y="592" type="line"/>
      <point x="624" y="592" type="line"/>
      <point x="624" y="698" type="line"/>
      <point x="242" y="698" type="line"/>
      <point x="154" y="698"/>
      <point x="31" y="569"/>
      <point x="31" y="479" type="qcurve"/>
      <point x="31" y="389"/>
      <point x="154" y="260"/>
      <point x="242" y="260" type="qcurve"/>
      <point x="242" y="-149" type="line"/>
      <point x="351" y="-149" type="line"/>
      <point x="351" y="592" type="line"/>
      <point x="449" y="592" type="line"/>
      <point x="449" y="-149" type="line"/>
    </contour>
  </outline>
</glyph>
<glyph name="periodcentered" format="2">
  <advance width="358"/>
  <unicode hex="00B7"/>
  <outline>
    <contour>
      <point x="179" y="213" type="qcurve" smooth="yes"/>
      <point x="134" y="213"/>
      <point x="91" y="258"/>
      <point x="91" y="293" type="qcurve" smooth="yes"/>
      <point x="91" y="313" type="line" smooth="yes"/>
      <point x="91" y="348"/>
      <point x="134" y="393"/>
      <point x="179" y="393" type="qcurve" smooth="yes"/>
      <point x="224" y="393"/>
      <point x="267" y="348"/>
      <point x="267" y="313" type="qcurve" smooth="yes"/>
      <point x="267" y="293" type="line" smooth="yes"/>
      <point x="267" y="258"/>
      <point x="224" y="213"/>
    </contour>
  </outline>
</glyph>
<glyph name="cedilla" format="2">
  <advance width="600"/>
  <unicode hex="00B8"/>
  <outline>
    <contour>
      <point x="314" y="-212" type="qcurve"/>
      <point x="372" y="-212"/>
      <point x="406" y="-192" type="qcurve"/>
      <point x="446" y="-168"/>
      <point x="446" y="-121" type="qcurve"/>
      <point x="446" y="-84"/>
      <point x="403" y="-52"/>
      <point x="373" y="-52" type="qcurve"/>
      <point x="349" y="-52"/>
      <point x="325" y="-59" type="qcurve"/>
      <point x="321" y="-55" type="line"/>
      <point x="339" y="30" type="line"/>
      <point x="272" y="30" type="line"/>
      <point x="250" y="-74" type="line"/>
      <point x="314" y="-80"/>
      <point x="332" y="-92" type="qcurve"/>
      <point x="346" y="-104"/>
      <point x="346" y="-116" type="qcurve"/>
      <point x="346" y="-129"/>
      <point x="321" y="-141"/>
      <point x="302" y="-141" type="qcurve"/>
      <point x="259" y="-141"/>
      <point x="236" y="-112" type="qcurve"/>
      <point x="190" y="-168" type="line"/>
      <point x="224" y="-212"/>
    </contour>
  </outline>
</glyph>
<glyph name="ordmasculine" format="2">
  <advance width="433"/>
  <unicode hex="00BA"/>
  <outline>
    <contour>
      <point x="217" y="330" type="qcurve" smooth="yes"/>
      <point x="132" y="330"/>
      <point x="38" y="432"/>
      <point x="38" y="520" type="qcurve" smooth="yes"/>
      <point x="38" y="608"/>
      <point x="132" y="710"/>
      <point x="217" y="710" type="qcurve" smooth="yes"/>
      <point x="302" y="710"/>
      <point x="396" y="608"/>
      <point x="396" y="520" type="qcurve" smooth="yes"/>
      <point x="396" y="432"/>
      <point x="302" y="330"/>
    </contour>
    <contour>
      <point x="217" y="408" type="qcurve" smooth="yes"/>
      <point x="251" y="408"/>
      <point x="289" y="449"/>
      <point x="289" y="491" type="qcurve" smooth="yes"/>
      <point x="289" y="549" type="line" smooth="yes"/>
      <point x="289" y="591"/>
      <point x="251" y="632"/>
      <point x="217" y="632" type="qcurve" smooth="yes"/>
      <point x="183" y="632"/>
      <point x="145" y="591"/>
      <point x="145" y="549" type="qcurve" smooth="yes"/>
      <point x="145" y="491" type="line" smooth="yes"/>
      <point x="145" y="449"/>
      <point x="183" y="408"/>
    </contour>
  </outline>
</glyph>
<glyph name="onequarter" format="2">
  <advance width="787"/>
  <unicode hex="00BC"/>
  <outline>
    <contour>
      <point x="722" y="0" type="line"/>
      <point x="624" y="0" type="line"/>
      <point x="624" y="70" type="line"/>
      <point x="458" y="70" type="line"/>
      <point x="458" y="155" type="line"/>
      <point x="607" y="369" type="line"/>
      <point x="722" y="369" type="line"/>
      <point x="722" y="146" type="line"/>
      <point x="768" y="146" type="line"/>
      <point x="768" y="70" type="line"/>
      <point x="722" y="70" type="line"/>
    </contour>
    <contour>
      <point x="624" y="146" type="line"/>
      <point x="624" y="259" type="line"/>
      <point x="617" y="259" type="line"/>
      <point x="537" y="146" type="line"/>
    </contour>
    <contour>
      <point x="172" y="0" type="line"/>
      <point x="64" y="0" type="line"/>
      <point x="593" y="698" type="line"/>
      <point x="701" y="698" type="line"/>
    </contour>
    <contour>
      <point x="243" y="329" type="line"/>
      <point x="142" y="329" type="line"/>
      <point x="142" y="606" type="line"/>
      <point x="62" y="570" type="line"/>
      <point x="62" y="661" type="line"/>
      <point x="137" y="698" type="line"/>
      <point x="243" y="698" type="line"/>
    </contour>
  </outline>
</glyph>
<glyph name="onehalf" format="2">
  <advance width="809"/>
  <unicode hex="00BD"/>
  <outline>
    <contour>
      <point x="172" y="0" type="line"/>
      <point x="64" y="0" type="line"/>
      <point x="593" y="698" type="line"/>
      <point x="701" y="698" type="line"/>
    </contour>
    <contour>
      <point x="243" y="329" type="line"/>
      <point x="142" y="329" type="line"/>
      <point x="142" y="606" type="line"/>
      <point x="62" y="570" type="line"/>
      <point x="62" y="661" type="line"/>
      <point x="137" y="698" type="line"/>
      <point x="243" y="698" type="line"/>
    </contour>
    <contour>
      <point x="784" y="0" type="line"/>
      <point x="495" y="0" type="line"/>
      <point x="495" y="88" type="line"/>
      <point x="604" y="171" type="line" smooth="yes"/>
      <point x="641" y="198"/>
      <point x="671" y="232"/>
      <point x="671" y="255" type="qcurve" smooth="yes"/>
      <point x="671" y="289"/>
      <point x="628" y="289" type="qcurve" smooth="yes"/>
      <point x="585" y="289"/>
      <point x="573" y="244" type="qcurve"/>
      <point x="484" y="277" type="line"/>
      <point x="498" y="320"/>
      <point x="575" y="375"/>
      <point x="638" y="375" type="qcurve" smooth="yes"/>
      <point x="706" y="375"/>
      <point x="780" y="311"/>
      <point x="780" y="261" type="qcurve" smooth="yes"/>
      <point x="780" y="210"/>
      <point x="712" y="140"/>
      <point x="666" y="116" type="qcurve"/>
      <point x="607" y="83" type="line"/>
      <point x="784" y="83" type="line"/>
    </contour>
  </outline>
</glyph>
<glyph name="Agrave" format="2">
  <advance width="685"/>
  <unicode hex="00C0"/>
  <outline>
    <contour>
      <point x="665" y="0" type="line"/>
      <point x="438" y="698" type="line"/>
      <point x="250" y="698" type="line"/>
      <point x="20" y="0" type="line"/>
      <point x="174" y="0" type="line"/>
      <point x="224" y="166" type="line"/>
      <point x="457" y="166" type="line"/>
      <point x="507" y="0" type="line"/>
    </contour>
    <contour>
      <point x="420" y="295" type="line"/>
      <point x="260" y="295" type="line"/>
      <point x="337" y="560" type="line"/>
      <point x="342" y="560" type="line"/>
    </contour>
    <contour>
      <point x="323" y="740" type="line"/>
      <point x="411" y="783" type="line"/>
      <point x="312" y="977" type="line"/>
      <point x="189" y="916" type="line"/>
    </contour>
  </outline>
</glyph>
<glyph name="Aacute" format="2">
  <advance width="685"/>
  <unicode hex="00C1"/>
  <outline>
    <contour>
      <point x="267" y="783" type="line"/>
      <point x="366" y="977" type="line"/>
      <point x="489" y="916" type="line"/>
      <point x="355" y="740" type="line"/>
    </contour>
    <contour>
      <point x="507" y="0" type="line"/>
      <point x="457" y="166" type="line"/>
      <point x="224" y="166" type="line"/>
      <point x="174" y="0" type="line"/>
      <point x="20" y="0" type="line"/>
      <point x="250" y="698" type="line"/>
      <point x="438" y="698" type="line"/>
      <point x="665" y="0" type="line"/>
    </contour>
    <contour>
      <point x="342" y="560" type="line"/>
      <point x="337" y="560" type="line"/>
      <point x="260" y="295" type="line"/>
      <point x="420" y="295" type="line"/>
    </contour>
  </outline>
</glyph>
<glyph name="Acircumflex" format="2">
  <advance width="685"/>
  <unicode hex="00C2"/>
  <outline>
    <contour>
      <point x="339" y="854" type="line"/>
      <point x="218" y="739" type="line"/>
      <point x="145" y="797" type="line"/>
      <point x="277" y="956" type="line"/>
      <point x="401" y="956" type="line"/>
      <point x="533" y="797" type="line"/>
      <point x="460" y="739" type="line"/>
    </contour>
    <contour>
      <point x="507" y="0" type="line"/>
      <point x="457" y="166" type="line"/>
      <point x="224" y="166" type="line"/>
      <point x="174" y="0" type="line"/>
      <point x="20" y="0" type="line"/>
      <point x="250" y="698" type="line"/>
      <point x="438" y="698" type="line"/>
      <point x="665" y="0" type="line"/>
    </contour>
    <contour>
      <point x="342" y="560" type="line"/>
      <point x="337" y="560" type="line"/>
      <point x="260" y="295" type="line"/>
      <point x="420" y="295" type="line"/>
    </contour>
  </outline>
</glyph>
<glyph name="Aring" format="2">
  <advance width="685"/>
  <unicode hex="00C5"/>
  <outline>
    <contour>
      <point x="665" y="0" type="line"/>
      <point x="438" y="698" type="line"/>
      <point x="250" y="698" type="line"/>
      <point x="20" y="0" type="line"/>
      <point x="174" y="0" type="line"/>
      <point x="224" y="166" type="line"/>
      <point x="457" y="166" type="line"/>
      <point x="507" y="0" type="line"/>
    </contour>
    <contour>
      <point x="420" y="295" type="line"/>
      <point x="260" y="295" type="line"/>
      <point x="337" y="560" type="line"/>
      <point x="342" y="560" type="line"/>
    </contour>
    <contour>
      <point x="339" y="719" type="qcurve"/>
      <point x="401" y="719"/>
      <point x="487" y="801"/>
      <point x="487" y="862" type="qcurve"/>
      <point x="487" y="924"/>
      <point x="401" y="1005"/>
      <point x="339" y="1005" type="qcurve"/>
      <point x="278" y="1005"/>
      <point x="191" y="924"/>
      <point x="191" y="862" type="qcurve"/>
      <point x="191" y="801"/>
      <point x="278" y="719"/>
    </contour>
    <contour>
      <point x="339" y="794" type="qcurve"/>
      <point x="290" y="794"/>
      <point x="288" y="845" type="qcurve"/>
      <point x="288" y="879" type="line"/>
      <point x="288" y="902"/>
      <point x="314" y="930"/>
      <point x="339" y="930" type="qcurve"/>
      <point x="389" y="930"/>
      <point x="390" y="879" type="qcurve"/>
      <point x="390" y="845" type="line"/>
      <point x="390" y="822"/>
      <point x="364" y="794"/>
    </contour>
  </outline>
</glyph>
<glyph name="Ccedilla" format="2">
  <advance width="651"/>
  <unicode hex="00C7"/>
  <outline>
    <contour>
      <point x="348" y="-212" type="qcurve"/>
      <point x="406" y="-212"/>
      <point x="440" y="-192" type="qcurve"/>
      <point x="480" y="-168"/>
      <point x="480" y="-121" type="qcurve"/>
      <point x="480" y="-84"/>
      <point x="437" y="-52"/>
      <point x="407" y="-52" type="qcurve"/>
      <point x="383" y="-52"/>
      <point x="359" y="-59" type="qcurve"/>
      <point x="355" y="-55" type="line"/>
      <point x="364" y="-12" type="line"/>
      <point x="542" y="-12"/>
      <point x="622" y="155" type="qcurve"/>
      <point x="498" y="227" type="line"/>
      <point x="483" y="183"/>
      <point x="415" y="123"/>
      <point x="359" y="123" type="qcurve"/>
      <point x="292" y="123"/>
      <point x="211" y="210"/>
      <point x="211" y="293" type="qcurve"/>
      <point x="211" y="405" type="line"/>
      <point x="211" y="488"/>
      <point x="292" y="575"/>
      <point x="359" y="575" type="qcurve"/>
      <point x="416" y="575"/>
      <point x="476" y="523"/>
      <point x="489" y="478" type="qcurve"/>
      <point x="620" y="546" type="line"/>
      <point x="582" y="630"/>
      <point x="456" y="710"/>
      <point x="359" y="710" type="qcurve"/>
      <point x="217" y="710"/>
      <point x="50" y="520"/>
      <point x="50" y="344" type="qcurve"/>
      <point x="50" y="187"/>
      <point x="182" y="10"/>
      <point x="298" y="-7" type="qcurve"/>
      <point x="284" y="-74" type="line"/>
      <point x="348" y="-80"/>
      <point x="366" y="-92" type="qcurve"/>
      <point x="380" y="-104"/>
      <point x="380" y="-116" type="qcurve"/>
      <point x="380" y="-129"/>
      <point x="355" y="-141"/>
      <point x="336" y="-141" type="qcurve"/>
      <point x="293" y="-141"/>
      <point x="270" y="-112" type="qcurve"/>
      <point x="224" y="-168" type="line"/>
      <point x="258" y="-212"/>
    </contour>
  </outline>
</glyph>
<glyph name="Egrave" format="2">
  <advance width="607"/>
  <unicode hex="00C8"/>
  <outline>
    <contour>
      <point x="552" y="0" type="line"/>
      <point x="552" y="135" type="line"/>
      <point x="229" y="135" type="line"/>
      <point x="229" y="286" type="line"/>
      <point x="506" y="286" type="line"/>
      <point x="506" y="420" type="line"/>
      <point x="229" y="420" type="line"/>
      <point x="229" y="563" type="line"/>
      <point x="552" y="563" type="line"/>
      <point x="552" y="698" type="line"/>
      <point x="77" y="698" type="line"/>
      <point x="77" y="0" type="line"/>
    </contour>
    <contour>
      <point x="299" y="740" type="line"/>
      <point x="387" y="783" type="line"/>
      <point x="288" y="977" type="line"/>
      <point x="165" y="916" type="line"/>
    </contour>
  </outline>
</glyph>
<glyph name="Igrave" format="2">
  <advance width="306"/>
  <unicode hex="00CC"/>
  <outline>
    <contour>
      <point x="138" y="740" type="line"/>
      <point x="4" y="916" type="line"/>
      <point x="127" y="977" type="line"/>
      <point x="226" y="783" type="line"/>
    </contour>
    <contour>
      <point x="229" y="0" type="line"/>
      <point x="77" y="0" type="line"/>
      <point x="77" y="698" type="line"/>
      <point x="229" y="698" type="line"/>
    </contour>
  </outline>
</glyph>
<glyph name="Iacute" format="2">
  <advance width="306"/>
  <unicode hex="00CD"/>
  <outline>
    <contour>
      <point x="170" y="740" type="line"/>
      <point x="304" y="916" type="line"/>
      <point x="181" y="977" type="line"/>
      <point x="82" y="783" type="line"/>
    </contour>
    <contour>
      <point x="229" y="0" type="line"/>
      <point x="77" y="0" type="line"/>
      <point x="77" y="698" type="line"/>
      <point x="229" y="698" type="line"/>
    </contour>
  </outline>
</glyph>
<glyph name="Icircumflex" format="2">
  <advance width="306"/>
  <unicode hex="00CE"/>
  <outline>
    <contour>
      <point x="275" y="739" type="line"/>
      <point x="348" y="797" type="line"/>
      <point x="216" y="956" type="line"/>
      <point x="92" y="956" type="line"/>
      <point x="-40" y="797" type="line"/>
      <point x="33" y="739" type="line"/>
      <point x="154" y="854" type="line"/>
    </contour>
    <contour>
      <point x="229" y="0" type="line"/>
      <point x="77" y="0" type="line"/>
      <point x="77" y="698" type="line"/>
      <point x="229" y="698" type="line"/>
    </contour>
  </outline>
</glyph>
<glyph name="Oacute" format="2">
  <advance width="714"/>
  <unicode hex="00D3"/>
  <outline>
    <contour>
      <point x="357" y="-12" type="qcurve"/>
      <point x="495" y="-12"/>
      <point x="580" y="80" type="qcurve"/>
      <point x="664" y="174"/>
      <point x="664" y="349" type="qcurve"/>
      <point x="664" y="523"/>
      <point x="580" y="619" type="qcurve"/>
      <point x="495" y="710"/>
      <point x="357" y="710" type="qcurve"/>
      <point x="219" y="710"/>
      <point x="134" y="619" type="qcurve"/>
      <point x="50" y="523"/>
      <point x="50" y="349" type="qcurve"/>
      <point x="50" y="174"/>
      <point x="134" y="80" type="qcurve"/>
      <point x="219" y="-12"/>
    </contour>
    <contour>
      <point x="357" y="123" type="qcurve"/>
      <point x="288" y="123"/>
      <point x="211" y="213"/>
      <point x="211" y="297" type="qcurve"/>
      <point x="211" y="401" type="line"/>
      <point x="211" y="569"/>
      <point x="357" y="575" type="qcurve"/>
      <point x="426" y="575"/>
      <point x="503" y="485"/>
      <point x="503" y="401" type="qcurve"/>
      <point x="503" y="297" type="line"/>
      <point x="503" y="129"/>
    </contour>
    <contour>
      <point x="373" y="740" type="line"/>
      <point x="507" y="916" type="line"/>
      <point x="384" y="977" type="line"/>
      <point x="285" y="783" type="line"/>
    </contour>
  </outline>
</glyph>
<glyph name="Oslash" format="2">
  <advance width="714"/>
  <unicode hex="00D8"/>
  <outline>
    <contour>
      <point x="154" y="-56" type="line"/>
      <point x="207" y="22" type="line"/>
      <point x="273" y="-12"/>
      <point x="357" y="-12" type="qcurve"/>
      <point x="495" y="-12"/>
      <point x="580" y="80" type="qcurve"/>
      <point x="664" y="174"/>
      <point x="664" y="349" type="qcurve"/>
      <point x="664" y="516"/>
      <point x="591" y="605" type="qcurve"/>
      <point x="652" y="695" type="line"/>
      <point x="560" y="754" type="line"/>
      <point x="507" y="676" type="line"/>
      <point x="441" y="710"/>
      <point x="357" y="710" type="qcurve"/>
      <point x="219" y="710"/>
      <point x="134" y="619" type="qcurve"/>
      <point x="50" y="523"/>
      <point x="50" y="349" type="qcurve"/>
      <point x="50" y="183"/>
      <point x="123" y="93" type="qcurve"/>
      <point x="62" y="3" type="line"/>
    </contour>
    <contour>
      <point x="216" y="211" type="line"/>
      <point x="204" y="248"/>
      <point x="204" y="294" type="qcurve"/>
      <point x="204" y="404" type="line"/>
      <point x="204" y="580"/>
      <point x="357" y="586" type="qcurve"/>
      <point x="407" y="586"/>
      <point x="439" y="565" type="qcurve"/>
    </contour>
    <contour>
      <point x="357" y="112" type="qcurve"/>
      <point x="308" y="112"/>
      <point x="275" y="133" type="qcurve"/>
      <point x="498" y="487" type="line"/>
      <point x="510" y="451"/>
      <point x="510" y="404" type="qcurve"/>
      <point x="510" y="294" type="line"/>
      <point x="510" y="119"/>
    </contour>
  </outline>
</glyph>
<glyph name="Uacute" format="2">
  <advance width="694"/>
  <unicode hex="00DA"/>
  <outline>
    <contour>
      <point x="347" y="-12" type="qcurve"/>
      <point x="497" y="-12"/>
      <point x="559" y="60" type="qcurve"/>
      <point x="621" y="128"/>
      <point x="621" y="286" type="qcurve"/>
      <point x="621" y="698" type="line"/>
      <point x="473" y="698" type="line"/>
      <point x="473" y="270" type="line"/>
      <point x="473" y="196"/>
      <point x="415" y="123"/>
      <point x="347" y="123" type="qcurve"/>
      <point x="279" y="123"/>
      <point x="221" y="196"/>
      <point x="221" y="270" type="qcurve"/>
      <point x="221" y="698" type="line"/>
      <point x="73" y="698" type="line"/>
      <point x="73" y="286" type="line"/>
      <point x="73" y="128"/>
      <point x="135" y="60" type="qcurve"/>
      <point x="197" y="-12"/>
    </contour>
    <contour>
      <point x="363" y="740" type="line"/>
      <point x="497" y="916" type="line"/>
      <point x="374" y="977" type="line"/>
      <point x="275" y="783" type="line"/>
    </contour>
  </outline>
</glyph>
<glyph name="Udieresis" format="2">
  <advance width="694"/>
  <unicode hex="00DC"/>
  <outline>
    <contour>
      <point x="347" y="-12" type="qcurve"/>
      <point x="497" y="-12"/>
      <point x="559" y="60" type="qcurve"/>
      <point x="621" y="128"/>
      <point x="621" y="286" type="qcurve"/>
      <point x="621" y="698" type="line"/>
      <point x="473" y="698" type="line"/>
      <point x="473" y="270" type="line"/>
      <point x="473" y="196"/>
      <point x="415" y="123"/>
      <point x="347" y="123" type="qcurve"/>
      <point x="279" y="123"/>
      <point x="221" y="196"/>
      <point x="221" y="270" type="qcurve"/>
      <point x="221" y="698" type="line"/>
      <point x="73" y="698" type="line"/>
      <point x="73" y="286" type="line"/>
      <point x="73" y="128"/>
      <point x="135" y="60" type="qcurve"/>
      <point x="197" y="-12"/>
    </contour>
    <contour>
      <point x="237" y="761" type="qcurve"/>
      <point x="317" y="761"/>
      <point x="317" y="824" type="qcurve"/>
      <point x="317" y="849" type="line"/>
      <point x="317" y="912"/>
      <point x="237" y="912" type="qcurve"/>
      <point x="157" y="912"/>
      <point x="157" y="849" type="qcurve"/>
      <point x="157" y="824" type="line"/>
      <point x="157" y="761"/>
    </contour>
    <contour>
      <point x="457" y="761" type="qcurve"/>
      <point x="537" y="761"/>
      <point x="537" y="824" type="qcurve"/>
      <point x="537" y="849" type="line"/>
      <point x="537" y="912"/>
      <point x="457" y="912" type="qcurve"/>
      <point x="377" y="912"/>
      <point x="377" y="849" type="qcurve"/>
      <point x="377" y="824" type="line"/>
      <point x="377" y="761"/>
    </contour>
  </outline>
</glyph>
<glyph name="Yacute" format="2">
  <advance width="649"/>
  <unicode hex="00DD"/>
  <outline>
    <contour>
      <point x="253" y="783" type="line"/>
      <point x="352" y="977" type="line"/>
      <point x="475" y="916" type="line"/>
      <point x="341" y="740" type="line"/>
    </contour>
    <contour>
      <point x="248" y="0" type="line"/>
      <point x="248" y="273" type="line"/>
      <point x="9" y="698" type="line"/>
      <point x="179" y="698" type="line"/>
      <point x="329" y="420" type="line"/>
      <point x="331" y="420" type="line"/>
      <point x="475" y="698" type="line"/>
      <point x="640" y="698" type="line"/>
      <point x="401" y="274" type="line"/>
      <point x="401" y="0" type="line"/>
    </contour>
  </outline>
</glyph>
<glyph name="germandbls" format="2">
  <advance width="692"/>
  <unicode hex="00DF"/>
  <outline>
    <contour>
      <point x="473" y="-12" type="qcurve" smooth="yes"/>
      <point x="347" y="-12"/>
      <point x="287" y="63" type="qcurve"/>
      <point x="371" y="149" type="line"/>
      <point x="413" y="98"/>
      <point x="471" y="98" type="qcurve"/>
      <point x="531" y="100"/>
      <point x="531" y="155" type="qcurve" smooth="yes"/>
      <point x="531" y="181"/>
      <point x="500" y="208"/>
      <point x="465" y="219" type="qcurve" smooth="yes"/>
      <point x="434" y="229" type="line" smooth="yes"/>
      <point x="382" y="246"/>
      <point x="322" y="313"/>
      <point x="322" y="374" type="qcurve" smooth="yes"/>
      <point x="322" y="494"/>
      <point x="463" y="529" type="qcurve"/>
      <point x="463" y="642"/>
      <point x="353" y="642" type="qcurve" smooth="yes"/>
      <point x="298" y="642"/>
      <point x="243" y="589"/>
      <point x="243" y="531" type="qcurve" smooth="yes"/>
      <point x="243" y="0" type="line"/>
      <point x="95" y="0" type="line"/>
      <point x="95" y="410" type="line"/>
      <point x="21" y="410" type="line"/>
      <point x="21" y="525" type="line"/>
      <point x="95" y="525" type="line"/>
      <point x="95" y="633"/>
      <point x="237" y="752"/>
      <point x="349" y="752" type="qcurve" smooth="yes"/>
      <point x="462" y="752"/>
      <point x="599" y="635"/>
      <point x="599" y="531" type="qcurve" smooth="yes"/>
      <point x="599" y="434" type="line"/>
      <point x="543" y="434" type="line" smooth="yes"/>
      <point x="496" y="434"/>
      <point x="458" y="413"/>
      <point x="458" y="387" type="qcurve" smooth="yes"/>
      <point x="458" y="363"/>
      <point x="488" y="341"/>
      <point x="520" y="331" type="qcurve" smooth="yes"/>
      <point x="551" y="321" type="line" smooth="yes"/>
      <point x="606" y="304"/>
      <point x="667" y="235"/>
      <point x="667" y="173" type="qcurve" smooth="yes"/>
      <point x="667" y="88"/>
      <point x="559" y="-12"/>
    </contour>
  </outline>
</glyph>
<glyph name="ccedilla" format="2">
  <advance width="517"/>
  <unicode hex="00E7"/>
  <outline>
    <contour>
      <point x="275" y="-212" type="qcurve" smooth="yes"/>
      <point x="185" y="-212"/>
      <point x="151" y="-168" type="qcurve"/>
      <point x="197" y="-112" type="line"/>
      <point x="220" y="-141"/>
      <point x="263" y="-141" type="qcurve" smooth="yes"/>
      <point x="282" y="-141"/>
      <point x="307" y="-129"/>
      <point x="307" y="-116" type="qcurve" smooth="yes"/>
      <point x="307" y="-104"/>
      <point x="293" y="-92" type="qcurve"/>
      <point x="275" y="-80"/>
      <point x="211" y="-74" type="qcurve"/>
      <point x="225" y="-7" type="line"/>
      <point x="132" y="11"/>
      <point x="36" y="152"/>
      <point x="36" y="263" type="qcurve" smooth="yes"/>
      <point x="36" y="389"/>
      <point x="163" y="537"/>
      <point x="281" y="537" type="qcurve" smooth="yes"/>
      <point x="442" y="537"/>
      <point x="491" y="400" type="qcurve"/>
      <point x="371" y="348" type="line"/>
      <point x="364" y="379"/>
      <point x="320" y="420"/>
      <point x="281" y="420" type="qcurve" smooth="yes"/>
      <point x="236" y="420"/>
      <point x="190" y="361"/>
      <point x="190" y="311" type="qcurve" smooth="yes"/>
      <point x="190" y="213" type="line" smooth="yes"/>
      <point x="190" y="163"/>
      <point x="236" y="104"/>
      <point x="281" y="104" type="qcurve" smooth="yes"/>
      <point x="325" y="104"/>
      <point x="369" y="150"/>
      <point x="379" y="183" type="qcurve"/>
      <point x="494" y="133" type="line"/>
      <point x="439" y="-10"/>
      <point x="291" y="-12" type="qcurve"/>
      <point x="282" y="-55" type="line"/>
      <point x="286" y="-59" type="line"/>
      <point x="310" y="-52"/>
      <point x="334" y="-52" type="qcurve" smooth="yes"/>
      <point x="364" y="-52"/>
      <point x="407" y="-84"/>
      <point x="407" y="-121" type="qcurve" smooth="yes"/>
      <point x="407" y="-168"/>
      <point x="367" y="-192" type="qcurve" smooth="yes"/>
      <point x="333" y="-212"/>
    </contour>
  </outline>
</glyph>
<glyph name="igrave" format="2">
  <advance width="286"/>
  <unicode hex="00EC"/>
  <outline>
    <contour>
      <point x="217" y="0" type="line"/>
      <point x="217" y="525" type="line"/>
      <point x="69" y="525" type="line"/>
      <point x="69" y="0" type="line"/>
    </contour>
    <contour>
      <point x="128" y="579" type="line"/>
      <point x="216" y="622" type="line"/>
      <point x="117" y="816" type="line"/>
      <point x="-6" y="755" type="line"/>
    </contour>
  </outline>
</glyph>
<glyph name="icircumflex" format="2">
  <advance width="286"/>
  <unicode hex="00EE"/>
  <outline>
    <contour>
      <point x="217" y="0" type="line"/>
      <point x="217" y="525" type="line"/>
      <point x="69" y="525" type="line"/>
      <point x="69" y="0" type="line"/>
    </contour>
    <contour>
      <point x="265" y="578" type="line"/>
      <point x="338" y="636" type="line"/>
      <point x="206" y="795" type="line"/>
      <point x="82" y="795" type="line"/>
      <point x="-50" y="636" type="line"/>
      <point x="23" y="578" type="line"/>
      <point x="144" y="693" type="line"/>
    </contour>
  </outline>
</glyph>
<glyph name="oacute" format="2">
  <advance width="564"/>
  <unicode hex="00F3"/>
  <outline>
    <contour>
      <point x="282" y="-12" type="qcurve"/>
      <point x="398" y="-12"/>
      <point x="528" y="137"/>
      <point x="528" y="263" type="qcurve"/>
      <point x="528" y="389"/>
      <point x="398" y="537"/>
      <point x="282" y="537" type="qcurve"/>
      <point x="167" y="537"/>
      <point x="36" y="389"/>
      <point x="36" y="263" type="qcurve"/>
      <point x="36" y="137"/>
      <point x="167" y="-12"/>
    </contour>
    <contour>
      <point x="282" y="105" type="qcurve"/>
      <point x="194" y="105"/>
      <point x="190" y="209" type="qcurve"/>
      <point x="190" y="316" type="line"/>
      <point x="190" y="417"/>
      <point x="282" y="420" type="qcurve"/>
      <point x="371" y="420"/>
      <point x="374" y="316" type="qcurve"/>
      <point x="374" y="209" type="line"/>
      <point x="374" y="109"/>
    </contour>
    <contour>
      <point x="298" y="579" type="line"/>
      <point x="432" y="755" type="line"/>
      <point x="309" y="816" type="line"/>
      <point x="210" y="622" type="line"/>
    </contour>
  </outline>
</glyph>
<glyph name="otilde" format="2">
  <advance width="564"/>
  <unicode hex="00F5"/>
  <outline>
    <contour>
      <point x="358" y="601" type="qcurve" smooth="yes"/>
      <point x="335" y="601"/>
      <point x="317" y="607" type="qcurve"/>
      <point x="275" y="623" type="line"/>
      <point x="256" y="632"/>
      <point x="222" y="643"/>
      <point x="203" y="643" type="qcurve" smooth="yes"/>
      <point x="186" y="643"/>
      <point x="159" y="631"/>
      <point x="144" y="618" type="qcurve"/>
      <point x="92" y="686" type="line"/>
      <point x="133" y="750"/>
      <point x="206" y="750" type="qcurve" smooth="yes"/>
      <point x="229" y="750"/>
      <point x="247" y="744" type="qcurve"/>
      <point x="289" y="728" type="line"/>
      <point x="308" y="719"/>
      <point x="342" y="708"/>
      <point x="361" y="708" type="qcurve" smooth="yes"/>
      <point x="378" y="708"/>
      <point x="405" y="720"/>
      <point x="420" y="733" type="qcurve"/>
      <point x="472" y="665" type="line"/>
      <point x="431" y="601"/>
    </contour>
    <contour>
      <point x="282" y="-12" type="qcurve" smooth="yes"/>
      <point x="167" y="-12"/>
      <point x="36" y="137"/>
      <point x="36" y="263" type="qcurve" smooth="yes"/>
      <point x="36" y="389"/>
      <point x="167" y="537"/>
      <point x="282" y="537" type="qcurve" smooth="yes"/>
      <point x="398" y="537"/>
      <point x="528" y="389"/>
      <point x="528" y="263" type="qcurve" smooth="yes"/>
      <point x="528" y="137"/>
      <point x="398" y="-12"/>
    </contour>
    <contour>
      <point x="282" y="105" type="qcurve"/>
      <point x="374" y="109"/>
      <point x="374" y="209" type="qcurve" smooth="yes"/>
      <point x="374" y="316" type="line"/>
      <point x="371" y="420"/>
      <point x="282" y="420" type="qcurve"/>
      <point x="190" y="417"/>
      <point x="190" y="316" type="qcurve" smooth="yes"/>
      <point x="190" y="209" type="line"/>
      <point x="194" y="105"/>
    </contour>
  </outline>
</glyph>
<glyph name="odieresis" format="2">
  <advance width="564"/>
  <unicode hex="00F6"/>
  <outline>
    <contour>
      <point x="282" y="-12" type="qcurve"/>
      <point x="398" y="-12"/>
      <point x="528" y="137"/>
      <point x="528" y="263" type="qcurve"/>
      <point x="528" y="389"/>
      <point x="398" y="537"/>
      <point x="282" y="537" type="qcurve"/>
      <point x="167" y="537"/>
      <point x="36" y="389"/>
      <point x="36" y="263" type="qcurve"/>
      <point x="36" y="137"/>
      <point x="167" y="-12"/>
    </contour>
    <contour>
      <point x="282" y="105" type="qcurve"/>
      <point x="194" y="105"/>
      <point x="190" y="209" type="qcurve"/>
      <point x="190" y="316" type="line"/>
      <point x="190" y="417"/>
      <point x="282" y="420" type="qcurve"/>
      <point x="371" y="420"/>
      <point x="374" y="316" type="qcurve"/>
      <point x="374" y="209" type="line"/>
      <point x="374" y="109"/>
    </contour>
    <contour>
      <point x="172" y="600" type="qcurve"/>
      <point x="252" y="600"/>
      <point x="252" y="663" type="qcurve"/>
      <point x="252" y="688" type="line"/>
      <point x="252" y="751"/>
      <point x="172" y="751" type="qcurve"/>
      <point x="92" y="751"/>
      <point x="92" y="688" type="qcurve"/>
      <point x="92" y="663" type="line"/>
      <point x="92" y="600"/>
    </contour>
    <contour>
      <point x="392" y="600" type="qcurve"/>
      <point x="472" y="600"/>
      <point x="472" y="663" type="qcurve"/>
      <point x="472" y="688" type="line"/>
      <point x="472" y="751"/>
      <point x="392" y="751" type="qcurve"/>
      <point x="312" y="751"/>
      <point x="312" y="688" type="qcurve"/>
      <point x="312" y="663" type="line"/>
      <point x="312" y="600"/>
    </contour>
  </outline>
</glyph>
<glyph name="divide" format="2">
  <advance width="600"/>
  <unicode hex="00F7"/>
  <outline>
    <contour>
      <point x="532" y="247" type="line"/>
      <point x="532" y="365" type="line"/>
      <point x="67" y="365" type="line"/>
      <point x="67" y="247" type="line"/>
    </contour>
    <contour>
      <point x="300" y="28" type="qcurve"/>
      <point x="347" y="28"/>
      <point x="387" y="69"/>
      <point x="387" y="97" type="qcurve"/>
      <point x="387" y="121" type="line"/>
      <point x="387" y="149"/>
      <point x="347" y="190"/>
      <point x="300" y="190" type="qcurve"/>
      <point x="253" y="190"/>
      <point x="213" y="149"/>
      <point x="213" y="121" type="qcurve"/>
      <point x="213" y="97" type="line"/>
      <point x="213" y="69"/>
      <point x="253" y="28"/>
    </contour>
    <contour>
      <point x="300" y="420" type="qcurve"/>
      <point x="347" y="420"/>
      <point x="387" y="461"/>
      <point x="387" y="489" type="qcurve"/>
      <point x="387" y="513" type="line"/>
      <point x="387" y="541"/>
      <point x="347" y="582"/>
      <point x="300" y="582" type="qcurve"/>
      <point x="253" y="582"/>
      <point x="213" y="541"/>
      <point x="213" y="513" type="qcurve"/>
      <point x="213" y="489" type="line"/>
      <point x="213" y="461"/>
      <point x="253" y="420"/>
    </contour>
  </outline>
</glyph>
<glyph name="ugrave" format="2">
  <advance width="596"/>
  <unicode hex="00F9"/>
  <outline>
    <contour>
      <point x="146" y="755" type="line"/>
      <point x="269" y="816" type="line"/>
      <point x="368" y="622" type="line"/>
      <point x="280" y="579" type="line"/>
    </contour>
    <contour>
      <point x="227" y="-12" type="qcurve" smooth="yes"/>
      <point x="146" y="-12"/>
      <point x="63" y="95"/>
      <point x="63" y="195" type="qcurve" smooth="yes"/>
      <point x="63" y="525" type="line"/>
      <point x="211" y="525" type="line"/>
      <point x="211" y="208" type="line" smooth="yes"/>
      <point x="211" y="160"/>
      <point x="245" y="108"/>
      <point x="286" y="108" type="qcurve" smooth="yes"/>
      <point x="321" y="108"/>
      <point x="379" y="147"/>
      <point x="379" y="184" type="qcurve" smooth="yes"/>
      <point x="379" y="525" type="line"/>
      <point x="527" y="525" type="line"/>
      <point x="527" y="0" type="line"/>
      <point x="379" y="0" type="line"/>
      <point x="379" y="88" type="line"/>
      <point x="374" y="88" type="line"/>
      <point x="361" y="47"/>
      <point x="292" y="-12"/>
    </contour>
  </outline>
</glyph>
<glyph name="uacute" format="2">
  <advance width="596"/>
  <unicode hex="00FA"/>
  <outline>
    <contour>
      <point x="224" y="622" type="line"/>
      <point x="323" y="816" type="line"/>
      <point x="446" y="755" type="line"/>
      <point x="312" y="579" type="line"/>
    </contour>
    <contour>
      <point x="227" y="-12" type="qcurve" smooth="yes"/>
      <point x="146" y="-12"/>
      <point x="63" y="95"/>
      <point x="63" y="195" type="qcurve" smooth="yes"/>
      <point x="63" y="525" type="line"/>
      <point x="211" y="525" type="line"/>
      <point x="211" y="208" type="line" smooth="yes"/>
      <point x="211" y="160"/>
      <point x="245" y="108"/>
      <point x="286" y="108" type="qcurve" smooth="yes"/>
      <point x="321" y="108"/>
      <point x="379" y="147"/>
      <point x="379" y="184" type="qcurve" smooth="yes"/>
      <point x="379" y="525" type="line"/>
      <point x="527" y="525" type="line"/>
      <point x="527" y="0" type="line"/>
      <point x="379" y="0" type="line"/>
      <point x="379" y="88" type="line"/>
      <point x="374" y="88" type="line"/>
      <point x="361" y="47"/>
      <point x="292" y="-12"/>
    </contour>
  </outline>
</glyph>
<glyph name="ucircumflex" format="2">
  <advance width="596"/>
  <unicode hex="00FB"/>
  <outline>
    <contour>
      <point x="227" y="-12" type="qcurve"/>
      <point x="292" y="-12"/>
      <point x="361" y="47"/>
      <point x="374" y="88" type="qcurve"/>
      <point x="379" y="88" type="line"/>
      <point x="379" y="0" type="line"/>
      <point x="527" y="0" type="line"/>
      <point x="527" y="525" type="line"/>
      <point x="379" y="525" type="line"/>
      <point x="379" y="184" type="line"/>
      <point x="379" y="147"/>
      <point x="321" y="108"/>
      <point x="286" y="108" type="qcurve"/>
      <point x="245" y="108"/>
      <point x="211" y="160"/>
      <point x="211" y="208" type="qcurve"/>
      <point x="211" y="525" type="line"/>
      <point x="63" y="525" type="line"/>
      <point x="63" y="195" type="line"/>
      <point x="63" y="95"/>
      <point x="146" y="-12"/>
    </contour>
    <contour>
      <point x="417" y="578" type="line"/>
      <point x="490" y="636" type="line"/>
      <point x="358" y="795" type="line"/>
      <point x="234" y="795" type="line"/>
      <point x="102" y="636" type="line"/>
      <point x="175" y="578" type="line"/>
      <point x="296" y="693" type="line"/>
    </contour>
  </outline>
</glyph>
<glyph name="udieresis" format="2">
  <advance width="596"/>
  <unicode hex="00FC"/>
  <outline>
    <contour>
      <point x="227" y="-12" type="qcurve"/>
      <point x="292" y="-12"/>
      <point x="361" y="47"/>
      <point x="374" y="88" type="qcurve"/>
      <point x="379" y="88" type="line"/>
      <point x="379" y="0" type="line"/>
      <point x="527" y="0" type="line"/>
      <point x="527" y="525" type="line"/>
      <point x="379" y="525" type="line"/>
      <point x="379" y="184" type="line"/>
      <point x="379" y="147"/>
      <point x="321" y="108"/>
      <point x="286" y="108" type="qcurve"/>
      <point x="245" y="108"/>
      <point x="211" y="160"/>
      <point x="211" y="208" type="qcurve"/>
      <point x="211" y="525" type="line"/>
      <point x="63" y="525" type="line"/>
      <point x="63" y="195" type="line"/>
      <point x="63" y="95"/>
      <point x="146" y="-12"/>
    </contour>
    <contour>
      <point x="186" y="600" type="qcurve"/>
      <point x="266" y="600"/>
      <point x="266" y="663" type="qcurve"/>
      <point x="266" y="688" type="line"/>
      <point x="266" y="751"/>
      <point x="186" y="751" type="qcurve"/>
      <point x="106" y="751"/>
      <point x="106" y="688" type="qcurve"/>
      <point x="106" y="663" type="line"/>
      <point x="106" y="600"/>
    </contour>
    <contour>
      <point x="406" y="600" type="qcurve"/>
      <point x="486" y="600"/>
      <point x="486" y="663" type="qcurve"/>
      <point x="486" y="688" type="line"/>
      <point x="486" y="751"/>
      <point x="406" y="751" type="qcurve"/>
      <point x="326" y="751"/>
      <point x="326" y="688" type="qcurve"/>
      <point x="326" y="663" type="line"/>
      <point x="326" y="600"/>
    </contour>
  </outline>
</glyph>
<glyph name="Aogonek" format="2">
  <advance width="685"/>
  <unicode hex="0104"/>
  <outline>
    <contour>
      <point x="575" y="-212" type="qcurve"/>
      <point x="671" y="-212"/>
      <point x="697" y="-161" type="qcurve"/>
      <point x="644" y="-110" type="line"/>
      <point x="619" y="-138"/>
      <point x="589" y="-138" type="qcurve"/>
      <point x="551" y="-138"/>
      <point x="551" y="-105" type="qcurve"/>
      <point x="551" y="-86"/>
      <point x="593" y="-44"/>
      <point x="665" y="0" type="qcurve"/>
      <point x="438" y="698" type="line"/>
      <point x="250" y="698" type="line"/>
      <point x="20" y="0" type="line"/>
      <point x="174" y="0" type="line"/>
      <point x="224" y="166" type="line"/>
      <point x="457" y="166" type="line"/>
      <point x="507" y="0" type="line"/>
      <point x="569" y="0" type="line"/>
      <point x="570" y="-4" type="line"/>
      <point x="513" y="-29"/>
      <point x="451" y="-85"/>
      <point x="451" y="-127" type="qcurve"/>
      <point x="451" y="-175"/>
      <point x="526" y="-212"/>
    </contour>
    <contour>
      <point x="420" y="295" type="line"/>
      <point x="260" y="295" type="line"/>
      <point x="337" y="560" type="line"/>
      <point x="342" y="560" type="line"/>
    </contour>
  </outline>
</glyph>
<glyph name="aogonek" format="2">
  <advance width="553"/>
  <unicode hex="0105"/>
  <outline>
    <contour>
      <point x="400" y="-212" type="qcurve" smooth="yes"/>
      <point x="351" y="-212"/>
      <point x="276" y="-175"/>
      <point x="276" y="-127" type="qcurve" smooth="yes"/>
      <point x="276" y="-85"/>
      <point x="338" y="-29"/>
      <point x="395" y="-4" type="qcurve"/>
      <point x="394" y="0" type="line"/>
      <point x="357" y="0" type="line"/>
      <point x="357" y="92" type="line"/>
      <point x="351" y="92" type="line"/>
      <point x="338" y="41"/>
      <point x="257" y="-12"/>
      <point x="197" y="-12" type="qcurve" smooth="yes"/>
      <point x="118" y="-12"/>
      <point x="34" y="72"/>
      <point x="34" y="141" type="qcurve" smooth="yes"/>
      <point x="34" y="224"/>
      <point x="155" y="305"/>
      <point x="259" y="305" type="qcurve" smooth="yes"/>
      <point x="342" y="305" type="line"/>
      <point x="342" y="338" type="line" smooth="yes"/>
      <point x="342" y="421"/>
      <point x="255" y="421" type="qcurve" smooth="yes"/>
      <point x="211" y="421"/>
      <point x="159" y="384"/>
      <point x="142" y="359" type="qcurve"/>
      <point x="54" y="437" type="line"/>
      <point x="85" y="485"/>
      <point x="183" y="537"/>
      <point x="266" y="537" type="qcurve" smooth="yes"/>
      <point x="490" y="537"/>
      <point x="490" y="345" type="qcurve" smooth="yes"/>
      <point x="490" y="0" type="line"/>
      <point x="418" y="-44"/>
      <point x="376" y="-86"/>
      <point x="376" y="-105" type="qcurve" smooth="yes"/>
      <point x="376" y="-138"/>
      <point x="414" y="-138" type="qcurve" smooth="yes"/>
      <point x="444" y="-138"/>
      <point x="469" y="-110" type="qcurve"/>
      <point x="522" y="-161" type="line"/>
      <point x="496" y="-212"/>
    </contour>
    <contour>
      <point x="252" y="91" type="qcurve" smooth="yes"/>
      <point x="289" y="91"/>
      <point x="342" y="123"/>
      <point x="342" y="159" type="qcurve" smooth="yes"/>
      <point x="342" y="221" type="line"/>
      <point x="270" y="221" type="line" smooth="yes"/>
      <point x="183" y="221"/>
      <point x="183" y="162" type="qcurve" smooth="yes"/>
      <point x="183" y="147" type="line" smooth="yes"/>
      <point x="183" y="91"/>
    </contour>
  </outline>
</glyph>
<glyph name="Cacute" format="2">
  <advance width="651"/>
  <unicode hex="0106"/>
  <outline>
    <contour>
      <point x="359" y="-12" type="qcurve"/>
      <point x="456" y="-12"/>
      <point x="584" y="74"/>
      <point x="622" y="155" type="qcurve"/>
      <point x="498" y="227" type="line"/>
      <point x="483" y="183"/>
      <point x="415" y="123"/>
      <point x="359" y="123" type="qcurve"/>
      <point x="292" y="123"/>
      <point x="211" y="210"/>
      <point x="211" y="293" type="qcurve"/>
      <point x="211" y="405" type="line"/>
      <point x="211" y="488"/>
      <point x="292" y="575"/>
      <point x="359" y="575" type="qcurve"/>
      <point x="416" y="575"/>
      <point x="476" y="523"/>
      <point x="489" y="478" type="qcurve"/>
      <point x="620" y="546" type="line"/>
      <point x="582" y="630"/>
      <point x="456" y="710"/>
      <point x="359" y="710" type="qcurve"/>
      <point x="217" y="710"/>
      <point x="50" y="520"/>
      <point x="50" y="344" type="qcurve"/>
      <point x="50" y="171"/>
      <point x="217" y="-12"/>
    </contour>
    <contour>
      <point x="371" y="740" type="line"/>
      <point x="505" y="916" type="line"/>
      <point x="382" y="977" type="line"/>
      <point x="283" y="783" type="line"/>
    </contour>
  </outline>
</glyph>
<glyph name="ccircumflex" format="2">
  <advance width="517"/>
  <unicode hex="0109"/>
  <outline>
    <contour>
      <point x="281" y="-12" type="qcurve"/>
      <point x="442" y="-12"/>
      <point x="494" y="133" type="qcurve"/>
      <point x="379" y="183" type="line"/>
      <point x="369" y="150"/>
      <point x="325" y="104"/>
      <point x="281" y="104" type="qcurve"/>
      <point x="236" y="104"/>
      <point x="190" y="163"/>
      <point x="190" y="213" type="qcurve"/>
      <point x="190" y="311" type="line"/>
      <point x="190" y="361"/>
      <point x="236" y="420"/>
      <point x="281" y="420" type="qcurve"/>
      <point x="320" y="420"/>
      <point x="364" y="379"/>
      <point x="371" y="348" type="qcurve"/>
      <point x="491" y="400" type="line"/>
      <point x="442" y="537"/>
      <point x="281" y="537" type="qcurve"/>
      <point x="163" y="537"/>
      <point x="36" y="389"/>
      <point x="36" y="263" type="qcurve"/>
      <point x="36" y="137"/>
      <point x="163" y="-12"/>
    </contour>
    <contour>
      <point x="396" y="578" type="line"/>
      <point x="469" y="636" type="line"/>
      <point x="337" y="795" type="line"/>
      <point x="213" y="795" type="line"/>
      <point x="81" y="636" type="line"/>
      <point x="154" y="578" type="line"/>
      <point x="275" y="693" type="line"/>
    </contour>
  </outline>
</glyph>
<glyph name="cdotaccent" format="2">
  <advance width="517"/>
  <unicode hex="010B"/>
  <outline>
    <contour>
      <point x="275" y="591" type="qcurve" smooth="yes"/>
      <point x="186" y="591"/>
      <point x="186" y="661" type="qcurve" smooth="yes"/>
      <point x="186" y="690" type="line" smooth="yes"/>
      <point x="186" y="760"/>
      <point x="275" y="760" type="qcurve" smooth="yes"/>
      <point x="364" y="760"/>
      <point x="364" y="690" type="qcurve" smooth="yes"/>
      <point x="364" y="661" type="line" smooth="yes"/>
      <point x="364" y="591"/>
    </contour>
    <contour>
      <point x="281" y="-12" type="qcurve" smooth="yes"/>
      <point x="163" y="-12"/>
      <point x="36" y="137"/>
      <point x="36" y="263" type="qcurve" smooth="yes"/>
      <point x="36" y="389"/>
      <point x="163" y="537"/>
      <point x="281" y="537" type="qcurve" smooth="yes"/>
      <point x="442" y="537"/>
      <point x="491" y="400" type="qcurve"/>
      <point x="371" y="348" type="line"/>
      <point x="364" y="379"/>
      <point x="320" y="420"/>
      <point x="281" y="420" type="qcurve" smooth="yes"/>
      <point x="236" y="420"/>
      <point x="190" y="361"/>
      <point x="190" y="311" type="qcurve" smooth="yes"/>
      <point x="190" y="213" type="line" smooth="yes"/>
      <point x="190" y="163"/>
      <point x="236" y="104"/>
      <point x="281" y="104" type="qcurve" smooth="yes"/>
      <point x="325" y="104"/>
      <point x="369" y="150"/>
      <point x="379" y="183" type="qcurve"/>
      <point x="494" y="133" type="line"/>
      <point x="442" y="-12"/>
    </contour>
  </outline>
</glyph>
<glyph name="Dcaron" format="2">
  <advance width="697"/>
  <unicode hex="010E"/>
  <outline>
    <contour>
      <point x="340" y="0" type="line"/>
      <point x="478" y="0"/>
      <point x="563" y="88" type="qcurve"/>
      <point x="647" y="179"/>
      <point x="647" y="349" type="qcurve"/>
      <point x="647" y="520"/>
      <point x="563" y="611" type="qcurve"/>
      <point x="478" y="698"/>
      <point x="340" y="698" type="qcurve"/>
      <point x="77" y="698" type="line"/>
      <point x="77" y="0" type="line"/>
    </contour>
    <contour>
      <point x="340" y="135" type="qcurve"/>
      <point x="229" y="135" type="line"/>
      <point x="229" y="563" type="line"/>
      <point x="340" y="563" type="line"/>
      <point x="486" y="563"/>
      <point x="486" y="403" type="qcurve"/>
      <point x="486" y="295" type="line"/>
      <point x="486" y="135"/>
    </contour>
    <contour>
      <point x="385" y="748" type="line"/>
      <point x="517" y="907" type="line"/>
      <point x="444" y="965" type="line"/>
      <point x="323" y="850" type="line"/>
      <point x="202" y="965" type="line"/>
      <point x="129" y="907" type="line"/>
      <point x="261" y="748" type="line"/>
    </contour>
  </outline>
</glyph>
<glyph name="Ebreve" format="2">
  <advance width="607"/>
  <unicode hex="0114"/>
  <outline>
    <contour>
      <point x="552" y="0" type="line"/>
      <point x="552" y="135" type="line"/>
      <point x="229" y="135" type="line"/>
      <point x="229" y="286" type="line"/>
      <point x="506" y="286" type="line"/>
      <point x="506" y="420" type="line"/>
      <point x="229" y="420" type="line"/>
      <point x="229" y="563" type="line"/>
      <point x="552" y="563" type="line"/>
      <point x="552" y="698" type="line"/>
      <point x="77" y="698" type="line"/>
      <point x="77" y="0" type="line"/>
    </contour>
    <contour>
      <point x="315" y="740" type="qcurve"/>
      <point x="392" y="740"/>
      <point x="444" y="798" type="qcurve"/>
      <point x="488" y="852"/>
      <point x="505" y="910" type="qcurve"/>
      <point x="425" y="952" type="line"/>
      <point x="406" y="920" type="line"/>
      <point x="385" y="883"/>
      <point x="343" y="843"/>
      <point x="315" y="843" type="qcurve"/>
      <point x="287" y="843"/>
      <point x="246" y="883"/>
      <point x="225" y="920" type="qcurve"/>
      <point x="206" y="952" type="line"/>
      <point x="125" y="910" type="line"/>
      <point x="142" y="852"/>
      <point x="185" y="798" type="qcurve"/>
      <point x="236" y="740"/>
    </contour>
  </outline>
</glyph>
<glyph name="Eogonek" format="2">
  <advance width="607"/>
  <unicode hex="0118"/>
  <outline>
    <contour>
      <point x="463" y="-212" type="qcurve" smooth="yes"/>
      <point x="414" y="-212"/>
      <point x="339" y="-175"/>
      <point x="339" y="-127" type="qcurve" smooth="yes"/>
      <point x="339" y="-85"/>
      <point x="401" y="-29"/>
      <point x="458" y="-4" type="qcurve"/>
      <point x="457" y="0" type="line"/>
      <point x="77" y="0" type="line"/>
      <point x="77" y="698" type="line"/>
      <point x="552" y="698" type="line"/>
      <point x="552" y="563" type="line"/>
      <point x="229" y="563" type="line"/>
      <point x="229" y="420" type="line"/>
      <point x="506" y="420" type="line"/>
      <point x="506" y="286" type="line"/>
      <point x="229" y="286" type="line"/>
      <point x="229" y="135" type="line"/>
      <point x="552" y="135" type="line"/>
      <point x="552" y="0" type="line"/>
      <point x="481" y="-44"/>
      <point x="439" y="-86"/>
      <point x="439" y="-105" type="qcurve" smooth="yes"/>
      <point x="439" y="-138"/>
      <point x="477" y="-138" type="qcurve" smooth="yes"/>
      <point x="507" y="-138"/>
      <point x="532" y="-110" type="qcurve"/>
      <point x="585" y="-161" type="line"/>
      <point x="559" y="-212"/>
    </contour>
  </outline>
</glyph>
<glyph name="eogonek" format="2">
  <advance width="562"/>
  <unicode hex="0119"/>
  <outline>
    <contour>
      <point x="336" y="-212" type="qcurve" smooth="yes"/>
      <point x="288" y="-212"/>
      <point x="214" y="-176"/>
      <point x="214" y="-128" type="qcurve" smooth="yes"/>
      <point x="214" y="-86"/>
      <point x="276" y="-34"/>
      <point x="328" y="-12" type="qcurve"/>
      <point x="327" y="-8" type="line"/>
      <point x="301" y="-12"/>
      <point x="283" y="-12" type="qcurve" smooth="yes"/>
      <point x="165" y="-12"/>
      <point x="36" y="137"/>
      <point x="36" y="263" type="qcurve" smooth="yes"/>
      <point x="36" y="388"/>
      <point x="164" y="537"/>
      <point x="282" y="537" type="qcurve" smooth="yes"/>
      <point x="405" y="537"/>
      <point x="470" y="456" type="qcurve"/>
      <point x="526" y="384"/>
      <point x="526" y="269" type="qcurve" smooth="yes"/>
      <point x="526" y="225" type="line"/>
      <point x="189" y="225" type="line"/>
      <point x="189" y="217" type="line" smooth="yes"/>
      <point x="189" y="165"/>
      <point x="246" y="104"/>
      <point x="307" y="104" type="qcurve" smooth="yes"/>
      <point x="379" y="104"/>
      <point x="435" y="167" type="qcurve"/>
      <point x="509" y="75" type="line"/>
      <point x="499" y="62"/>
      <point x="447" y="23"/>
      <point x="359" y="-42"/>
      <point x="313" y="-83"/>
      <point x="313" y="-106" type="qcurve" smooth="yes"/>
      <point x="313" y="-123"/>
      <point x="336" y="-138"/>
      <point x="351" y="-138" type="qcurve" smooth="yes"/>
      <point x="380" y="-138"/>
      <point x="405" y="-110" type="qcurve"/>
      <point x="457" y="-161" type="line"/>
      <point x="432" y="-212"/>
    </contour>
    <contour>
      <point x="373" y="321" type="line" smooth="yes"/>
      <point x="373" y="369"/>
      <point x="330" y="428"/>
      <point x="285" y="428" type="qcurve" smooth="yes"/>
      <point x="240" y="428"/>
      <point x="189" y="369"/>
      <point x="189" y="320" type="qcurve" smooth="yes"/>
      <point x="189" y="312" type="line"/>
      <point x="373" y="312" type="line"/>
    </contour>
  </outline>
</glyph>
<glyph name="Gbreve" format="2">
  <advance width="681"/>
  <unicode hex="011E"/>
  <outline>
    <contour>
      <point x="341" y="740" type="qcurve" smooth="yes"/>
      <point x="297" y="740"/>
      <point x="233" y="772"/>
      <point x="189" y="824"/>
      <point x="160" y="883"/>
      <point x="151" y="910" type="qcurve"/>
      <point x="232" y="952" type="line"/>
      <point x="251" y="920" type="line" smooth="yes"/>
      <point x="273" y="883"/>
      <point x="313" y="843"/>
      <point x="341" y="843" type="qcurve" smooth="yes"/>
      <point x="369" y="843"/>
      <point x="410" y="883"/>
      <point x="432" y="920" type="qcurve" smooth="yes"/>
      <point x="451" y="952" type="line"/>
      <point x="531" y="910" type="line"/>
      <point x="519" y="874"/>
      <point x="473" y="795"/>
      <point x="398" y="740"/>
    </contour>
    <contour>
      <point x="39" y="349" type="qcurve" smooth="yes"/>
      <point x="39" y="468"/>
      <point x="122" y="630"/>
      <point x="266" y="710"/>
      <point x="356" y="710" type="qcurve" smooth="yes"/>
      <point x="418" y="710"/>
      <point x="508" y="679"/>
      <point x="572" y="629"/>
      <point x="613" y="572"/>
      <point x="630" y="541" type="qcurve"/>
      <point x="495" y="479" type="line"/>
      <point x="486" y="507"/>
      <point x="452" y="549"/>
      <point x="398" y="577"/>
      <point x="360" y="577" type="qcurve" smooth="yes"/>
      <point x="311" y="577"/>
      <point x="245" y="532"/>
      <point x="211" y="455"/>
      <point x="211" y="409" type="qcurve" smooth="yes"/>
      <point x="211" y="290" type="line" smooth="yes"/>
      <point x="211" y="240"/>
      <point x="237" y="174"/>
      <point x="278" y="137"/>
      <point x="328" y="121"/>
      <point x="353" y="121" type="qcurve" smooth="yes"/>
      <point x="389" y="121"/>
      <point x="447" y="147"/>
      <point x="484" y="199"/>
      <point x="484" y="241" type="qcurve" smooth="yes"/>
      <point x="484" y="262" type="line"/>
      <point x="319" y="262" type="line"/>
      <point x="319" y="395" type="line"/>
      <point x="640" y="395" type="line"/>
      <point x="640" y="246" type="line" smooth="yes"/>
      <point x="640" y="175"/>
      <point x="582" y="77"/>
      <point x="490" y="16"/>
      <point x="387" y="-12"/>
      <point x="340" y="-12" type="qcurve" smooth="yes"/>
      <point x="282" y="-12"/>
      <point x="187" y="23"/>
      <point x="115" y="89"/>
      <point x="65" y="177"/>
      <point x="39" y="287"/>
    </contour>
  </outline>
</glyph>
<glyph name="Gcedilla" format="2">
  <advance width="681"/>
  <unicode hex="0122"/>
  <outline>
    <contour>
      <point x="331" y="-42" type="qcurve"/>
      <point x="364" y="-42"/>
      <point x="401" y="-74"/>
      <point x="401" y="-104" type="qcurve"/>
      <point x="401" y="-118" type="line"/>
      <point x="401" y="-164"/>
      <point x="363" y="-250"/>
      <point x="334" y="-275" type="qcurve"/>
      <point x="249" y="-275" type="line"/>
      <point x="275" y="-253"/>
      <point x="304" y="-206"/>
      <point x="311" y="-176" type="qcurve"/>
      <point x="283" y="-174"/>
      <point x="261" y="-137"/>
      <point x="261" y="-115" type="qcurve"/>
      <point x="261" y="-104" type="line"/>
      <point x="261" y="-74"/>
      <point x="298" y="-42"/>
    </contour>
    <contour>
      <point x="39" y="349" type="qcurve"/>
      <point x="39" y="468"/>
      <point x="122" y="630"/>
      <point x="266" y="710"/>
      <point x="356" y="710" type="qcurve"/>
      <point x="418" y="710"/>
      <point x="508" y="679"/>
      <point x="572" y="629"/>
      <point x="613" y="572"/>
      <point x="630" y="541" type="qcurve"/>
      <point x="495" y="479" type="line"/>
      <point x="486" y="507"/>
      <point x="452" y="549"/>
      <point x="398" y="577"/>
      <point x="360" y="577" type="qcurve"/>
      <point x="311" y="577"/>
      <point x="245" y="532"/>
      <point x="211" y="455"/>
      <point x="211" y="409" type="qcurve"/>
      <point x="211" y="290" type="line"/>
      <point x="211" y="240"/>
      <point x="237" y="174"/>
      <point x="278" y="137"/>
      <point x="328" y="121"/>
      <point x="353" y="121" type="qcurve"/>
      <point x="389" y="121"/>
      <point x="447" y="147"/>
      <point x="484" y="199"/>
      <point x="484" y="241" type="qcurve"/>
      <point x="484" y="262" type="line"/>
      <point x="319" y="262" type="line"/>
      <point x="319" y="395" type="line"/>
      <point x="640" y="395" type="line"/>
      <point x="640" y="246" type="line"/>
      <point x="640" y="175"/>
      <point x="582" y="77"/>
      <point x="490" y="16"/>
      <point x="387" y="-12"/>
      <point x="340" y="-12" type="qcurve"/>
      <point x="282" y="-12"/>
      <point x="187" y="23"/>
      <point x="115" y="89"/>
      <point x="65" y="177"/>
      <point x="39" y="287"/>
    </contour>
  </outline>
</glyph>
<glyph name="Hcircumflex" format="2">
  <advance width="724"/>
  <unicode hex="0124"/>
  <outline>
    <contour>
      <point x="647" y="0" type="line"/>
      <point x="647" y="698" type="line"/>
      <point x="495" y="698" type="line"/>
      <point x="495" y="420" type="line"/>
      <point x="229" y="420" type="line"/>
      <point x="229" y="698" type="line"/>
      <point x="77" y="698" type="line"/>
      <point x="77" y="0" type="line"/>
      <point x="229" y="0" type="line"/>
      <point x="229" y="286" type="line"/>
      <point x="495" y="286" type="line"/>
      <point x="495" y="0" type="line"/>
    </contour>
    <contour>
      <point x="483" y="739" type="line"/>
      <point x="556" y="797" type="line"/>
      <point x="424" y="956" type="line"/>
      <point x="300" y="956" type="line"/>
      <point x="168" y="797" type="line"/>
      <point x="241" y="739" type="line"/>
      <point x="362" y="854" type="line"/>
    </contour>
  </outline>
</glyph>
<glyph name="hcircumflex" format="2">
  <advance width="596"/>
  <unicode hex="0125"/>
  <outline>
    <contour>
      <point x="533" y="0" type="line"/>
      <point x="533" y="329" type="line"/>
      <point x="533" y="429"/>
      <point x="450" y="537"/>
      <point x="369" y="537" type="qcurve"/>
      <point x="307" y="537"/>
      <point x="237" y="478"/>
      <point x="223" y="436" type="qcurve"/>
      <point x="217" y="436" type="line"/>
      <point x="217" y="740" type="line"/>
      <point x="69" y="740" type="line"/>
      <point x="69" y="0" type="line"/>
      <point x="217" y="0" type="line"/>
      <point x="217" y="340" type="line"/>
      <point x="217" y="378"/>
      <point x="276" y="417"/>
      <point x="312" y="417" type="qcurve"/>
      <point x="353" y="417"/>
      <point x="385" y="368"/>
      <point x="385" y="317" type="qcurve"/>
      <point x="385" y="0" type="line"/>
    </contour>
    <contour>
      <point x="265" y="736" type="line"/>
      <point x="338" y="794" type="line"/>
      <point x="206" y="953" type="line"/>
      <point x="82" y="953" type="line"/>
      <point x="-50" y="794" type="line"/>
      <point x="23" y="736" type="line"/>
      <point x="144" y="851" type="line"/>
    </contour>
  </outline>
</glyph>
<glyph name="itilde" format="2">
  <advance width="286"/>
  <unicode hex="0129"/>
  <outline>
    <contour>
      <point x="217" y="0" type="line"/>
      <point x="217" y="525" type="line"/>
      <point x="69" y="525" type="line"/>
      <point x="69" y="0" type="line"/>
    </contour>
    <contour>
      <point x="220" y="601" type="qcurve"/>
      <point x="293" y="601"/>
      <point x="334" y="665" type="qcurve"/>
      <point x="282" y="733" type="line"/>
      <point x="267" y="720"/>
      <point x="240" y="708"/>
      <point x="223" y="708" type="qcurve"/>
      <point x="204" y="708"/>
      <point x="170" y="719"/>
      <point x="151" y="728" type="qcurve"/>
      <point x="109" y="744" type="line"/>
      <point x="91" y="750"/>
      <point x="68" y="750" type="qcurve"/>
      <point x="-5" y="750"/>
      <point x="-46" y="686" type="qcurve"/>
      <point x="6" y="618" type="line"/>
      <point x="21" y="631"/>
      <point x="48" y="643"/>
      <point x="65" y="643" type="qcurve"/>
      <point x="84" y="643"/>
      <point x="118" y="632"/>
      <point x="137" y="623" type="qcurve"/>
      <point x="179" y="607" type="line"/>
      <point x="197" y="601"/>
    </contour>
  </outline>
</glyph>
<glyph name="Ibreve" format="2">
  <advance width="306"/>
  <unicode hex="012C"/>
  <outline>
    <contour>
      <point x="154" y="740" type="qcurve"/>
      <point x="231" y="740"/>
      <point x="283" y="798" type="qcurve"/>
      <point x="327" y="852"/>
      <point x="344" y="910" type="qcurve"/>
      <point x="264" y="952" type="line"/>
      <point x="245" y="920" type="line"/>
      <point x="224" y="883"/>
      <point x="182" y="843"/>
      <point x="154" y="843" type="qcurve"/>
      <point x="126" y="843"/>
      <point x="85" y="883"/>
      <point x="64" y="920" type="qcurve"/>
      <point x="45" y="952" type="line"/>
      <point x="-36" y="910" type="line"/>
      <point x="-19" y="852"/>
      <point x="24" y="798" type="qcurve"/>
      <point x="75" y="740"/>
    </contour>
    <contour>
      <point x="229" y="0" type="line"/>
      <point x="77" y="0" type="line"/>
      <point x="77" y="698" type="line"/>
      <point x="229" y="698" type="line"/>
    </contour>
  </outline>
</glyph>
<glyph name="Iogonek" format="2">
  <advance width="306"/>
  <unicode hex="012E"/>
  <outline>
    <contour>
      <point x="139" y="-212" type="qcurve"/>
      <point x="235" y="-212"/>
      <point x="261" y="-161" type="qcurve"/>
      <point x="208" y="-110" type="line"/>
      <point x="183" y="-138"/>
      <point x="153" y="-138" type="qcurve"/>
      <point x="115" y="-138"/>
      <point x="115" y="-105" type="qcurve"/>
      <point x="115" y="-86"/>
      <point x="157" y="-44"/>
      <point x="229" y="0" type="qcurve"/>
      <point x="229" y="698" type="line"/>
      <point x="77" y="698" type="line"/>
      <point x="77" y="0" type="line"/>
      <point x="133" y="0" type="line"/>
      <point x="134" y="-4" type="line"/>
      <point x="77" y="-29"/>
      <point x="15" y="-85"/>
      <point x="15" y="-127" type="qcurve"/>
      <point x="15" y="-175"/>
      <point x="90" y="-212"/>
    </contour>
  </outline>
</glyph>
<glyph name="iogonek" format="2">
  <advance width="286"/>
  <unicode hex="012F"/>
  <outline>
    <contour>
      <point x="127" y="-212" type="qcurve"/>
      <point x="223" y="-212"/>
      <point x="249" y="-161" type="qcurve"/>
      <point x="196" y="-110" type="line"/>
      <point x="171" y="-138"/>
      <point x="141" y="-138" type="qcurve"/>
      <point x="103" y="-138"/>
      <point x="103" y="-105" type="qcurve"/>
      <point x="103" y="-86"/>
      <point x="145" y="-44"/>
      <point x="217" y="0" type="qcurve"/>
      <point x="217" y="525" type="line"/>
      <point x="69" y="525" type="line"/>
      <point x="69" y="0" type="line"/>
      <point x="121" y="0" type="line"/>
      <point x="122" y="-4" type="line"/>
      <point x="65" y="-29"/>
      <point x="3" y="-85"/>
      <point x="3" y="-127" type="qcurve"/>
      <point x="3" y="-175"/>
      <point x="78" y="-212"/>
    </contour>
    <contour>
      <point x="143" y="581" type="qcurve"/>
      <point x="188" y="581"/>
      <point x="229" y="622"/>
      <point x="229" y="654" type="qcurve"/>
      <point x="229" y="676" type="line"/>
      <point x="229" y="708"/>
      <point x="188" y="749"/>
      <point x="143" y="749" type="qcurve"/>
      <point x="98" y="749"/>
      <point x="57" y="708"/>
      <point x="57" y="676" type="qcurve"/>
      <point x="57" y="654" type="line"/>
      <point x="57" y="622"/>
      <point x="98" y="581"/>
    </contour>
  </outline>
</glyph>
<glyph name="Idotaccent" format="2">
  <advance width="306"/>
  <unicode hex="0130"/>
  <outline>
    <contour>
      <point x="154" y="752" type="qcurve"/>
      <point x="243" y="752"/>
      <point x="243" y="822" type="qcurve"/>
      <point x="243" y="851" type="line"/>
      <point x="243" y="921"/>
      <point x="154" y="921" type="qcurve"/>
      <point x="65" y="921"/>
      <point x="65" y="851" type="qcurve"/>
      <point x="65" y="822" type="line"/>
      <point x="65" y="752"/>
    </contour>
    <contour>
      <point x="229" y="0" type="line"/>
      <point x="77" y="0" type="line"/>
      <point x="77" y="698" type="line"/>
      <point x="229" y="698" type="line"/>
    </contour>
  </outline>
</glyph>
<glyph name="ij" format="2">
  <advance width="566"/>
  <unicode hex="0133"/>
  <outline>
    <contour>
      <point x="143" y="581" type="qcurve"/>
      <point x="188" y="581"/>
      <point x="229" y="622"/>
      <point x="229" y="654" type="qcurve"/>
      <point x="229" y="676" type="line"/>
      <point x="229" y="708"/>
      <point x="188" y="749"/>
      <point x="143" y="749" type="qcurve"/>
      <point x="98" y="749"/>
      <point x="57" y="708"/>
      <point x="57" y="676" type="qcurve"/>
      <point x="57" y="654" type="line"/>
      <point x="57" y="622"/>
      <point x="98" y="581"/>
    </contour>
    <contour>
      <point x="217" y="0" type="line"/>
      <point x="217" y="525" type="line"/>
      <point x="69" y="525" type="line"/>
      <point x="69" y="0" type="line"/>
    </contour>
    <contour>
      <point x="349" y="-200" type="line"/>
      <point x="427" y="-200"/>
      <point x="497" y="-126"/>
      <point x="497" y="-56" type="qcurve"/>
      <point x="497" y="525" type="line"/>
      <point x="349" y="525" type="line"/>
      <point x="349" y="-85" type="line"/>
      <point x="271" y="-85" type="line"/>
      <point x="271" y="-200" type="line"/>
    </contour>
    <contour>
      <point x="423" y="581" type="qcurve"/>
      <point x="468" y="581"/>
      <point x="509" y="622"/>
      <point x="509" y="654" type="qcurve"/>
      <point x="509" y="676" type="line"/>
      <point x="509" y="708"/>
      <point x="468" y="749"/>
      <point x="423" y="749" type="qcurve"/>
      <point x="378" y="749"/>
      <point x="337" y="708"/>
      <point x="337" y="676" type="qcurve"/>
      <point x="337" y="654" type="line"/>
      <point x="337" y="622"/>
      <point x="378" y="581"/>
    </contour>
  </outline>
</glyph>
<glyph name="Jcircumflex" format="2">
  <advance width="559"/>
  <unicode hex="0134"/>
  <outline>
    <contour>
      <point x="424" y="739" type="line"/>
      <point x="303" y="854" type="line"/>
      <point x="182" y="739" type="line"/>
      <point x="109" y="797" type="line"/>
      <point x="241" y="956" type="line"/>
      <point x="365" y="956" type="line"/>
      <point x="497" y="797" type="line"/>
    </contour>
    <contour>
      <point x="256" y="-11" type="qcurve" smooth="yes"/>
      <point x="153" y="-11"/>
      <point x="97" y="43" type="qcurve"/>
      <point x="39" y="96"/>
      <point x="25" y="185" type="qcurve"/>
      <point x="167" y="213" type="line"/>
      <point x="184" y="122"/>
      <point x="254" y="122" type="qcurve" smooth="yes"/>
      <point x="287" y="122"/>
      <point x="334" y="164"/>
      <point x="334" y="209" type="qcurve" smooth="yes"/>
      <point x="334" y="698" type="line"/>
      <point x="486" y="698" type="line"/>
      <point x="486" y="202" type="line" smooth="yes"/>
      <point x="486" y="106"/>
      <point x="364" y="-11"/>
    </contour>
  </outline>
</glyph>
<glyph name="kra" format="2">
  <advance width="577"/>
  <unicode hex="0138"/>
  <outline>
    <contour>
      <point x="577" y="0" type="line"/>
      <point x="385" y="320" type="line"/>
      <point x="571" y="525" type="line"/>
      <point x="405" y="525" type="line"/>
      <point x="292" y="396" type="line"/>
      <point x="223" y="303" type="line"/>
      <point x="217" y="303" type="line"/>
      <point x="217" y="525" type="line"/>
      <point x="69" y="525" type="line"/>
      <point x="69" y="0" type="line"/>
      <point x="217" y="0" type="line"/>
      <point x="217" y="148" type="line"/>
      <point x="282" y="219" type="line"/>
      <point x="404" y="0" type="line"/>
    </contour>
  </outline>
</glyph>
<glyph name="Lacute" format="2">
  <advance width="530"/>
  <unicode hex="0139"/>
  <outline>
    <contour>
      <point x="82" y="783" type="line"/>
      <point x="181" y="977" type="line"/>
      <point x="304" y="916" type="line"/>
      <point x="170" y="740" type="line"/>
    </contour>
    <contour>
      <point x="77" y="0" type="line"/>
      <point x="77" y="698" type="line"/>
      <point x="229" y="698" type="line"/>
      <point x="229" y="135" type="line"/>
      <point x="495" y="135" type="line"/>
      <point x="495" y="0" type="line"/>
    </contour>
  </outline>
</glyph>
<glyph name="lacute" format="2">
  <advance width="303"/>
  <unicode hex="013A"/>
  <outline>
    <contour>
      <point x="72" y="822" type="line"/>
      <point x="171" y="1016" type="line"/>
      <point x="294" y="955" type="line"/>
      <point x="160" y="779" type="line"/>
    </contour>
    <contour>
      <point x="216" y="0" type="line" smooth="yes"/>
      <point x="69" y="0"/>
      <point x="69" y="144" type="qcurve" smooth="yes"/>
      <point x="69" y="740" type="line"/>
      <point x="217" y="740" type="line"/>
      <point x="217" y="115" type="line"/>
      <point x="283" y="115" type="line"/>
      <point x="283" y="0" type="line"/>
    </contour>
  </outline>
</glyph>
<glyph name="Ldot" format="2">
  <advance width="530"/>
  <unicode hex="013F"/>
  <outline>
    <contour>
      <point x="77" y="0" type="line"/>
      <point x="77" y="698" type="line"/>
      <point x="229" y="698" type="line"/>
      <point x="229" y="135" type="line"/>
      <point x="495" y="135" type="line"/>
      <point x="495" y="0" type="line"/>
    </contour>
    <contour>
      <point x="414" y="322" type="qcurve" smooth="yes"/>
      <point x="325" y="322"/>
      <point x="325" y="392" type="qcurve" smooth="yes"/>
      <point x="325" y="421" type="line" smooth="yes"/>
      <point x="325" y="491"/>
      <point x="414" y="491" type="qcurve" smooth="yes"/>
      <point x="503" y="491"/>
      <point x="503" y="421" type="qcurve" smooth="yes"/>
      <point x="503" y="392" type="line" smooth="yes"/>
      <point x="503" y="322"/>
    </contour>
  </outline>
</glyph>
<glyph name="Lmiddledot" format="2">
  <advance width="530"/>
  <unicode hex="013F"/>
  <outline>
    <contour>
      <point x="495" y="0" type="line"/>
      <point x="495" y="135" type="line"/>
      <point x="229" y="135" type="line"/>
      <point x="229" y="698" type="line"/>
      <point x="77" y="698" type="line"/>
      <point x="77" y="0" type="line"/>
    </contour>
    <contour>
      <point x="414" y="322" type="qcurve"/>
      <point x="503" y="322"/>
      <point x="503" y="392" type="qcurve"/>
      <point x="503" y="421" type="line"/>
      <point x="503" y="491"/>
      <point x="414" y="491" type="qcurve"/>
      <point x="325" y="491"/>
      <point x="325" y="421" type="qcurve"/>
      <point x="325" y="392" type="line"/>
      <point x="325" y="322"/>
    </contour>
  </outline>
</glyph>
<glyph name="lmiddledot" format="2">
  <advance width="448"/>
  <unicode hex="0140"/>
  <outline>
    <contour>
      <point x="283" y="0" type="line"/>
      <point x="283" y="115" type="line"/>
      <point x="217" y="115" type="line"/>
      <point x="217" y="740" type="line"/>
      <point x="69" y="740" type="line"/>
      <point x="69" y="144" type="line"/>
      <point x="69" y="0"/>
      <point x="216" y="0" type="qcurve"/>
    </contour>
    <contour>
      <point x="363" y="274" type="qcurve"/>
      <point x="452" y="274"/>
      <point x="452" y="344" type="qcurve"/>
      <point x="452" y="373" type="line"/>
      <point x="452" y="443"/>
      <point x="363" y="443" type="qcurve"/>
      <point x="274" y="443"/>
      <point x="274" y="373" type="qcurve"/>
      <point x="274" y="344" type="line"/>
      <point x="274" y="274"/>
    </contour>
  </outline>
</glyph>
<glyph name="lslash" format="2">
  <advance width="314"/>
  <unicode hex="0142"/>
  <outline>
    <contour>
      <point x="222" y="0" type="line" smooth="yes"/>
      <point x="75" y="0"/>
      <point x="75" y="144" type="qcurve" smooth="yes"/>
      <point x="75" y="295" type="line"/>
      <point x="-2" y="270" type="line"/>
      <point x="-2" y="379" type="line"/>
      <point x="75" y="404" type="line"/>
      <point x="75" y="740" type="line"/>
      <point x="223" y="740" type="line"/>
      <point x="223" y="452" type="line"/>
      <point x="327" y="486" type="line"/>
      <point x="327" y="377" type="line"/>
      <point x="223" y="343" type="line"/>
      <point x="223" y="115" type="line"/>
      <point x="289" y="115" type="line"/>
      <point x="289" y="0" type="line"/>
    </contour>
  </outline>
</glyph>
<glyph name="nacute" format="2">
  <advance width="596"/>
  <unicode hex="0144"/>
  <outline>
    <contour>
      <point x="533" y="0" type="line"/>
      <point x="533" y="329" type="line"/>
      <point x="533" y="429"/>
      <point x="450" y="537"/>
      <point x="369" y="537" type="qcurve"/>
      <point x="307" y="537"/>
      <point x="237" y="478"/>
      <point x="223" y="436" type="qcurve"/>
      <point x="217" y="436" type="line"/>
      <point x="217" y="525" type="line"/>
      <point x="69" y="525" type="line"/>
      <point x="69" y="0" type="line"/>
      <point x="217" y="0" type="line"/>
      <point x="217" y="340" type="line"/>
      <point x="217" y="378"/>
      <point x="276" y="417"/>
      <point x="312" y="417" type="qcurve"/>
      <point x="353" y="417"/>
      <point x="385" y="368"/>
      <point x="385" y="317" type="qcurve"/>
      <point x="385" y="0" type="line"/>
    </contour>
    <contour>
      <point x="316" y="579" type="line"/>
      <point x="450" y="755" type="line"/>
      <point x="327" y="816" type="line"/>
      <point x="228" y="622" type="line"/>
    </contour>
  </outline>
</glyph>
<glyph name="ncedilla" format="2">
  <advance width="596"/>
  <unicode hex="0146"/>
  <outline>
    <contour>
      <point x="533" y="0" type="line"/>
      <point x="533" y="329" type="line"/>
      <point x="533" y="429"/>
      <point x="450" y="537"/>
      <point x="369" y="537" type="qcurve"/>
      <point x="307" y="537"/>
      <point x="237" y="478"/>
      <point x="223" y="436" type="qcurve"/>
      <point x="217" y="436" type="line"/>
      <point x="217" y="525" type="line"/>
      <point x="69" y="525" type="line"/>
      <point x="69" y="0" type="line"/>
      <point x="217" y="0" type="line"/>
      <point x="217" y="340" type="line"/>
      <point x="217" y="378"/>
      <point x="276" y="417"/>
      <point x="312" y="417" type="qcurve"/>
      <point x="353" y="417"/>
      <point x="385" y="368"/>
      <point x="385" y="317" type="qcurve"/>
      <point x="385" y="0" type="line"/>
    </contour>
    <contour>
      <point x="304" y="-275" type="line"/>
      <point x="334" y="-249"/>
      <point x="371" y="-164"/>
      <point x="371" y="-118" type="qcurve"/>
      <point x="371" y="-104" type="line"/>
      <point x="371" y="-44"/>
      <point x="301" y="-42" type="qcurve"/>
      <point x="235" y="-42"/>
      <point x="231" y="-104" type="qcurve"/>
      <point x="231" y="-115" type="line"/>
      <point x="231" y="-171"/>
      <point x="281" y="-176" type="qcurve"/>
      <point x="268" y="-234"/>
      <point x="219" y="-275" type="qcurve"/>
    </contour>
  </outline>
</glyph>
<glyph name="uni0146" format="2">
  <advance width="596"/>
  <unicode hex="0146"/>
  <outline>
    <contour>
      <point x="385" y="0" type="line"/>
      <point x="385" y="317" type="line" smooth="yes"/>
      <point x="385" y="368"/>
      <point x="353" y="417"/>
      <point x="312" y="417" type="qcurve" smooth="yes"/>
      <point x="276" y="417"/>
      <point x="217" y="378"/>
      <point x="217" y="340" type="qcurve" smooth="yes"/>
      <point x="217" y="0" type="line"/>
      <point x="69" y="0" type="line"/>
      <point x="69" y="525" type="line"/>
      <point x="217" y="525" type="line"/>
      <point x="217" y="436" type="line"/>
      <point x="223" y="436" type="line"/>
      <point x="237" y="478"/>
      <point x="307" y="537"/>
      <point x="369" y="537" type="qcurve" smooth="yes"/>
      <point x="450" y="537"/>
      <point x="533" y="429"/>
      <point x="533" y="329" type="qcurve" smooth="yes"/>
      <point x="533" y="0" type="line"/>
    </contour>
    <contour>
      <point x="219" y="-275" type="line"/>
      <point x="268" y="-234"/>
      <point x="281" y="-176" type="qcurve"/>
      <point x="231" y="-171"/>
      <point x="231" y="-115" type="qcurve" smooth="yes"/>
      <point x="231" y="-104" type="line"/>
      <point x="235" y="-42"/>
      <point x="301" y="-42" type="qcurve"/>
      <point x="371" y="-44"/>
      <point x="371" y="-104" type="qcurve" smooth="yes"/>
      <point x="371" y="-118" type="line" smooth="yes"/>
      <point x="371" y="-164"/>
      <point x="334" y="-249"/>
      <point x="304" y="-275" type="qcurve"/>
    </contour>
  </outline>
</glyph>
<glyph name="Ncaron" format="2">
  <advance width="724"/>
  <unicode hex="0147"/>
  <outline>
    <contour>
      <point x="299" y="748" type="line"/>
      <point x="167" y="907" type="line"/>
      <point x="240" y="965" type="line"/>
      <point x="361" y="850" type="line"/>
      <point x="482" y="965" type="line"/>
      <point x="555" y="907" type="line"/>
      <point x="423" y="748" type="line"/>
    </contour>
    <contour>
      <point x="481" y="0" type="line"/>
      <point x="290" y="330" type="line"/>
      <point x="223" y="470" type="line"/>
      <point x="220" y="470" type="line"/>
      <point x="220" y="0" type="line"/>
      <point x="77" y="0" type="line"/>
      <point x="77" y="698" type="line"/>
      <point x="243" y="698" type="line"/>
      <point x="434" y="368" type="line"/>
      <point x="501" y="228" type="line"/>
      <point x="504" y="228" type="line"/>
      <point x="504" y="698" type="line"/>
      <point x="647" y="698" type="line"/>
      <point x="647" y="0" type="line"/>
    </contour>
  </outline>
</glyph>
<glyph name="ncaron" format="2">
  <advance width="596"/>
  <unicode hex="0148"/>
  <outline>
    <contour>
      <point x="238" y="587" type="line"/>
      <point x="106" y="746" type="line"/>
      <point x="179" y="804" type="line"/>
      <point x="300" y="689" type="line"/>
      <point x="421" y="804" type="line"/>
      <point x="494" y="746" type="line"/>
      <point x="362" y="587" type="line"/>
    </contour>
    <contour>
      <point x="385" y="0" type="line"/>
      <point x="385" y="317" type="line" smooth="yes"/>
      <point x="385" y="368"/>
      <point x="353" y="417"/>
      <point x="312" y="417" type="qcurve" smooth="yes"/>
      <point x="276" y="417"/>
      <point x="217" y="378"/>
      <point x="217" y="340" type="qcurve" smooth="yes"/>
      <point x="217" y="0" type="line"/>
      <point x="69" y="0" type="line"/>
      <point x="69" y="525" type="line"/>
      <point x="217" y="525" type="line"/>
      <point x="217" y="436" type="line"/>
      <point x="223" y="436" type="line"/>
      <point x="237" y="478"/>
      <point x="307" y="537"/>
      <point x="369" y="537" type="qcurve" smooth="yes"/>
      <point x="450" y="537"/>
      <point x="533" y="429"/>
      <point x="533" y="329" type="qcurve" smooth="yes"/>
      <point x="533" y="0" type="line"/>
    </contour>
  </outline>
</glyph>
<glyph name="napostrophe" format="2">
  <advance width="886"/>
  <unicode hex="0149"/>
  <outline>
    <contour>
      <point x="129" y="450" type="line"/>
      <point x="176" y="487"/>
      <point x="238" y="599"/>
      <point x="238" y="657" type="qcurve"/>
      <point x="238" y="678" type="line"/>
      <point x="238" y="709"/>
      <point x="197" y="750"/>
      <point x="152" y="750" type="qcurve"/>
      <point x="107" y="750"/>
      <point x="66" y="709"/>
      <point x="66" y="678" type="qcurve"/>
      <point x="66" y="653" type="line"/>
      <point x="66" y="627"/>
      <point x="96" y="587"/>
      <point x="128" y="580" type="qcurve"/>
      <point x="103" y="507"/>
      <point x="36" y="450" type="qcurve"/>
    </contour>
    <contour>
      <point x="823" y="0" type="line"/>
      <point x="823" y="329" type="line"/>
      <point x="823" y="429"/>
      <point x="740" y="537"/>
      <point x="659" y="537" type="qcurve"/>
      <point x="597" y="537"/>
      <point x="527" y="478"/>
      <point x="513" y="436" type="qcurve"/>
      <point x="507" y="436" type="line"/>
      <point x="507" y="525" type="line"/>
      <point x="359" y="525" type="line"/>
      <point x="359" y="0" type="line"/>
      <point x="507" y="0" type="line"/>
      <point x="507" y="340" type="line"/>
      <point x="507" y="378"/>
      <point x="566" y="417"/>
      <point x="602" y="417" type="qcurve"/>
      <point x="643" y="417"/>
      <point x="675" y="368"/>
      <point x="675" y="317" type="qcurve"/>
      <point x="675" y="0" type="line"/>
    </contour>
  </outline>
</glyph>
<glyph name="omacron" format="2">
  <advance width="564"/>
  <unicode hex="014D"/>
  <outline>
    <contour>
      <point x="282" y="-12" type="qcurve"/>
      <point x="398" y="-12"/>
      <point x="528" y="137"/>
      <point x="528" y="263" type="qcurve"/>
      <point x="528" y="389"/>
      <point x="398" y="537"/>
      <point x="282" y="537" type="qcurve"/>
      <point x="167" y="537"/>
      <point x="36" y="389"/>
      <point x="36" y="263" type="qcurve"/>
      <point x="36" y="137"/>
      <point x="167" y="-12"/>
    </contour>
    <contour>
      <point x="282" y="105" type="qcurve"/>
      <point x="194" y="105"/>
      <point x="190" y="209" type="qcurve"/>
      <point x="190" y="316" type="line"/>
      <point x="190" y="417"/>
      <point x="282" y="420" type="qcurve"/>
      <point x="371" y="420"/>
      <point x="374" y="316" type="qcurve"/>
      <point x="374" y="209" type="line"/>
      <point x="374" y="109"/>
    </contour>
    <contour>
      <point x="435" y="624" type="line"/>
      <point x="435" y="727" type="line"/>
      <point x="129" y="727" type="line"/>
      <point x="129" y="624" type="line"/>
    </contour>
  </outline>
</glyph>
<glyph name="Obreve" format="2">
  <advance width="714"/>
  <unicode hex="014E"/>
  <outline>
    <contour>
      <point x="357" y="-12" type="qcurve"/>
      <point x="495" y="-12"/>
      <point x="580" y="80" type="qcurve"/>
      <point x="664" y="174"/>
      <point x="664" y="349" type="qcurve"/>
      <point x="664" y="523"/>
      <point x="580" y="619" type="qcurve"/>
      <point x="495" y="710"/>
      <point x="357" y="710" type="qcurve"/>
      <point x="219" y="710"/>
      <point x="134" y="619" type="qcurve"/>
      <point x="50" y="523"/>
      <point x="50" y="349" type="qcurve"/>
      <point x="50" y="174"/>
      <point x="134" y="80" type="qcurve"/>
      <point x="219" y="-12"/>
    </contour>
    <contour>
      <point x="357" y="123" type="qcurve"/>
      <point x="288" y="123"/>
      <point x="211" y="213"/>
      <point x="211" y="297" type="qcurve"/>
      <point x="211" y="401" type="line"/>
      <point x="211" y="569"/>
      <point x="357" y="575" type="qcurve"/>
      <point x="426" y="575"/>
      <point x="503" y="485"/>
      <point x="503" y="401" type="qcurve"/>
      <point x="503" y="297" type="line"/>
      <point x="503" y="129"/>
    </contour>
    <contour>
      <point x="357" y="740" type="qcurve"/>
      <point x="434" y="740"/>
      <point x="486" y="798" type="qcurve"/>
      <point x="530" y="852"/>
      <point x="547" y="910" type="qcurve"/>
      <point x="467" y="952" type="line"/>
      <point x="448" y="920" type="line"/>
      <point x="427" y="883"/>
      <point x="385" y="843"/>
      <point x="357" y="843" type="qcurve"/>
      <point x="329" y="843"/>
      <point x="288" y="883"/>
      <point x="267" y="920" type="qcurve"/>
      <point x="248" y="952" type="line"/>
      <point x="167" y="910" type="line"/>
      <point x="184" y="852"/>
      <point x="227" y="798" type="qcurve"/>
      <point x="278" y="740"/>
    </contour>
  </outline>
</glyph>
<glyph name="OE" format="2">
  <advance width="998"/>
  <unicode hex="0152"/>
  <outline>
    <contour>
      <point x="357" y="-12" type="qcurve" smooth="yes"/>
      <point x="219" y="-12"/>
      <point x="134" y="80" type="qcurve"/>
      <point x="50" y="174"/>
      <point x="50" y="349" type="qcurve" smooth="yes"/>
      <point x="50" y="523"/>
      <point x="134" y="619" type="qcurve"/>
      <point x="219" y="710"/>
      <point x="357" y="710" type="qcurve" smooth="yes"/>
      <point x="425" y="710"/>
      <point x="480" y="698" type="qcurve"/>
      <point x="943" y="698" type="line"/>
      <point x="943" y="563" type="line"/>
      <point x="619" y="563" type="line"/>
      <point x="619" y="420" type="line"/>
      <point x="897" y="420" type="line"/>
      <point x="897" y="286" type="line"/>
      <point x="619" y="286" type="line"/>
      <point x="619" y="135" type="line"/>
      <point x="943" y="135" type="line"/>
      <point x="943" y="0" type="line"/>
      <point x="472" y="0" type="line"/>
      <point x="425" y="-12"/>
    </contour>
    <contour>
      <point x="357" y="123" type="qcurve" smooth="yes"/>
      <point x="416" y="123"/>
      <point x="467" y="132" type="qcurve"/>
      <point x="467" y="565" type="line"/>
      <point x="416" y="575"/>
      <point x="357" y="575" type="qcurve" smooth="yes"/>
      <point x="289" y="575"/>
      <point x="211" y="485"/>
      <point x="211" y="401" type="qcurve" smooth="yes"/>
      <point x="211" y="297" type="line" smooth="yes"/>
      <point x="211" y="213"/>
      <point x="289" y="123"/>
    </contour>
  </outline>
</glyph>
<glyph name="oe" format="2">
  <advance width="901"/>
  <unicode hex="0153"/>
  <outline>
    <contour>
      <point x="630" y="-12" type="qcurve" smooth="yes"/>
      <point x="497" y="-12"/>
      <point x="454" y="62" type="qcurve"/>
      <point x="448" y="62" type="line"/>
      <point x="408" y="-12"/>
      <point x="282" y="-12" type="qcurve" smooth="yes"/>
      <point x="167" y="-12"/>
      <point x="36" y="140"/>
      <point x="36" y="266" type="qcurve" smooth="yes"/>
      <point x="36" y="393"/>
      <point x="166" y="537"/>
      <point x="282" y="537" type="qcurve" smooth="yes"/>
      <point x="402" y="537"/>
      <point x="448" y="463" type="qcurve"/>
      <point x="454" y="463" type="line"/>
      <point x="499" y="537"/>
      <point x="625" y="537" type="qcurve" smooth="yes"/>
      <point x="741" y="537"/>
      <point x="804" y="464" type="qcurve"/>
      <point x="865" y="391"/>
      <point x="865" y="269" type="qcurve" smooth="yes"/>
      <point x="865" y="225" type="line"/>
      <point x="527" y="225" type="line"/>
      <point x="527" y="217" type="line" smooth="yes"/>
      <point x="527" y="165"/>
      <point x="586" y="104"/>
      <point x="647" y="104" type="qcurve" smooth="yes"/>
      <point x="693" y="104"/>
      <point x="752" y="140"/>
      <point x="776" y="167" type="qcurve"/>
      <point x="850" y="75" type="line"/>
      <point x="774" y="-12"/>
    </contour>
    <contour>
      <point x="711" y="321" type="line" smooth="yes"/>
      <point x="711" y="369"/>
      <point x="668" y="428"/>
      <point x="623" y="428" type="qcurve" smooth="yes"/>
      <point x="578" y="428"/>
      <point x="527" y="369"/>
      <point x="527" y="320" type="qcurve" smooth="yes"/>
      <point x="527" y="312" type="line"/>
      <point x="711" y="312" type="line"/>
    </contour>
    <contour>
      <point x="282" y="105" type="qcurve"/>
      <point x="374" y="109"/>
      <point x="374" y="209" type="qcurve" smooth="yes"/>
      <point x="374" y="316" type="line"/>
      <point x="371" y="420"/>
      <point x="282" y="420" type="qcurve"/>
      <point x="190" y="417"/>
      <point x="190" y="316" type="qcurve" smooth="yes"/>
      <point x="190" y="209" type="line"/>
      <point x="194" y="105"/>
    </contour>
  </outline>
</glyph>
<glyph name="uni0157" format="2">
  <advance width="404"/>
  <unicode hex="0157"/>
  <outline>
    <contour>
      <point x="69" y="0" type="line"/>
      <point x="69" y="525" type="line"/>
      <point x="217" y="525" type="line"/>
      <point x="217" y="411" type="line"/>
      <point x="222" y="411" type="line"/>
      <point x="230" y="457"/>
      <point x="299" y="525"/>
      <point x="356" y="525" type="qcurve" smooth="yes"/>
      <point x="382" y="525" type="line"/>
      <point x="382" y="387" type="line"/>
      <point x="345" y="387" type="line" smooth="yes"/>
      <point x="280" y="387"/>
      <point x="217" y="353"/>
      <point x="217" y="307" type="qcurve" smooth="yes"/>
      <point x="217" y="0" type="line"/>
    </contour>
    <contour>
      <point x="60" y="-275" type="line"/>
      <point x="109" y="-234"/>
      <point x="122" y="-176" type="qcurve"/>
      <point x="72" y="-171"/>
      <point x="72" y="-115" type="qcurve" smooth="yes"/>
      <point x="72" y="-104" type="line"/>
      <point x="76" y="-42"/>
      <point x="142" y="-42" type="qcurve"/>
      <point x="212" y="-44"/>
      <point x="212" y="-104" type="qcurve" smooth="yes"/>
      <point x="212" y="-118" type="line" smooth="yes"/>
      <point x="212" y="-164"/>
      <point x="175" y="-249"/>
      <point x="145" y="-275" type="qcurve"/>
    </contour>
  </outline>
</glyph>
<glyph name="rcaron" format="2">
  <advance width="404"/>
  <unicode hex="0159"/>
  <outline>
    <contour>
      <point x="217" y="0" type="line"/>
      <point x="217" y="307" type="line"/>
      <point x="217" y="353"/>
      <point x="280" y="387"/>
      <point x="345" y="387" type="qcurve"/>
      <point x="382" y="387" type="line"/>
      <point x="382" y="525" type="line"/>
      <point x="356" y="525" type="line"/>
      <point x="299" y="525"/>
      <point x="230" y="457"/>
      <point x="222" y="411" type="qcurve"/>
      <point x="217" y="411" type="line"/>
      <point x="217" y="525" type="line"/>
      <point x="69" y="525" type="line"/>
      <point x="69" y="0" type="line"/>
    </contour>
    <contour>
      <point x="287" y="587" type="line"/>
      <point x="419" y="746" type="line"/>
      <point x="346" y="804" type="line"/>
      <point x="225" y="689" type="line"/>
      <point x="104" y="804" type="line"/>
      <point x="31" y="746" type="line"/>
      <point x="163" y="587" type="line"/>
    </contour>
  </outline>
</glyph>
<glyph name="scircumflex" format="2">
  <advance width="504"/>
  <unicode hex="015D"/>
  <outline>
    <contour>
      <point x="247" y="-12" type="qcurve"/>
      <point x="349" y="-12"/>
      <point x="472" y="87"/>
      <point x="472" y="163" type="qcurve"/>
      <point x="472" y="298"/>
      <point x="299" y="321" type="qcurve"/>
      <point x="270" y="325"/>
      <point x="208" y="334"/>
      <point x="185" y="357"/>
      <point x="185" y="378" type="qcurve"/>
      <point x="185" y="422"/>
      <point x="255" y="422" type="qcurve"/>
      <point x="321" y="422"/>
      <point x="376" y="368" type="qcurve"/>
      <point x="461" y="455" type="line"/>
      <point x="422" y="494"/>
      <point x="330" y="537"/>
      <point x="247" y="537" type="qcurve"/>
      <point x="153" y="537"/>
      <point x="43" y="443"/>
      <point x="43" y="366" type="qcurve"/>
      <point x="43" y="227"/>
      <point x="220" y="204" type="qcurve"/>
      <point x="277" y="197" type="line"/>
      <point x="330" y="191"/>
      <point x="330" y="153" type="qcurve"/>
      <point x="330" y="130"/>
      <point x="296" y="103"/>
      <point x="252" y="103" type="qcurve"/>
      <point x="173" y="103"/>
      <point x="113" y="170" type="qcurve"/>
      <point x="26" y="82" type="line"/>
      <point x="66" y="37"/>
      <point x="171" y="-12"/>
    </contour>
    <contour>
      <point x="372" y="578" type="line"/>
      <point x="445" y="636" type="line"/>
      <point x="313" y="795" type="line"/>
      <point x="189" y="795" type="line"/>
      <point x="57" y="636" type="line"/>
      <point x="130" y="578" type="line"/>
      <point x="251" y="693" type="line"/>
    </contour>
  </outline>
</glyph>
<glyph name="Scedilla" format="2">
  <advance width="624"/>
  <unicode hex="015E"/>
  <outline>
    <contour>
      <point x="319" y="-212" type="qcurve"/>
      <point x="377" y="-212"/>
      <point x="411" y="-192" type="qcurve"/>
      <point x="451" y="-168"/>
      <point x="451" y="-121" type="qcurve"/>
      <point x="451" y="-84"/>
      <point x="408" y="-52"/>
      <point x="378" y="-52" type="qcurve"/>
      <point x="354" y="-52"/>
      <point x="330" y="-59" type="qcurve"/>
      <point x="326" y="-55" type="line"/>
      <point x="335" y="-11" type="line"/>
      <point x="451" y="-2"/>
      <point x="575" y="121"/>
      <point x="575" y="215" type="qcurve"/>
      <point x="575" y="306"/>
      <point x="471" y="405"/>
      <point x="363" y="422" type="qcurve"/>
      <point x="294" y="433" type="line"/>
      <point x="250" y="439"/>
      <point x="211" y="472"/>
      <point x="211" y="508" type="qcurve"/>
      <point x="211" y="540"/>
      <point x="261" y="576"/>
      <point x="312" y="576" type="qcurve"/>
      <point x="408" y="576"/>
      <point x="462" y="510" type="qcurve"/>
      <point x="563" y="612" type="line"/>
      <point x="479" y="710"/>
      <point x="321" y="710" type="qcurve"/>
      <point x="197" y="710"/>
      <point x="129" y="651" type="qcurve"/>
      <point x="59" y="593"/>
      <point x="59" y="498" type="qcurve"/>
      <point x="59" y="318"/>
      <point x="273" y="290" type="qcurve"/>
      <point x="342" y="281" type="line"/>
      <point x="390" y="274"/>
      <point x="423" y="235"/>
      <point x="423" y="206" type="qcurve"/>
      <point x="423" y="168"/>
      <point x="369" y="122"/>
      <point x="313" y="122" type="qcurve"/>
      <point x="210" y="122"/>
      <point x="138" y="202" type="qcurve"/>
      <point x="38" y="101" type="line"/>
      <point x="127" y="1"/>
      <point x="268" y="-11" type="qcurve"/>
      <point x="255" y="-74" type="line"/>
      <point x="319" y="-80"/>
      <point x="337" y="-92" type="qcurve"/>
      <point x="351" y="-104"/>
      <point x="351" y="-116" type="qcurve"/>
      <point x="351" y="-129"/>
      <point x="326" y="-141"/>
      <point x="307" y="-141" type="qcurve"/>
      <point x="264" y="-141"/>
      <point x="241" y="-112" type="qcurve"/>
      <point x="195" y="-168" type="line"/>
      <point x="229" y="-212"/>
    </contour>
  </outline>
</glyph>
<glyph name="scedilla" format="2">
  <advance width="504"/>
  <unicode hex="015F"/>
  <outline>
    <contour>
      <point x="262" y="-212" type="qcurve"/>
      <point x="320" y="-212"/>
      <point x="354" y="-192" type="qcurve"/>
      <point x="394" y="-168"/>
      <point x="394" y="-121" type="qcurve"/>
      <point x="394" y="-84"/>
      <point x="351" y="-52"/>
      <point x="321" y="-52" type="qcurve"/>
      <point x="297" y="-52"/>
      <point x="273" y="-59" type="qcurve"/>
      <point x="269" y="-55" type="line"/>
      <point x="278" y="-11" type="line"/>
      <point x="368" y="-2"/>
      <point x="472" y="93"/>
      <point x="472" y="163" type="qcurve"/>
      <point x="472" y="298"/>
      <point x="299" y="321" type="qcurve"/>
      <point x="270" y="325"/>
      <point x="208" y="334"/>
      <point x="185" y="357"/>
      <point x="185" y="378" type="qcurve"/>
      <point x="185" y="422"/>
      <point x="255" y="422" type="qcurve"/>
      <point x="321" y="422"/>
      <point x="376" y="368" type="qcurve"/>
      <point x="461" y="455" type="line"/>
      <point x="422" y="494"/>
      <point x="330" y="537"/>
      <point x="247" y="537" type="qcurve"/>
      <point x="153" y="537"/>
      <point x="43" y="443"/>
      <point x="43" y="366" type="qcurve"/>
      <point x="43" y="227"/>
      <point x="220" y="204" type="qcurve"/>
      <point x="277" y="197" type="line"/>
      <point x="330" y="191"/>
      <point x="330" y="153" type="qcurve"/>
      <point x="330" y="130"/>
      <point x="296" y="103"/>
      <point x="252" y="103" type="qcurve"/>
      <point x="173" y="103"/>
      <point x="113" y="170" type="qcurve"/>
      <point x="26" y="82" type="line"/>
      <point x="93" y="2"/>
      <point x="211" y="-10" type="qcurve"/>
      <point x="198" y="-74" type="line"/>
      <point x="262" y="-80"/>
      <point x="280" y="-92" type="qcurve"/>
      <point x="294" y="-104"/>
      <point x="294" y="-116" type="qcurve"/>
      <point x="294" y="-129"/>
      <point x="269" y="-141"/>
      <point x="250" y="-141" type="qcurve"/>
      <point x="207" y="-141"/>
      <point x="184" y="-112" type="qcurve"/>
      <point x="138" y="-168" type="line"/>
      <point x="172" y="-212"/>
    </contour>
  </outline>
</glyph>
<glyph name="uni0162" format="2">
  <advance width="584"/>
  <unicode hex="0162"/>
  <outline>
    <contour>
      <point x="216" y="0" type="line"/>
      <point x="216" y="563" type="line"/>
      <point x="27" y="563" type="line"/>
      <point x="27" y="698" type="line"/>
      <point x="557" y="698" type="line"/>
      <point x="557" y="563" type="line"/>
      <point x="368" y="563" type="line"/>
      <point x="368" y="0" type="line"/>
    </contour>
    <contour>
      <point x="209" y="-275" type="line"/>
      <point x="258" y="-234"/>
      <point x="271" y="-176" type="qcurve"/>
      <point x="221" y="-171"/>
      <point x="221" y="-115" type="qcurve" smooth="yes"/>
      <point x="221" y="-104" type="line"/>
      <point x="225" y="-42"/>
      <point x="291" y="-42" type="qcurve"/>
      <point x="361" y="-44"/>
      <point x="361" y="-104" type="qcurve" smooth="yes"/>
      <point x="361" y="-118" type="line" smooth="yes"/>
      <point x="361" y="-164"/>
      <point x="324" y="-249"/>
      <point x="294" y="-275" type="qcurve"/>
    </contour>
  </outline>
</glyph>
<glyph name="Tcaron" format="2">
  <advance width="584"/>
  <unicode hex="0164"/>
  <outline>
    <contour>
      <point x="368" y="0" type="line"/>
      <point x="368" y="563" type="line"/>
      <point x="557" y="563" type="line"/>
      <point x="557" y="698" type="line"/>
      <point x="27" y="698" type="line"/>
      <point x="27" y="563" type="line"/>
      <point x="216" y="563" type="line"/>
      <point x="216" y="0" type="line"/>
    </contour>
    <contour>
      <point x="355" y="748" type="line"/>
      <point x="487" y="907" type="line"/>
      <point x="414" y="965" type="line"/>
      <point x="293" y="850" type="line"/>
      <point x="172" y="965" type="line"/>
      <point x="99" y="907" type="line"/>
      <point x="231" y="748" type="line"/>
    </contour>
  </outline>
</glyph>
<glyph name="tbar" format="2">
  <advance width="391"/>
  <unicode hex="0167"/>
  <outline>
    <contour>
      <point x="345" y="0" type="line"/>
      <point x="345" y="115" type="line"/>
      <point x="249" y="115" type="line"/>
      <point x="249" y="221" type="line"/>
      <point x="334" y="221" type="line"/>
      <point x="334" y="321" type="line"/>
      <point x="249" y="321" type="line"/>
      <point x="249" y="410" type="line"/>
      <point x="353" y="410" type="line"/>
      <point x="353" y="525" type="line"/>
      <point x="249" y="525" type="line"/>
      <point x="249" y="667" type="line"/>
      <point x="116" y="667" type="line"/>
      <point x="116" y="581" type="line"/>
      <point x="116" y="554"/>
      <point x="94" y="525"/>
      <point x="64" y="525" type="qcurve"/>
      <point x="27" y="525" type="line"/>
      <point x="27" y="410" type="line"/>
      <point x="101" y="410" type="line"/>
      <point x="101" y="321" type="line"/>
      <point x="37" y="321" type="line"/>
      <point x="37" y="221" type="line"/>
      <point x="101" y="221" type="line"/>
      <point x="101" y="153" type="line"/>
      <point x="101" y="3"/>
      <point x="257" y="0" type="qcurve"/>
    </contour>
  </outline>
</glyph>
<glyph name="Utilde" format="2">
  <advance width="694"/>
  <unicode hex="0168"/>
  <outline>
    <contour>
      <point x="347" y="-12" type="qcurve"/>
      <point x="497" y="-12"/>
      <point x="559" y="60" type="qcurve"/>
      <point x="621" y="128"/>
      <point x="621" y="286" type="qcurve"/>
      <point x="621" y="698" type="line"/>
      <point x="473" y="698" type="line"/>
      <point x="473" y="270" type="line"/>
      <point x="473" y="196"/>
      <point x="415" y="123"/>
      <point x="347" y="123" type="qcurve"/>
      <point x="279" y="123"/>
      <point x="221" y="196"/>
      <point x="221" y="270" type="qcurve"/>
      <point x="221" y="698" type="line"/>
      <point x="73" y="698" type="line"/>
      <point x="73" y="286" type="line"/>
      <point x="73" y="128"/>
      <point x="135" y="60" type="qcurve"/>
      <point x="197" y="-12"/>
    </contour>
    <contour>
      <point x="423" y="762" type="qcurve"/>
      <point x="496" y="762"/>
      <point x="537" y="826" type="qcurve"/>
      <point x="485" y="894" type="line"/>
      <point x="470" y="881"/>
      <point x="443" y="869"/>
      <point x="426" y="869" type="qcurve"/>
      <point x="407" y="869"/>
      <point x="373" y="880"/>
      <point x="354" y="889" type="qcurve"/>
      <point x="312" y="905" type="line"/>
      <point x="294" y="911"/>
      <point x="271" y="911" type="qcurve"/>
      <point x="198" y="911"/>
      <point x="157" y="847" type="qcurve"/>
      <point x="209" y="779" type="line"/>
      <point x="224" y="792"/>
      <point x="251" y="804"/>
      <point x="268" y="804" type="qcurve"/>
      <point x="287" y="804"/>
      <point x="321" y="793"/>
      <point x="340" y="784" type="qcurve"/>
      <point x="382" y="768" type="line"/>
      <point x="400" y="762"/>
    </contour>
  </outline>
</glyph>
<glyph name="utilde" format="2">
  <advance width="596"/>
  <unicode hex="0169"/>
  <outline>
    <contour>
      <point x="227" y="-12" type="qcurve"/>
      <point x="292" y="-12"/>
      <point x="361" y="47"/>
      <point x="374" y="88" type="qcurve"/>
      <point x="379" y="88" type="line"/>
      <point x="379" y="0" type="line"/>
      <point x="527" y="0" type="line"/>
      <point x="527" y="525" type="line"/>
      <point x="379" y="525" type="line"/>
      <point x="379" y="184" type="line"/>
      <point x="379" y="147"/>
      <point x="321" y="108"/>
      <point x="286" y="108" type="qcurve"/>
      <point x="245" y="108"/>
      <point x="211" y="160"/>
      <point x="211" y="208" type="qcurve"/>
      <point x="211" y="525" type="line"/>
      <point x="63" y="525" type="line"/>
      <point x="63" y="195" type="line"/>
      <point x="63" y="95"/>
      <point x="146" y="-12"/>
    </contour>
    <contour>
      <point x="372" y="601" type="qcurve"/>
      <point x="445" y="601"/>
      <point x="486" y="665" type="qcurve"/>
      <point x="434" y="733" type="line"/>
      <point x="419" y="720"/>
      <point x="392" y="708"/>
      <point x="375" y="708" type="qcurve"/>
      <point x="356" y="708"/>
      <point x="322" y="719"/>
      <point x="303" y="728" type="qcurve"/>
      <point x="261" y="744" type="line"/>
      <point x="243" y="750"/>
      <point x="220" y="750" type="qcurve"/>
      <point x="147" y="750"/>
      <point x="106" y="686" type="qcurve"/>
      <point x="158" y="618" type="line"/>
      <point x="173" y="631"/>
      <point x="200" y="643"/>
      <point x="217" y="643" type="qcurve"/>
      <point x="236" y="643"/>
      <point x="270" y="632"/>
      <point x="289" y="623" type="qcurve"/>
      <point x="331" y="607" type="line"/>
      <point x="349" y="601"/>
    </contour>
  </outline>
</glyph>
<glyph name="Umacron" format="2">
  <advance width="694"/>
  <unicode hex="016A"/>
  <outline>
    <contour>
      <point x="347" y="-12" type="qcurve"/>
      <point x="497" y="-12"/>
      <point x="559" y="60" type="qcurve"/>
      <point x="621" y="128"/>
      <point x="621" y="286" type="qcurve"/>
      <point x="621" y="698" type="line"/>
      <point x="473" y="698" type="line"/>
      <point x="473" y="270" type="line"/>
      <point x="473" y="196"/>
      <point x="415" y="123"/>
      <point x="347" y="123" type="qcurve"/>
      <point x="279" y="123"/>
      <point x="221" y="196"/>
      <point x="221" y="270" type="qcurve"/>
      <point x="221" y="698" type="line"/>
      <point x="73" y="698" type="line"/>
      <point x="73" y="286" type="line"/>
      <point x="73" y="128"/>
      <point x="135" y="60" type="qcurve"/>
      <point x="197" y="-12"/>
    </contour>
    <contour>
      <point x="500" y="785" type="line"/>
      <point x="500" y="888" type="line"/>
      <point x="194" y="888" type="line"/>
      <point x="194" y="785" type="line"/>
    </contour>
  </outline>
</glyph>
<glyph name="Ubreve" format="2">
  <advance width="694"/>
  <unicode hex="016C"/>
  <outline>
    <contour>
      <point x="347" y="740" type="qcurve" smooth="yes"/>
      <point x="268" y="740"/>
      <point x="217" y="798" type="qcurve"/>
      <point x="174" y="852"/>
      <point x="157" y="910" type="qcurve"/>
      <point x="238" y="952" type="line"/>
      <point x="257" y="920" type="line" smooth="yes"/>
      <point x="278" y="883"/>
      <point x="319" y="843"/>
      <point x="347" y="843" type="qcurve" smooth="yes"/>
      <point x="375" y="843"/>
      <point x="417" y="883"/>
      <point x="438" y="920" type="qcurve" smooth="yes"/>
      <point x="457" y="952" type="line"/>
      <point x="537" y="910" type="line"/>
      <point x="520" y="852"/>
      <point x="476" y="798" type="qcurve"/>
      <point x="424" y="740"/>
    </contour>
    <contour>
      <point x="347" y="-12" type="qcurve" smooth="yes"/>
      <point x="197" y="-12"/>
      <point x="135" y="60" type="qcurve"/>
      <point x="73" y="128"/>
      <point x="73" y="286" type="qcurve" smooth="yes"/>
      <point x="73" y="698" type="line"/>
      <point x="221" y="698" type="line"/>
      <point x="221" y="270" type="line" smooth="yes"/>
      <point x="221" y="196"/>
      <point x="279" y="123"/>
      <point x="347" y="123" type="qcurve" smooth="yes"/>
      <point x="415" y="123"/>
      <point x="473" y="196"/>
      <point x="473" y="270" type="qcurve" smooth="yes"/>
      <point x="473" y="698" type="line"/>
      <point x="621" y="698" type="line"/>
      <point x="621" y="286" type="line" smooth="yes"/>
      <point x="621" y="128"/>
      <point x="559" y="60" type="qcurve"/>
      <point x="497" y="-12"/>
    </contour>
  </outline>
</glyph>
<glyph name="ubreve" format="2">
  <advance width="596"/>
  <unicode hex="016D"/>
  <outline>
    <contour>
      <point x="227" y="-12" type="qcurve"/>
      <point x="292" y="-12"/>
      <point x="361" y="47"/>
      <point x="374" y="88" type="qcurve"/>
      <point x="379" y="88" type="line"/>
      <point x="379" y="0" type="line"/>
      <point x="527" y="0" type="line"/>
      <point x="527" y="525" type="line"/>
      <point x="379" y="525" type="line"/>
      <point x="379" y="184" type="line"/>
      <point x="379" y="147"/>
      <point x="321" y="108"/>
      <point x="286" y="108" type="qcurve"/>
      <point x="245" y="108"/>
      <point x="211" y="160"/>
      <point x="211" y="208" type="qcurve"/>
      <point x="211" y="525" type="line"/>
      <point x="63" y="525" type="line"/>
      <point x="63" y="195" type="line"/>
      <point x="63" y="95"/>
      <point x="146" y="-12"/>
    </contour>
    <contour>
      <point x="296" y="579" type="qcurve"/>
      <point x="371" y="579"/>
      <point x="424" y="637" type="qcurve"/>
      <point x="469" y="691"/>
      <point x="486" y="749" type="qcurve"/>
      <point x="406" y="791" type="line"/>
      <point x="386" y="758" type="line"/>
      <point x="365" y="722"/>
      <point x="322" y="682"/>
      <point x="296" y="682" type="qcurve"/>
      <point x="270" y="682"/>
      <point x="228" y="722"/>
      <point x="207" y="758" type="qcurve"/>
      <point x="187" y="791" type="line"/>
      <point x="106" y="749" type="line"/>
      <point x="123" y="691"/>
      <point x="166" y="637" type="qcurve"/>
      <point x="216" y="579"/>
    </contour>
  </outline>
</glyph>
<glyph name="Uring" format="2">
  <advance width="694"/>
  <unicode hex="016E"/>
  <outline>
    <contour>
      <point x="347" y="719" type="qcurve" smooth="yes"/>
      <point x="286" y="719"/>
      <point x="199" y="801"/>
      <point x="199" y="862" type="qcurve" smooth="yes"/>
      <point x="199" y="924"/>
      <point x="286" y="1005"/>
      <point x="347" y="1005" type="qcurve" smooth="yes"/>
      <point x="409" y="1005"/>
      <point x="495" y="924"/>
      <point x="495" y="862" type="qcurve" smooth="yes"/>
      <point x="495" y="801"/>
      <point x="409" y="719"/>
    </contour>
    <contour>
      <point x="347" y="794" type="qcurve" smooth="yes"/>
      <point x="372" y="794"/>
      <point x="398" y="822"/>
      <point x="398" y="845" type="qcurve" smooth="yes"/>
      <point x="398" y="879" type="line"/>
      <point x="397" y="930"/>
      <point x="347" y="930" type="qcurve" smooth="yes"/>
      <point x="322" y="930"/>
      <point x="296" y="902"/>
      <point x="296" y="879" type="qcurve" smooth="yes"/>
      <point x="296" y="845" type="line"/>
      <point x="298" y="794"/>
    </contour>
    <contour>
      <point x="347" y="-12" type="qcurve" smooth="yes"/>
      <point x="197" y="-12"/>
      <point x="135" y="60" type="qcurve"/>
      <point x="73" y="128"/>
      <point x="73" y="286" type="qcurve" smooth="yes"/>
      <point x="73" y="698" type="line"/>
      <point x="221" y="698" type="line"/>
      <point x="221" y="270" type="line" smooth="yes"/>
      <point x="221" y="196"/>
      <point x="279" y="123"/>
      <point x="347" y="123" type="qcurve" smooth="yes"/>
      <point x="415" y="123"/>
      <point x="473" y="196"/>
      <point x="473" y="270" type="qcurve" smooth="yes"/>
      <point x="473" y="698" type="line"/>
      <point x="621" y="698" type="line"/>
      <point x="621" y="286" type="line" smooth="yes"/>
      <point x="621" y="128"/>
      <point x="559" y="60" type="qcurve"/>
      <point x="497" y="-12"/>
    </contour>
  </outline>
</glyph>
<glyph name="udoubleacute" format="2">
  <advance width="596"/>
  <unicode hex="0171"/>
  <outline>
    <contour>
      <point x="227" y="-12" type="qcurve"/>
      <point x="292" y="-12"/>
      <point x="361" y="47"/>
      <point x="374" y="88" type="qcurve"/>
      <point x="379" y="88" type="line"/>
      <point x="379" y="0" type="line"/>
      <point x="527" y="0" type="line"/>
      <point x="527" y="525" type="line"/>
      <point x="379" y="525" type="line"/>
      <point x="379" y="184" type="line"/>
      <point x="379" y="147"/>
      <point x="321" y="108"/>
      <point x="286" y="108" type="qcurve"/>
      <point x="245" y="108"/>
      <point x="211" y="160"/>
      <point x="211" y="208" type="qcurve"/>
      <point x="211" y="525" type="line"/>
      <point x="63" y="525" type="line"/>
      <point x="63" y="195" type="line"/>
      <point x="63" y="95"/>
      <point x="146" y="-12"/>
    </contour>
    <contour>
      <point x="206" y="579" type="line"/>
      <point x="340" y="755" type="line"/>
      <point x="224" y="812" type="line"/>
      <point x="125" y="618" type="line"/>
    </contour>
    <contour>
      <point x="411" y="579" type="line"/>
      <point x="545" y="755" type="line"/>
      <point x="429" y="812" type="line"/>
      <point x="330" y="618" type="line"/>
    </contour>
  </outline>
</glyph>
<glyph name="Uogonek" format="2">
  <advance width="694"/>
  <unicode hex="0172"/>
  <outline>
    <contour>
      <point x="421" y="-212" type="qcurve"/>
      <point x="516" y="-212"/>
      <point x="542" y="-161" type="qcurve"/>
      <point x="489" y="-110" type="line"/>
      <point x="478" y="-122"/>
      <point x="453" y="-138"/>
      <point x="435" y="-138" type="qcurve"/>
      <point x="420" y="-138"/>
      <point x="397" y="-123"/>
      <point x="397" y="-106" type="qcurve"/>
      <point x="397" y="-71"/>
      <point x="464" y="-29" type="qcurve"/>
      <point x="563" y="29"/>
      <point x="596" y="115" type="qcurve"/>
      <point x="621" y="183"/>
      <point x="621" y="286" type="qcurve"/>
      <point x="621" y="698" type="line"/>
      <point x="473" y="698" type="line"/>
      <point x="473" y="270" type="line"/>
      <point x="473" y="196"/>
      <point x="415" y="123"/>
      <point x="347" y="123" type="qcurve"/>
      <point x="279" y="123"/>
      <point x="221" y="196"/>
      <point x="221" y="270" type="qcurve"/>
      <point x="221" y="698" type="line"/>
      <point x="73" y="698" type="line"/>
      <point x="73" y="286" type="line"/>
      <point x="73" y="128"/>
      <point x="135" y="60" type="qcurve"/>
      <point x="197" y="-12"/>
      <point x="347" y="-12" type="qcurve"/>
      <point x="385" y="-12"/>
      <point x="415" y="-8" type="qcurve"/>
      <point x="417" y="-14" type="line"/>
      <point x="362" y="-36"/>
      <point x="298" y="-86"/>
      <point x="298" y="-128" type="qcurve"/>
      <point x="298" y="-174"/>
      <point x="372" y="-212"/>
    </contour>
  </outline>
</glyph>
<glyph name="uogonek" format="2">
  <advance width="596"/>
  <unicode hex="0173"/>
  <outline>
    <contour>
      <point x="437" y="-212" type="qcurve"/>
      <point x="533" y="-212"/>
      <point x="559" y="-161" type="qcurve"/>
      <point x="506" y="-110" type="line"/>
      <point x="481" y="-138"/>
      <point x="451" y="-138" type="qcurve"/>
      <point x="413" y="-138"/>
      <point x="413" y="-105" type="qcurve"/>
      <point x="413" y="-86"/>
      <point x="455" y="-44"/>
      <point x="526" y="0" type="qcurve"/>
      <point x="526" y="525" type="line"/>
      <point x="379" y="525" type="line"/>
      <point x="379" y="184" type="line"/>
      <point x="379" y="147"/>
      <point x="321" y="108"/>
      <point x="286" y="108" type="qcurve"/>
      <point x="245" y="108"/>
      <point x="211" y="160"/>
      <point x="211" y="208" type="qcurve"/>
      <point x="211" y="525" type="line"/>
      <point x="63" y="525" type="line"/>
      <point x="63" y="195" type="line"/>
      <point x="63" y="95"/>
      <point x="146" y="-12"/>
      <point x="227" y="-12" type="qcurve"/>
      <point x="292" y="-12"/>
      <point x="361" y="47"/>
      <point x="374" y="88" type="qcurve"/>
      <point x="379" y="88" type="line"/>
      <point x="379" y="0" type="line"/>
      <point x="431" y="0" type="line"/>
      <point x="432" y="-4" type="line"/>
      <point x="375" y="-29"/>
      <point x="313" y="-85"/>
      <point x="313" y="-127" type="qcurve"/>
      <point x="313" y="-175"/>
      <point x="388" y="-212"/>
    </contour>
  </outline>
</glyph>
<glyph name="Ydieresis" format="2">
  <advance width="649"/>
  <unicode hex="0178"/>
  <outline>
    <contour>
      <point x="401" y="0" type="line"/>
      <point x="401" y="274" type="line"/>
      <point x="640" y="698" type="line"/>
      <point x="475" y="698" type="line"/>
      <point x="331" y="420" type="line"/>
      <point x="329" y="420" type="line"/>
      <point x="179" y="698" type="line"/>
      <point x="9" y="698" type="line"/>
      <point x="248" y="273" type="line"/>
      <point x="248" y="0" type="line"/>
    </contour>
    <contour>
      <point x="215" y="761" type="qcurve"/>
      <point x="295" y="761"/>
      <point x="295" y="824" type="qcurve"/>
      <point x="295" y="849" type="line"/>
      <point x="295" y="912"/>
      <point x="215" y="912" type="qcurve"/>
      <point x="135" y="912"/>
      <point x="135" y="849" type="qcurve"/>
      <point x="135" y="824" type="line"/>
      <point x="135" y="761"/>
    </contour>
    <contour>
      <point x="435" y="761" type="qcurve"/>
      <point x="515" y="761"/>
      <point x="515" y="824" type="qcurve"/>
      <point x="515" y="849" type="line"/>
      <point x="515" y="912"/>
      <point x="435" y="912" type="qcurve"/>
      <point x="355" y="912"/>
      <point x="355" y="849" type="qcurve"/>
      <point x="355" y="824" type="line"/>
      <point x="355" y="761"/>
    </contour>
  </outline>
</glyph>
<glyph name="Zacute" format="2">
  <advance width="607"/>
  <unicode hex="0179"/>
  <outline>
    <contour>
      <point x="568" y="0" type="line"/>
      <point x="568" y="134" type="line"/>
      <point x="214" y="134" type="line"/>
      <point x="560" y="563" type="line"/>
      <point x="560" y="698" type="line"/>
      <point x="56" y="698" type="line"/>
      <point x="56" y="564" type="line"/>
      <point x="384" y="564" type="line"/>
      <point x="39" y="135" type="line"/>
      <point x="39" y="0" type="line"/>
    </contour>
    <contour>
      <point x="319" y="740" type="line"/>
      <point x="453" y="916" type="line"/>
      <point x="330" y="977" type="line"/>
      <point x="231" y="783" type="line"/>
    </contour>
  </outline>
</glyph>
<glyph name="zacute" format="2">
  <advance width="518"/>
  <unicode hex="017A"/>
  <outline>
    <contour>
      <point x="188" y="622" type="line"/>
      <point x="287" y="816" type="line"/>
      <point x="410" y="755" type="line"/>
      <point x="276" y="579" type="line"/>
    </contour>
    <contour>
      <point x="39" y="0" type="line"/>
      <point x="39" y="117" type="line"/>
      <point x="300" y="410" type="line"/>
      <point x="48" y="410" type="line"/>
      <point x="48" y="525" type="line"/>
      <point x="472" y="525" type="line"/>
      <point x="472" y="409" type="line"/>
      <point x="210" y="115" type="line"/>
      <point x="479" y="115" type="line"/>
      <point x="479" y="0" type="line"/>
    </contour>
  </outline>
</glyph>
<glyph name="fhook" format="2">
  <advance width="484"/>
  <unicode hex="0192"/>
  <outline>
    <contour>
      <point x="111" y="-134" type="line"/>
      <point x="192" y="-134"/>
      <point x="276" y="-50"/>
      <point x="283" y="17" type="qcurve"/>
      <point x="307" y="251" type="line"/>
      <point x="434" y="251" type="line"/>
      <point x="444" y="371" type="line"/>
      <point x="319" y="371" type="line"/>
      <point x="341" y="583" type="line"/>
      <point x="460" y="583" type="line"/>
      <point x="472" y="698" type="line"/>
      <point x="362" y="698" type="line"/>
      <point x="282" y="698"/>
      <point x="197" y="613"/>
      <point x="190" y="546" type="qcurve"/>
      <point x="172" y="371" type="line"/>
      <point x="66" y="371" type="line"/>
      <point x="54" y="251" type="line"/>
      <point x="160" y="251" type="line"/>
      <point x="132" y="-19" type="line"/>
      <point x="17" y="-19" type="line"/>
      <point x="5" y="-134" type="line"/>
    </contour>
  </outline>
</glyph>
<glyph name="ohorn" format="2">
  <advance width="564"/>
  <unicode hex="01A1"/>
  <outline>
    <contour>
      <point x="282" y="-12" type="qcurve"/>
      <point x="398" y="-12"/>
      <point x="528" y="140"/>
      <point x="528" y="266" type="qcurve"/>
      <point x="528" y="373"/>
      <point x="483" y="439" type="qcurve"/>
      <point x="519" y="444"/>
      <point x="551" y="490"/>
      <point x="551" y="537" type="qcurve"/>
      <point x="551" y="631" type="line"/>
      <point x="427" y="631" type="line"/>
      <point x="427" y="525" type="line"/>
      <point x="367" y="525" type="line"/>
      <point x="329" y="537"/>
      <point x="282" y="537" type="qcurve"/>
      <point x="166" y="537"/>
      <point x="36" y="393"/>
      <point x="36" y="266" type="qcurve"/>
      <point x="36" y="140"/>
      <point x="167" y="-12"/>
    </contour>
    <contour>
      <point x="282" y="105" type="qcurve"/>
      <point x="194" y="105"/>
      <point x="190" y="209" type="qcurve"/>
      <point x="190" y="316" type="line"/>
      <point x="190" y="417"/>
      <point x="282" y="420" type="qcurve"/>
      <point x="371" y="420"/>
      <point x="374" y="316" type="qcurve"/>
      <point x="374" y="209" type="line"/>
      <point x="374" y="109"/>
    </contour>
  </outline>
</glyph>
<glyph name="Aringacute" format="2">
  <advance width="685"/>
  <unicode hex="01FA"/>
  <outline>
    <contour>
      <point x="339" y="725" type="qcurve" smooth="yes"/>
      <point x="275" y="725"/>
      <point x="232" y="757" type="qcurve"/>
      <point x="187" y="787"/>
      <point x="187" y="845" type="qcurve" smooth="yes"/>
      <point x="187" y="901"/>
      <point x="231" y="933" type="qcurve" smooth="yes"/>
      <point x="255" y="950"/>
      <point x="285" y="958" type="qcurve"/>
      <point x="408" y="1070" type="line"/>
      <point x="482" y="989" type="line"/>
      <point x="419" y="950" type="line"/>
      <point x="434" y="943"/>
      <point x="448" y="933" type="qcurve" smooth="yes"/>
      <point x="491" y="901"/>
      <point x="491" y="845" type="qcurve" smooth="yes"/>
      <point x="491" y="787"/>
      <point x="447" y="757" type="qcurve"/>
      <point x="404" y="725"/>
    </contour>
    <contour>
      <point x="345" y="795" type="line" smooth="yes"/>
      <point x="394" y="795"/>
      <point x="394" y="840" type="qcurve" smooth="yes"/>
      <point x="394" y="850" type="line"/>
      <point x="393" y="895"/>
      <point x="339" y="895" type="qcurve" smooth="yes"/>
      <point x="333" y="895" type="line" smooth="yes"/>
      <point x="284" y="895"/>
      <point x="284" y="850" type="qcurve" smooth="yes"/>
      <point x="284" y="840" type="line"/>
      <point x="285" y="795"/>
      <point x="339" y="795" type="qcurve" smooth="yes"/>
    </contour>
    <contour>
      <point x="507" y="0" type="line"/>
      <point x="457" y="166" type="line"/>
      <point x="224" y="166" type="line"/>
      <point x="174" y="0" type="line"/>
      <point x="20" y="0" type="line"/>
      <point x="250" y="698" type="line"/>
      <point x="438" y="698" type="line"/>
      <point x="665" y="0" type="line"/>
    </contour>
    <contour>
      <point x="342" y="560" type="line"/>
      <point x="337" y="560" type="line"/>
      <point x="260" y="295" type="line"/>
      <point x="420" y="295" type="line"/>
    </contour>
  </outline>
</glyph>
<glyph name="aeacute" format="2">
  <advance width="864"/>
  <unicode hex="01FD"/>
  <outline>
    <contour>
      <point x="254" y="91" type="qcurve"/>
      <point x="184" y="91"/>
      <point x="183" y="152" type="qcurve"/>
      <point x="183" y="166" type="line"/>
      <point x="183" y="225"/>
      <point x="270" y="225" type="qcurve"/>
      <point x="342" y="225" type="line"/>
      <point x="342" y="159" type="line"/>
      <point x="342" y="123"/>
      <point x="289" y="91"/>
    </contour>
    <contour>
      <point x="675" y="312" type="line"/>
      <point x="491" y="312" type="line"/>
      <point x="491" y="320" type="line"/>
      <point x="491" y="369"/>
      <point x="542" y="428"/>
      <point x="587" y="428" type="qcurve"/>
      <point x="632" y="428"/>
      <point x="675" y="369"/>
      <point x="675" y="321" type="qcurve"/>
    </contour>
    <contour>
      <point x="593" y="-12" type="qcurve"/>
      <point x="737" y="-12"/>
      <point x="813" y="75" type="qcurve"/>
      <point x="739" y="167" type="line"/>
      <point x="718" y="143"/>
      <point x="656" y="106"/>
      <point x="610" y="106" type="qcurve"/>
      <point x="496" y="106"/>
      <point x="490" y="217" type="qcurve"/>
      <point x="490" y="225" type="line"/>
      <point x="828" y="225" type="line"/>
      <point x="828" y="269" type="line"/>
      <point x="828" y="385"/>
      <point x="774" y="456" type="qcurve"/>
      <point x="712" y="537"/>
      <point x="588" y="537" type="qcurve"/>
      <point x="467" y="537"/>
      <point x="420" y="463" type="qcurve"/>
      <point x="414" y="463" type="line"/>
      <point x="366" y="537"/>
      <point x="266" y="537" type="qcurve"/>
      <point x="183" y="537"/>
      <point x="85" y="485"/>
      <point x="54" y="437" type="qcurve"/>
      <point x="142" y="359" type="line"/>
      <point x="159" y="384"/>
      <point x="211" y="421"/>
      <point x="255" y="421" type="qcurve"/>
      <point x="342" y="421"/>
      <point x="342" y="338" type="qcurve"/>
      <point x="342" y="312" type="line"/>
      <point x="259" y="312" type="line"/>
      <point x="162" y="312"/>
      <point x="34" y="228"/>
      <point x="34" y="144" type="qcurve"/>
      <point x="34" y="77"/>
      <point x="119" y="-12"/>
      <point x="198" y="-12" type="qcurve"/>
      <point x="281" y="-12"/>
      <point x="368" y="48"/>
      <point x="383" y="91" type="qcurve"/>
      <point x="389" y="91" type="line"/>
      <point x="411" y="46"/>
      <point x="518" y="-12"/>
    </contour>
    <contour>
      <point x="448" y="579" type="line"/>
      <point x="582" y="755" type="line"/>
      <point x="459" y="816" type="line"/>
      <point x="360" y="622" type="line"/>
    </contour>
  </outline>
</glyph>
<glyph name="Scommaaccent" format="2">
  <advance width="624"/>
  <unicode hex="0218"/>
  <outline>
    <contour>
      <point x="303" y="-12" type="qcurve"/>
      <point x="434" y="-12"/>
      <point x="575" y="115"/>
      <point x="575" y="215" type="qcurve"/>
      <point x="575" y="306"/>
      <point x="471" y="405"/>
      <point x="363" y="422" type="qcurve"/>
      <point x="294" y="433" type="line"/>
      <point x="250" y="439"/>
      <point x="211" y="472"/>
      <point x="211" y="508" type="qcurve"/>
      <point x="211" y="540"/>
      <point x="261" y="576"/>
      <point x="312" y="576" type="qcurve"/>
      <point x="408" y="576"/>
      <point x="462" y="510" type="qcurve"/>
      <point x="563" y="612" type="line"/>
      <point x="479" y="710"/>
      <point x="321" y="710" type="qcurve"/>
      <point x="197" y="710"/>
      <point x="129" y="651" type="qcurve"/>
      <point x="59" y="593"/>
      <point x="59" y="498" type="qcurve"/>
      <point x="59" y="318"/>
      <point x="273" y="290" type="qcurve"/>
      <point x="342" y="281" type="line"/>
      <point x="390" y="274"/>
      <point x="423" y="235"/>
      <point x="423" y="206" type="qcurve"/>
      <point x="423" y="168"/>
      <point x="369" y="122"/>
      <point x="313" y="122" type="qcurve"/>
      <point x="210" y="122"/>
      <point x="138" y="202" type="qcurve"/>
      <point x="38" y="101" type="line"/>
      <point x="136" y="-12"/>
    </contour>
    <contour>
      <point x="312" y="-275" type="line"/>
      <point x="342" y="-249"/>
      <point x="379" y="-164"/>
      <point x="379" y="-118" type="qcurve"/>
      <point x="379" y="-104" type="line"/>
      <point x="379" y="-44"/>
      <point x="309" y="-42" type="qcurve"/>
      <point x="243" y="-42"/>
      <point x="239" y="-104" type="qcurve"/>
      <point x="239" y="-115" type="line"/>
      <point x="239" y="-171"/>
      <point x="289" y="-176" type="qcurve"/>
      <point x="276" y="-234"/>
      <point x="227" y="-275" type="qcurve"/>
    </contour>
  </outline>
</glyph>
<glyph name="scommaaccent" format="2">
  <advance width="504"/>
  <unicode hex="0219"/>
  <outline>
    <contour>
      <point x="247" y="-12" type="qcurve"/>
      <point x="349" y="-12"/>
      <point x="472" y="87"/>
      <point x="472" y="163" type="qcurve"/>
      <point x="472" y="298"/>
      <point x="299" y="321" type="qcurve"/>
      <point x="270" y="325"/>
      <point x="208" y="334"/>
      <point x="185" y="357"/>
      <point x="185" y="378" type="qcurve"/>
      <point x="185" y="422"/>
      <point x="255" y="422" type="qcurve"/>
      <point x="321" y="422"/>
      <point x="376" y="368" type="qcurve"/>
      <point x="461" y="455" type="line"/>
      <point x="422" y="494"/>
      <point x="330" y="537"/>
      <point x="247" y="537" type="qcurve"/>
      <point x="153" y="537"/>
      <point x="43" y="443"/>
      <point x="43" y="366" type="qcurve"/>
      <point x="43" y="227"/>
      <point x="220" y="204" type="qcurve"/>
      <point x="277" y="197" type="line"/>
      <point x="330" y="191"/>
      <point x="330" y="153" type="qcurve"/>
      <point x="330" y="130"/>
      <point x="296" y="103"/>
      <point x="252" y="103" type="qcurve"/>
      <point x="173" y="103"/>
      <point x="113" y="170" type="qcurve"/>
      <point x="26" y="82" type="line"/>
      <point x="66" y="37"/>
      <point x="171" y="-12"/>
    </contour>
    <contour>
      <point x="251" y="-275" type="line"/>
      <point x="281" y="-249"/>
      <point x="318" y="-164"/>
      <point x="318" y="-118" type="qcurve"/>
      <point x="318" y="-104" type="line"/>
      <point x="318" y="-44"/>
      <point x="248" y="-42" type="qcurve"/>
      <point x="182" y="-42"/>
      <point x="178" y="-104" type="qcurve"/>
      <point x="178" y="-115" type="line"/>
      <point x="178" y="-171"/>
      <point x="228" y="-176" type="qcurve"/>
      <point x="215" y="-234"/>
      <point x="166" y="-275" type="qcurve"/>
    </contour>
  </outline>
</glyph>
<glyph name="uni0219" format="2">
  <advance width="504"/>
  <unicode hex="0219"/>
  <outline>
    <contour>
      <point x="247" y="-12" type="qcurve" smooth="yes"/>
      <point x="171" y="-12"/>
      <point x="66" y="37"/>
      <point x="26" y="82" type="qcurve"/>
      <point x="113" y="170" type="line"/>
      <point x="173" y="103"/>
      <point x="252" y="103" type="qcurve" smooth="yes"/>
      <point x="296" y="103"/>
      <point x="330" y="130"/>
      <point x="330" y="153" type="qcurve" smooth="yes"/>
      <point x="330" y="191"/>
      <point x="277" y="197" type="qcurve" smooth="yes"/>
      <point x="220" y="204" type="line" smooth="yes"/>
      <point x="43" y="227"/>
      <point x="43" y="366" type="qcurve" smooth="yes"/>
      <point x="43" y="443"/>
      <point x="153" y="537"/>
      <point x="247" y="537" type="qcurve" smooth="yes"/>
      <point x="330" y="537"/>
      <point x="422" y="494"/>
      <point x="461" y="455" type="qcurve"/>
      <point x="376" y="368" type="line"/>
      <point x="321" y="422"/>
      <point x="255" y="422" type="qcurve" smooth="yes"/>
      <point x="185" y="422"/>
      <point x="185" y="378" type="qcurve" smooth="yes"/>
      <point x="185" y="357"/>
      <point x="208" y="334"/>
      <point x="270" y="325"/>
      <point x="299" y="321" type="qcurve" smooth="yes"/>
      <point x="472" y="298"/>
      <point x="472" y="163" type="qcurve" smooth="yes"/>
      <point x="472" y="87"/>
      <point x="349" y="-12"/>
    </contour>
    <contour>
      <point x="166" y="-275" type="line"/>
      <point x="215" y="-234"/>
      <point x="228" y="-176" type="qcurve"/>
      <point x="178" y="-171"/>
      <point x="178" y="-115" type="qcurve" smooth="yes"/>
      <point x="178" y="-104" type="line"/>
      <point x="182" y="-42"/>
      <point x="248" y="-42" type="qcurve"/>
      <point x="318" y="-44"/>
      <point x="318" y="-104" type="qcurve" smooth="yes"/>
      <point x="318" y="-118" type="line" smooth="yes"/>
      <point x="318" y="-164"/>
      <point x="281" y="-249"/>
      <point x="251" y="-275" type="qcurve"/>
    </contour>
  </outline>
</glyph>
<glyph name="tcommaaccent" format="2">
  <advance width="383"/>
  <unicode hex="021B"/>
  <outline>
    <contour>
      <point x="341" y="0" type="line"/>
      <point x="341" y="115" type="line"/>
      <point x="245" y="115" type="line"/>
      <point x="245" y="410" type="line"/>
      <point x="349" y="410" type="line"/>
      <point x="349" y="525" type="line"/>
      <point x="245" y="525" type="line"/>
      <point x="245" y="667" type="line"/>
      <point x="112" y="667" type="line"/>
      <point x="112" y="581" type="line"/>
      <point x="112" y="554"/>
      <point x="90" y="525"/>
      <point x="60" y="525" type="qcurve"/>
      <point x="23" y="525" type="line"/>
      <point x="23" y="410" type="line"/>
      <point x="97" y="410" type="line"/>
      <point x="97" y="153" type="line"/>
      <point x="97" y="3"/>
      <point x="253" y="0" type="qcurve"/>
    </contour>
    <contour>
      <point x="231" y="-275" type="line"/>
      <point x="261" y="-249"/>
      <point x="298" y="-164"/>
      <point x="298" y="-118" type="qcurve"/>
      <point x="298" y="-104" type="line"/>
      <point x="298" y="-44"/>
      <point x="228" y="-42" type="qcurve"/>
      <point x="162" y="-42"/>
      <point x="158" y="-104" type="qcurve"/>
      <point x="158" y="-115" type="line"/>
      <point x="158" y="-171"/>
      <point x="208" y="-176" type="qcurve"/>
      <point x="195" y="-234"/>
      <point x="146" y="-275" type="qcurve"/>
    </contour>
  </outline>
</glyph>
